<?xml version="1.0" encoding="UTF-8"?>
<svg id="Layer_2" xmlns="http://www.w3.org/2000/svg" viewBox="0 0 866.7 922.66">
  <defs>
    <style>
      .cls-1 {
        fill: #fff;
      }
    </style>
  </defs>
  <g id="ai">
    <g>
      <path class="cls-1" d="M402.02,483.28l-110.8-9.7c5.1-13.87,10.47-28.48,15.91-43.42,7.53-20.69,15.21-42.01,22.53-62.86,14.03-5.14,29-8.45,44.65-9.62,2.13-.16,4.25-.28,6.37-.35,1.67,10,3.37,20.06,5.05,30,6.33,37.22,12.5,72.68,16.29,95.95Z"/>
      <path class="cls-1" d="M415.78,561.33l20.79,118.01c-12.01,3.82-24.66,6.3-37.77,7.28-65.02,4.84-124.04-28.71-154.81-81.48l20.42-57.06,151.37,13.25Z"/>
      <path class="cls-1" d="M545.99,564.5c-2.96,11.15-7.07,21.87-12.19,32-5.66,11.17-12.55,21.63-20.52,31.19l-50.95-252.05c4.22,2.19,8.34,4.56,12.35,7.1,29.29,18.54,52.5,46.13,65.44,79.16,5.88,14.99,9.64,31.1,10.9,48,1.41,18.89-.42,37.27-5.03,54.6Z"/>
      <path class="cls-1" d="M380.68,357.33c1.67,10,3.37,20.06,5.05,30-22.61,19.22-49.23,33.98-78.6,42.83,7.53-20.69,15.21-42.01,22.53-62.86.99-2.82,1.98-5.64,2.96-8.45,13.4-38.45,25.35-74.73,32.65-101.79,3.12,24.98,9.04,62.09,15.41,100.27Z"/>
      <path class="cls-1" d="M462.15,242.57c-1.14,11.11-3.13,22-5.89,32.59-2.38,9.15-5.34,18.08-8.84,26.75l-22.43-110.97c-.46-4.68-1.9-4.8-5.35-5.1l-98.43-8.62c-3.74-.32-3.86,1.12-4.14,4.28-1.19,13.19-3.99,26.19-8.32,38.71l-83.68,218.56c-105.83-8.8-192.53-93.43-200.66-202.69C15.39,115.05,106.2,9.64,227.23.62c121.03-9.01,226.45,81.8,235.46,202.83.99,13.26.78,26.34-.54,39.12Z"/>
      <path class="cls-1" d="M680.05,769.31c-77.03,5.73-144.13-52.06-149.86-129.09-1.12-15.08.19-29.77,3.6-43.7.01,0,.01-.02.01-.02,2.75-11.24,6.87-21.97,12.19-32,15.8-29.85,42.15-53.5,74.48-65.62l-19.24,219.9c-.32,3.74.91,6.17,5.81,6.59l72.81,6.38c5.75.5,5.93-1.52,6.26-5.26l20.15-230.35.11-1.29c.83.22,1.66.45,2.48.69,54.37,15.87,95.83,64.09,100.28,123.91,5.74,77.03-52.05,144.12-129.08,149.86Z"/>
      <ellipse class="cls-1" cx="59.4" cy="453.83" rx="59.38" ry="62.16" transform="translate(-33.54 5.66) rotate(-4.26)"/>
      <path class="cls-1" d="M214.96,465.17l-21.35,55.77c-4.24,1.97-8.88,3.22-13.78,3.58-22.81,1.7-42.74-16.28-44.52-40.15s15.27-44.6,38.08-46.3c18.41-1.37,34.95,10.08,41.57,27.1Z"/>
      <path class="cls-1" d="M260.4,822.56c-41.35,3.08-77.36-27.94-80.44-69.29-1.86-24.94,8.69-47.95,26.44-62.95l.9.08c4.89.43,7.27-.23,7.59-3.97l1.07-2.98c9.79-5.94,21.09-9.71,33.29-10.62,41.35-3.08,77.37,27.94,80.45,69.29,3.08,41.35-27.95,77.36-69.3,80.44Z"/>
      <path class="cls-1" d="M464.5,922.32c-66.67,4.97-124.74-45.05-129.7-111.72-4.73-63.47,40.37-119.14,102.24-128.62l4.32,24.55c.77,4.42,3.08,4.62,6.82,4.95l77.99,6.82c3.74.33,3.94-1.98,4.27-5.72l-1.45-7.17c26.5,20.26,44.56,51.32,47.23,87.21,4.97,66.67-45.05,124.74-111.72,129.7Z"/>
      <path class="cls-1" d="M197.42,689.54c-15.31,15.06-35.84,24.98-58.94,26.7-51.8,3.86-96.92-35.01-100.78-86.82-3.85-51.8,35.01-96.92,86.82-100.78,22.1-1.65,42.99,4.49,59.98,16.1l-50.54,132c-1.36,5.68-.62,7.19,4.27,7.62l59.19,5.18Z"/>
      <circle class="cls-1" cx="486.72" cy="112.03" r="44.17"/>
      <path class="cls-1" d="M866.12,280.17c-8.43-113.29-107.11-198.29-220.4-189.86-89.71,6.68-161.66,69.93-183.57,152.23v.02h0c-2.82,10.58-4.8,21.47-5.89,32.6-1.14,11.63-1.3,23.51-.4,35.56,1.92,25.72,8.48,49.98,18.82,72.02,14.88,31.75,37.58,58.89,65.44,79.16,23.65,17.19,51.02,29.42,80.5,35.3l13.09-149.67-.28-.03c.32-3.74,1.94-5.62,5.97-5.27l73.96,6.47c3.74.33,5.63,1.94,5.25,6.26l-12.24,139.88h0s-.11,1.3-.11,1.3c.87-.2,1.73-.4,2.59-.6,96.54-22.97,164.88-113.23,157.27-215.37ZM733.16,248.35c-.31,24.89-20.74,44.82-45.62,44.51-2.52-.03-5.03-.28-7.51-.73-24.57-.45-44.11-20.73-43.66-45.3.04-2.31.27-4.61.67-6.89,2.32-26.54,25.72-46.17,52.26-43.85s46.18,25.72,43.86,52.26Z"/>
    </g>
    <path class="cls-1" d="M685.05,195.9c1.41,0,2.83.06,4.26.19,26.54,2.32,46.18,25.72,43.86,52.26-.31,24.7-20.43,44.51-45.05,44.51-.19,0-.38,0-.57,0-2.52-.03-5.03-.28-7.51-.73-24.57-.45-44.11-20.73-43.66-45.3.04-2.31.27-4.61.67-6.89,2.2-25.11,23.26-44.03,48-44.04M685.05,185.9h0c-14.51,0-28.43,5.4-39.19,15.21-10.72,9.77-17.36,23.09-18.73,37.52-.45,2.68-.7,5.38-.75,8.02-.55,29.76,23.01,54.47,52.67,55.45,2.8.47,5.61.72,8.38.75.23,0,.46,0,.69,0,14.56,0,28.29-5.64,38.67-15.88,10.29-10.16,16.1-23.69,16.37-38.14,2.58-31.84-21.11-59.94-52.98-62.72-1.7-.15-3.43-.22-5.12-.22h0Z"/>
    <path class="cls-1" d="M638.49,342.19c.29,0,.59.01.91.04l73.96,6.47c3.74.33,5.63,1.94,5.25,6.26l-12.24,139.88h0s-.11,1.3-.11,1.3l-20.15,230.35c-.3,3.36-.47,5.34-4.68,5.34-.47,0-1-.02-1.58-.08l-72.81-6.38c-4.9-.42-6.13-2.85-5.81-6.59l19.24-219.9.15-1.68,13.09-149.67-.28-.03c.29-3.44,1.69-5.31,5.06-5.31M638.49,327.19h0c-10.99,0-19.03,7.65-20,19.03-.08.98-.07,1.95.03,2.89l-12.84,146.78-.15,1.65-19.24,219.93c-1.08,12.58,6.75,21.75,19.47,22.84l72.78,6.38c1.03.09,1.97.13,2.88.13,9.5,0,14.29-5.07,16.3-8.1,2.72-4.1,3.09-8.2,3.33-10.92l20.15-230.36.11-1.32s0-.08.01-.13l12.23-139.73c1.09-12.37-6.5-21.42-18.87-22.51l-73.97-6.47c-.76-.07-1.5-.1-2.22-.1h0Z"/>
    <path class="cls-1" d="M320.28,177.17c.28,0,.59.01.93.04l98.43,8.62c3.45.3,4.89.42,5.35,5.1l22.43,110.97,14.91,73.73,50.95,252.05,15.71,77.72,1.45,7.17c-.31,3.5-.5,5.75-3.6,5.75-.21,0-.43-.01-.67-.03l-77.99-6.82c-3.74-.33-6.05-.53-6.82-4.95l-4.32-24.55-.47-2.64-20.79-118.01-151.37-13.25-20.42,57.06-28.03,78.31-1.07,2.98c-.27,3.1-1.95,4.09-5.3,4.09-.69,0-1.45-.04-2.29-.12l-.9-.08-8.98-.78-59.19-5.18c-4.89-.43-5.63-1.94-4.27-7.62l50.54-132,9.11-23.8,21.35-55.77,10.11-26.4,83.68-218.56c4.33-12.52,7.13-25.52,8.32-38.71.25-2.87.38-4.32,3.21-4.32M402.02,483.28c-3.79-23.27-9.96-58.73-16.29-95.95-1.68-9.94-3.38-20-5.05-30-6.37-38.18-12.29-75.29-15.41-100.27-7.3,27.06-19.25,63.34-32.65,101.79-.98,2.81-1.97,5.63-2.96,8.45-7.32,20.85-15,42.17-22.53,62.86-5.44,14.94-10.81,29.55-15.91,43.42l110.8,9.7M320.28,162.17c-9.55,0-14.05,5.98-15.54,8.56-2.09,3.6-2.4,7.1-2.6,9.42-1.07,11.86-3.59,23.61-7.48,34.93l-83.59,218.32-10.11,26.4-21.35,55.77-9.11,23.8-50.54,132c-.23.61-.43,1.24-.58,1.87-.81,3.37-2.7,11.26,2.37,18.29,4.94,6.86,12.65,7.54,15.18,7.76l59.2,5.18,8.99.78.87.08c1.34.12,2.51.17,3.61.17,12.43,0,18.31-7.76,19.88-15.3l.61-1.7,28.04-78.32,16.52-46.16,128.37,11.24,18.79,106.67.47,2.67,4.31,24.52c1.44,8.24,6.06,12.42,9.69,14.47,3.97,2.24,7.79,2.58,10.58,2.83l78.01,6.82c.66.06,1.33.09,1.98.09,7.25,0,13.38-3.78,16.39-10.12,1.63-3.43,1.92-6.69,2.15-9.31.13-1.43.05-2.89-.24-4.3l-1.45-7.17-15.71-77.72-50.95-252.05-14.91-73.73-22.29-110.27c-.34-2.95-1.47-9.35-7.24-13.8-4.33-3.34-8.91-3.74-11.65-3.97l-98.43-8.62c-.79-.07-1.54-.1-2.24-.1h0ZM312.06,460.34c2.94-8.02,6.06-16.54,9.16-25.06,8.92-24.51,16.1-44.54,22.59-63.02.99-2.83,1.99-5.66,2.97-8.48,4.92-14.11,9.36-27.12,13.34-39.09,1.71,10.65,3.63,22.32,5.76,35.1,1.67,10.01,3.37,20.08,5.06,30.03,2.07,12.19,4.12,24.17,6.08,35.6,2.61,15.21,4.99,29.11,7.03,41.22l-71.99-6.3h0Z"/>
  </g>
</svg>