<?xml version="1.0" encoding="UTF-8"?>
<svg id="Layer_2" xmlns="http://www.w3.org/2000/svg" viewBox="0 0 866.7 922.66">
  <defs>
    <style>
      .cls-1 {
        fill: #fff;
      }
    </style>
  </defs>
  <g id="css">
    <g>
      <path class="cls-1" d="M182.1,113.64l.44,317.3c-85.71-24.78-151.12-100.67-158.13-194.86C15.39,115.05,106.2,9.64,227.23.62c97.51-7.26,184.89,50.28,219.87,136.21l-265-23.19Z"/>
      <path class="cls-1" d="M680.05,769.31c-37.06,2.76-71.83-9.19-98.56-30.92l58.01-10.75,40.42-227.37,1.74-9.8c9.33.79,18.43,2.51,27.19,5.07,54.37,15.87,95.83,64.09,100.28,123.91,5.74,77.03-52.05,144.12-129.08,149.86Z"/>
      <ellipse class="cls-1" cx="59.4" cy="453.83" rx="59.38" ry="62.16" transform="translate(-33.54 5.66) rotate(-4.26)"/>
      <path class="cls-1" d="M182.67,524.2c-.94.14-1.88.25-2.84.32-22.81,1.7-42.74-16.28-44.52-40.15s15.27-44.6,38.08-46.3c3.12-.23,6.19-.1,9.16.38l.12,85.75Z"/>
      <path class="cls-1" d="M260.4,822.56c-41.35,3.08-77.36-27.94-80.44-69.29-1.69-22.63,6.84-43.66,21.69-58.57l128.08,47.88c2.82,41.16-28.13,76.91-69.33,79.98Z"/>
      <path class="cls-1" d="M464.5,922.32c-66.67,4.97-124.74-45.05-129.7-111.72-1.64-22.06,2.73-43.18,11.74-61.74l59.12,22.1,155.33-28.78c8.48,15.02,13.87,32.1,15.23,50.44,4.97,66.67-45.05,124.74-111.72,129.7Z"/>
      <path class="cls-1" d="M194.71,692.1c-14.99,13.62-34.47,22.52-56.23,24.14-51.8,3.86-96.92-35.01-100.78-86.82-3.85-51.8,35.01-96.92,86.82-100.78,21.33-1.59,41.53,4.07,58.18,14.89l.2,144.16,11.81,4.41Z"/>
      <path class="cls-1" d="M518.16,143.04l-67.8-5.93c-4.31-6.24-7.07-13.69-7.68-21.8-1.81-24.33,16.44-45.51,40.76-47.32,24.33-1.82,45.52,16.44,47.33,40.76.98,13.23-3.96,25.53-12.61,34.29Z"/>
      <path class="cls-1" d="M708.85,495.54c-9.39,2.23-19.05,3.83-28.93,4.73l1.74-9.8,58.31-328.02-217.55-19.03c32.82-29.96,75.55-49.55,123.3-53.11,113.29-8.43,211.97,76.57,220.4,189.86,7.61,102.14-60.73,192.4-157.27,215.37Z"/>
      <polygon class="cls-1" points="625.58 269.74 586.89 487.39 580.77 521.85 562.79 622.99 529.8 629.08 508.69 632.97 416.24 650.03 276.25 597.01 276.14 486.3 346.21 492.43 346.45 549.62 422.59 577.47 502.21 563.02 518.26 473.32 275.94 452.12 275.94 437.13 275.95 399.81 275.95 381.74 297.06 383.59 381.35 390.96 483.74 399.91 498.69 401.22 530.24 403.98 542.84 332.88 457.48 325.41 437.23 323.64 275.89 309.53 275.67 239.13 459.22 255.19 460.45 255.29 625.58 269.74"/>
    </g>
    <path class="cls-1" d="M182.1,113.64l265,23.19,3.26.28,67.8,5.93,4.26.38,217.55,19.03-58.31,328.02-1.74,9.8-40.42,227.37-58.01,10.75-20.5,3.79-155.33,28.78-59.12-22.1-16.81-6.28-128.08-47.88-6.94-2.6-11.81-4.41-.2-144.16-.03-19.33-.12-85.75v-7.51s-.45-317.3-.45-317.3M530.24,403.98l-31.55-2.76-14.95-1.31-102.39-8.95-84.29-7.37-21.11-1.85v55.39s-.01,14.99-.01,14.99l242.32,21.2-16.05,89.7-79.62,14.45-76.14-27.85-.24-57.19-70.07-6.13.11,110.71,139.99,53.02,92.45-17.06,21.11-3.89,32.99-6.09,17.98-101.14,6.12-34.46,38.69-217.65-165.13-14.45-1.23-.1-183.55-16.06.22,70.4,161.34,14.11,20.25,1.77,85.36,7.47-12.6,71.1M182.1,98.64c-3.74,0-7.36,1.4-10.14,3.95-3.1,2.85-4.86,6.86-4.86,11.07l.44,317.3v7.51s.13,85.75.13,85.75l.03,19.33.2,144.16c0,6.25,3.9,11.84,9.75,14.03l11.81,4.41,6.93,2.59,128.09,47.88,16.81,6.28,59.12,22.1c1.69.63,3.47.95,5.25.95.91,0,1.83-.08,2.73-.25l155.33-28.78,20.49-3.79,58.02-10.75c6.15-1.14,10.94-5.97,12.04-12.12l40.42-227.37,1.74-9.8,58.31-328.02c.74-4.14-.3-8.41-2.86-11.75-2.56-3.34-6.41-5.45-10.6-5.82l-217.55-19.03-4.23-.38-67.83-5.93-3.28-.28-264.98-23.19c-.44-.04-.87-.06-1.31-.06h0ZM290.85,295.78l-.13-40.28,167.19,14.63s.06,0,.09,0l1.18.1,148.76,13.02-35.82,201.51-6.12,34.46-16.16,90.9-22.76,4.2-21.11,3.89-88.34,16.3-126.4-47.87-.08-83.98,40.11,3.51.18,43.5c.03,6.27,3.95,11.87,9.85,14.02l76.14,27.85c1.66.61,3.4.91,5.15.91.89,0,1.79-.08,2.68-.24l79.62-14.45c6.16-1.12,10.98-5.95,12.09-12.12l16.05-89.7c.74-4.15-.29-8.41-2.85-11.76-2.56-3.34-6.41-5.46-10.6-5.83l-228.63-20v-38.56s.01-1.7.01-1.7l4.8.42,84.29,7.37,102.39,8.95,14.95,1.31,31.55,2.76c.44.04.88.06,1.32.06,7.2,0,13.48-5.17,14.76-12.38l12.6-71.1c.73-4.14-.31-8.4-2.87-11.74-2.56-3.34-6.4-5.45-10.6-5.82l-85.36-7.47-20.25-1.77-147.69-12.92h0Z"/>
  </g>
</svg>