<?xml version="1.0" encoding="UTF-8"?>
<svg id="Layer_2" xmlns="http://www.w3.org/2000/svg" viewBox="0 0 866.7 922.66">
  <defs>
    <style>
      .cls-1 {
        fill: #fff;
      }
    </style>
  </defs>
  <g id="html">
    <g>
      <path class="cls-1" d="M545.99,564.5c-2.96,11.15-7.07,21.87-12.19,32-5.34,10.55-11.78,20.46-19.2,29.59-1.93,2.38-3.93,4.7-5.99,6.97l-91.57,16.84-.03.4-1.58-.14-139.96-52.18.92-110.91,69.33,6.07.3,55.92,75.82,27.8,79.89-14.17,16.63-89.57-242.48-21.21v-14.77s-.03-37.24-.03-37.24c19.65-17.82,43.68-31.02,70.5-37.73l-.12,24.83,36.11,3.16,100.85,8.82,14.44,1.26c16.39,14.93,29.8,33.15,39.13,53.73,1.19,2.6,2.31,5.25,3.36,7.93,5.88,14.99,9.64,31.1,10.9,48,1.41,18.89-.42,37.27-5.03,54.6Z"/>
      <path class="cls-1" d="M182.15,113.13l.48,317.83c-85.76-24.75-151.21-100.66-158.22-194.88C15.39,115.05,106.2,9.64,227.23.62c97.31-7.24,184.53,50.04,219.65,135.67l-264.73-23.16Z"/>
      <path class="cls-1" d="M460.53,254.86c-1.1,6.87-2.53,13.64-4.27,20.3-4.33,16.67-10.59,32.62-18.55,47.57l-23.73-2.08-67.41-5.89-.22,47.41-.12,24.83,36.11,3.16c-29.78,24.3-66.19,41.02-106.47,46.98l-.02-37.24-.08-161.2,164.98,14.44,18.56,1.62,1.22.1Z"/>
      <path class="cls-1" d="M581.08,521.59l-18.37,101.52-32.91,6.05c.01-2.19.07-4.37.17-6.53.45-8.94,1.75-17.68,3.83-26.13,2.75-11.24,6.87-21.97,12.19-32,6.59-12.45,15-23.81,24.93-33.71,3.23-3.23,6.62-6.3,10.16-9.2Z"/>
      <path class="cls-1" d="M680.05,769.31c-37.17,2.76-72.03-9.26-98.79-31.11l58.19-10.95,40.38-226.97,1.74-9.81c9.36.78,18.49,2.5,27.28,5.07,54.37,15.87,95.83,64.09,100.28,123.91,5.74,77.03-52.05,144.12-129.08,149.86Z"/>
      <ellipse class="cls-1" cx="59.4" cy="453.83" rx="59.38" ry="62.16" transform="translate(-33.54 5.66) rotate(-4.26)"/>
      <path class="cls-1" d="M182.77,524.19c-.97.15-1.95.26-2.94.33-22.81,1.7-42.74-16.28-44.52-40.15s15.27-44.6,38.08-46.3c3.15-.24,6.25-.09,9.25.39l.13,85.73Z"/>
      <path class="cls-1" d="M260.4,822.56c-41.35,3.08-77.36-27.94-80.44-69.29-1.69-22.75,6.93-43.88,21.92-58.8l127.87,48.47c2.62,41.01-28.27,76.56-69.35,79.62Z"/>
      <path class="cls-1" d="M464.5,922.32c-66.67,4.97-124.74-45.05-129.7-111.72-1.63-21.91,2.67-42.89,11.56-61.36l58.47,22.16,156.08-29.37c8.53,15.06,13.94,32.19,15.31,50.59,4.97,66.67-45.05,124.74-111.72,129.7Z"/>
      <path class="cls-1" d="M194.98,691.85c-15.02,13.76-34.61,22.76-56.5,24.39-51.8,3.86-96.92-35.01-100.78-86.82-3.85-51.8,35.01-96.92,86.82-100.78,21.37-1.59,41.61,4.09,58.28,14.96l.22,143.72,11.96,4.53Z"/>
      <path class="cls-1" d="M518.62,142.57l-68.63-6.01c-4.1-6.13-6.72-13.37-7.31-21.25-1.81-24.33,16.44-45.51,40.76-47.32,24.33-1.82,45.52,16.44,47.33,40.76.97,13-3.79,25.1-12.15,33.82Z"/>
      <path class="cls-1" d="M482.66,326.66s-.02.03-.03.04l-68.63-6.01s-.02-.03-.02-.04c-4.09-6.12-6.7-13.35-7.29-21.21-1.64-22.04,13.18-41.49,34.06-46.3l18.56,1.62,1.22.1,7.52.66c14.69,6.27,25.46,20.33,26.73,37.36.97,12.98-3.78,25.06-12.12,33.78Z"/>
      <path class="cls-1" d="M626.01,269.34l-12.41,68.78-130.94-11.46-25.31-2.21c-.65-4.53-1.15-9.11-1.49-13.73-.9-12.05-.74-23.93.4-35.56.67-6.9,1.69-13.71,3.05-20.4l1.22.1,7.52.66,157.96,13.82Z"/>
      <path class="cls-1" d="M601.4,409.32l-14.15,78.21c-1.21-.47-2.42-.95-3.63-1.44-15.5-6.3-30.09-14.45-43.5-24.19-2.14-1.56-4.26-3.16-6.34-4.8-20.23-15.94-37.47-35.63-50.59-58.12l14.44,1.26,103.77,9.08Z"/>
      <path class="cls-1" d="M708.85,495.54c-9.42,2.24-19.11,3.84-29.02,4.74l1.74-9.81,58.45-328.53-217.09-18.99c32.75-29.7,75.28-49.1,122.79-52.64,113.29-8.43,211.97,76.57,220.4,189.86,7.61,102.14-60.73,192.4-157.27,215.37Z"/>
      <polygon class="cls-1" points="545.84 444.43 525.42 465.88 500.91 629.16 545.84 619.07 584.14 484.26 545.84 444.43"/>
    </g>
    <path class="cls-1" d="M182.15,113.13l264.73,23.16,3.11.27,68.63,6.01,4.31.38,217.09,18.99-58.45,328.53-1.74,9.81-40.38,226.97-58.19,10.95-20.35,3.83-156.08,29.37-58.47-22.16-16.61-6.3-127.87-48.47-6.9-2.62-11.96-4.53-.22-143.72-.03-19.41-.13-85.73v-7.5s-.49-317.83-.49-317.83M421.84,576.86l-75.82-27.8-.3-55.92-69.33-6.07-.92,110.91,139.96,52.18,1.58.14.03-.4,91.57-16.84,21.19-3.9,32.91-6.05,18.37-101.52,6.17-34.06,14.15-78.21-103.77-9.08-14.44-1.26-100.85-8.82-36.11-3.16.12-24.83.22-47.41,67.41,5.89s.01.03.02.04l68.63,6.01s.03-.03.03-.04l130.94,11.46,12.41-68.78-157.96-13.82-7.52-.66-1.22-.1-18.56-1.62-164.98-14.44.08,161.2.02,37.24v14.77s242.49,21.21,242.49,21.21l-16.63,89.57-79.89,14.17M182.15,98.13c-3.74,0-7.36,1.4-10.14,3.95-3.1,2.85-4.86,6.86-4.86,11.07l.48,317.83v7.5s.14,85.73.14,85.73l.03,19.41.22,143.72c0,6.23,3.86,11.8,9.69,14l11.96,4.53,6.89,2.62,127.88,48.47,16.61,6.3,58.47,22.16c1.71.65,3.51.97,5.32.97.93,0,1.86-.09,2.77-.26l156.08-29.37,20.35-3.83,58.19-10.95c6.13-1.15,10.9-5.98,11.99-12.11l40.38-226.97,1.74-9.82,58.45-328.52c.74-4.14-.3-8.41-2.86-11.75-2.56-3.34-6.41-5.45-10.6-5.82l-217.09-18.99-4.3-.38-68.64-6.01-3.12-.27-264.72-23.16c-.44-.04-.87-.06-1.31-.06h0ZM290.87,438.16v-1.03s-.02-37.24-.02-37.24l-.07-144.82,148.66,13.01,18.56,1.62s.05,0,.08,0l1.18.1,7.47.66,141.59,12.39-7.06,39.13-117.3-10.27c-.38-.03-.75-.05-1.13-.06l-66.48-5.82c-.35-.06-.71-.1-1.07-.13l-67.41-5.89c-.44-.04-.87-.06-1.31-.06-3.72,0-7.33,1.39-10.11,3.92-3.1,2.83-4.87,6.82-4.89,11.01l-.22,47.41-.12,24.83c-.04,7.81,5.92,14.34,13.69,15.02l36.11,3.16,100.85,8.82,14.44,1.26,87.39,7.65-11.22,62.03-6.17,34.06-16.52,91.32-22.71,4.17-21.19,3.9-89.04,16.37-126.3-47.09.7-84.17,39.54,3.46.23,42.25c.03,6.26,3.96,11.85,9.84,14l75.82,27.8c1.66.61,3.41.92,5.16.92.88,0,1.75-.08,2.62-.23l79.89-14.17c6.15-1.09,10.99-5.89,12.13-12.03l16.63-89.57c.77-4.16-.25-8.45-2.81-11.82s-6.42-5.5-10.63-5.87l-228.8-20.01h0Z"/>
  </g>
</svg>