<?xml version="1.0" encoding="UTF-8"?>
<svg id="Layer_2" xmlns="http://www.w3.org/2000/svg" viewBox="0 0 866.7 922.66">
  <defs>
    <style>
      .cls-1 {
        fill: #fff;
      }
    </style>
  </defs>
  <g id="js">
    <g>
      <path class="cls-1" d="M458.84,175.66l-220.25-19.27c-33-2.89-62.11,21.54-65,54.54l-18.38,210.1c-71.98-31.68-124.55-101.06-130.8-184.95C15.39,115.05,106.2,9.64,227.23.62c111.57-8.31,209.87,68.21,231.61,175.04Z"/>
      <path class="cls-1" d="M680.05,769.31c-29.81,2.22-58.14-5.08-81.99-19.33l30.05,2.63c33,2.89,62.11-21.54,65-54.54l17.67-201.95c53.42,16.44,93.95,64.22,98.35,123.33,5.74,77.03-52.05,144.12-129.08,149.86Z"/>
      <ellipse class="cls-1" cx="59.4" cy="453.83" rx="59.38" ry="62.16" transform="translate(-33.54 5.66) rotate(-4.26)"/>
      <path class="cls-1" d="M153.07,445.47l-5.79,66.21c-6.72-7.09-11.17-16.61-11.97-27.31-1.19-15.95,6.03-30.5,17.76-38.9Z"/>
      <path class="cls-1" d="M260.4,822.56c-41.35,3.08-77.36-27.94-80.44-69.29-1.05-14.05,1.85-27.49,7.75-39.23.68.09,1.38.16,2.07.22l137.01,11.99c1.51,5.07,2.5,10.38,2.91,15.87,3.08,41.35-27.95,77.36-69.3,80.44Z"/>
      <path class="cls-1" d="M464.5,922.32c-66.67,4.97-124.74-45.05-129.7-111.72-2.26-30.38,6.89-58.97,23.84-81.57l204.91,17.93c7,13.82,11.45,29.24,12.67,45.66,4.97,66.67-45.05,124.74-111.72,129.7Z"/>
      <path class="cls-1" d="M169.18,708.65c-9.48,4.14-19.8,6.78-30.7,7.59-51.8,3.86-96.92-35.01-100.78-86.82-3.85-51.8,35.01-96.92,86.82-100.78,7.23-.54,14.33-.25,21.2.81l-10.48,119.81c-2.25,25.64,12,48.92,33.94,59.39Z"/>
      <circle class="cls-1" cx="486.72" cy="112.03" r="44.17"/>
      <path class="cls-1" d="M710.87,495.05l20.59-235.31c2.89-33-21.54-62.11-54.54-65l-185.18-16.2c34.14-49.36,89.47-83.42,153.98-88.23,113.29-8.43,211.97,76.57,220.4,189.86,7.56,101.42-59.78,191.13-155.25,214.88Z"/>
      <path class="cls-1" d="M654.63,637.36c-4.12,47.07-43.49,69.72-93.18,65.37-4.19-.37-8.23-.89-12.13-1.58-32.84-5.68-55.73-21.98-69.58-42.9-3.67-5.52-6.69-11.36-9.11-17.42l44.87-20.92c.51,1.03,1.04,2.05,1.58,3.05,3.67,6.89,7.93,13.11,13.19,18.28,8.33,8.21,19.15,13.76,34.11,15.07,21.67,1.9,36.57-7.71,37.88-22.78,1.57-17.93-12.07-25.53-35.17-38.21l-12.59-6.75c-4.81-2.56-9.4-5.17-13.72-7.88-.56-.36-1.12-.71-1.68-1.07-27.39-17.6-43.74-39.29-40.57-75.63,1.92-21.85,12.82-39.97,30.13-51.06,1.92-1.24,3.92-2.38,6-3.43,12.92-6.56,28.74-9.6,46.64-8.03,33.37,2.92,56.27,16.59,70.79,48.48l-2.91,1.52-15.16,7.94-25.06,13.12c-1.14-2.54-2.31-4.85-3.54-6.96-6.91-11.92-15.44-17.29-28.24-18.41-14.26-1.25-24.4,6.35-26.62,17.65-.17.83-.29,1.69-.37,2.57-.37,4.25.03,7.88,1.24,11.15,2.28,6.12,7.4,10.96,15.65,16.24,3.59,2.31,7.77,4.7,12.57,7.31l12.58,6.75c42.92,22.95,66.23,44.69,62.4,88.53Z"/>
      <path class="cls-1" d="M460,433.87l-15.66,178.94c-4.66,53.28-37.54,75.45-82.66,72.41-.86-.05-1.72-.12-2.58-.19-16.75-1.46-30.38-6.13-41.36-12.97-16.52-10.26-27.04-25.42-33.14-41.86l44.96-22.04c6.95,15.29,13.34,28.27,31.4,29.85,17.18,1.51,28.73-4.26,31.02-30.53l15.59-178.2,52.43,4.59Z"/>
    </g>
    <path class="cls-1" d="M233.3,156.15c1.75,0,3.52.08,5.3.23l220.25,19.27,32.9,2.88,185.18,16.2c33,2.89,57.43,32,54.54,65l-20.59,235.31-.09,1.07-17.67,201.95c-2.73,31.22-28.94,54.77-59.7,54.77-1.75,0-3.52-.08-5.3-.23l-30.05-2.63-34.51-3.02-204.91-17.93-31.85-2.78-137.01-11.99c-.69-.06-1.39-.13-2.07-.22-6.6-.8-12.83-2.66-18.53-5.39-21.94-10.47-36.19-33.75-33.94-59.39l10.48-119.81,1.56-17.77,5.79-66.21,2.14-24.44,18.38-210.1c2.73-31.22,28.94-54.77,59.7-54.77M365.72,638.23c-1.53,0-3.12-.08-4.76-.22-18.06-1.58-24.45-14.56-31.4-29.85l-44.96,22.04c6.1,16.44,16.62,31.6,33.14,41.86,10.98,6.84,24.61,11.51,41.36,12.97.86.07,1.72.14,2.58.19,2.7.18,5.36.27,7.97.27,40.99,0,70.31-22.59,74.69-72.68l15.66-178.94-52.43-4.59-15.59,178.2c-2.07,23.76-11.72,30.75-26.26,30.75M569.72,656.55c-1.73,0-3.51-.08-5.34-.24-14.96-1.31-25.78-6.86-34.11-15.07-5.26-5.17-9.52-11.39-13.19-18.28-.54-1-1.07-2.02-1.58-3.05l-44.87,20.92c2.42,6.06,5.44,11.9,9.11,17.42,13.85,20.92,36.74,37.22,69.58,42.9,3.9.69,7.94,1.21,12.13,1.58,4.02.35,7.97.53,11.84.53,43.99,0,77.55-22.63,81.34-65.9,3.83-43.84-19.48-65.58-62.4-88.53l-12.58-6.75c-4.8-2.61-8.98-5-12.57-7.31-8.25-5.28-13.37-10.12-15.65-16.24-1.21-3.27-1.61-6.9-1.24-11.15.08-.88.2-1.74.37-2.57,2.06-10.49,10.94-17.78,23.6-17.78.98,0,1.99.04,3.02.13,12.8,1.12,21.33,6.49,28.24,18.41,1.23,2.11,2.4,4.42,3.54,6.96l25.06-13.12,15.16-7.94,2.91-1.52c-14.52-31.89-37.42-45.56-70.79-48.48-3.11-.27-6.16-.41-9.14-.41-14.17,0-26.82,3.02-37.5,8.44-2.08,1.05-4.08,2.19-6,3.43-17.31,11.09-28.21,29.21-30.13,51.06-3.17,36.34,13.18,58.03,40.57,75.63.56.36,1.12.71,1.68,1.07,4.32,2.71,8.91,5.32,13.72,7.88l12.59,6.75c23.1,12.68,36.74,20.28,35.17,38.21-1.2,13.8-13.79,23.02-32.54,23.02M233.3,141.15c-18.69,0-36.61,6.96-50.47,19.59-13.94,12.71-22.53,30.07-24.18,48.87l-18.38,210.1-2.14,24.44-5.79,66.21-1.56,17.76-10.48,119.81c-1.36,15.52,2.06,30.82,9.88,44.24,7.64,13.11,18.89,23.48,32.54,29.99,7.26,3.48,15.04,5.75,23.1,6.73.81.11,1.65.2,2.66.28l137,11.99,31.85,2.78,204.91,17.93,34.51,3.02,30.05,2.63c2.19.19,4.41.29,6.6.29,18.69,0,36.61-6.96,50.47-19.59,13.94-12.71,22.53-30.07,24.18-48.87l17.67-201.95s0-.04,0-.05l.09-1.04,20.59-235.29c1.75-19.95-4.38-39.39-17.26-54.74-12.88-15.35-30.96-24.76-50.91-26.51l-185.18-16.2-32.9-2.88-220.25-19.27c-2.19-.19-4.41-.29-6.6-.29h0ZM365.72,653.23c12,0,21.65-3.74,28.67-11.13,7.13-7.49,11.23-18.39,12.53-33.32l14.28-163.25,22.54,1.97-14.35,164c-3.42,39.14-23.53,58.99-59.75,58.99-2.26,0-4.6-.08-6.96-.24-.05,0-.09,0-.14,0-.73-.04-1.46-.1-2.19-.16-13.45-1.18-25.12-4.8-34.69-10.75-8.75-5.43-15.87-12.85-21.28-22.13l18.39-9.02c6.89,11.84,17.32,23.06,36.87,24.77,2.1.18,4.15.28,6.07.28h0ZM548.82,568.02c-.28-.18-.56-.36-.85-.54-.25-.16-.51-.32-.76-.48-26.31-16.91-36.09-34.78-33.74-61.71,1.49-16.96,9.76-31.07,23.28-39.73.02,0,.03-.02.05-.03,1.44-.93,3-1.82,4.62-2.64,8.93-4.54,19.26-6.83,30.74-6.83,2.56,0,5.19.12,7.83.35,24.51,2.14,40.31,10.29,51.63,27.32l-4.56,2.39-12.22,6.4c-8.91-12.42-20.61-18.93-36.35-20.3-1.45-.13-2.91-.19-4.33-.19-19.38,0-34.77,11.99-38.31,29.83-.27,1.32-.47,2.72-.6,4.17,0,.02,0,.04,0,.06-.57,6.5.13,12.28,2.12,17.66,4.26,11.44,13.8,18.65,21.63,23.67,3.54,2.28,7.83,4.78,13.49,7.85.02.01.05.03.07.04l12.58,6.75c44.13,23.6,57.38,41.58,54.55,74.01-4.12,47.12-47.81,52.2-66.4,52.2-3.43,0-6.97-.16-10.53-.47-3.8-.34-7.44-.81-10.83-1.41-.02,0-.04,0-.06,0-26.25-4.54-46.87-17.13-59.63-36.4-.45-.68-.89-1.36-1.32-2.05l18.46-8.6c3.2,4.78,6.63,8.95,10.37,12.63,11.46,11.3,26.04,17.8,43.32,19.32,2.24.2,4.48.3,6.65.3,12.29,0,23.21-3.16,31.57-9.13,9.29-6.64,14.94-16.44,15.91-27.59,1.15-13.12-3.11-24.01-13.01-33.31-7.56-7.09-17.9-12.77-29.88-19.35-.04-.02-.09-.05-.13-.07l-12.59-6.75c-4.84-2.58-9-4.97-12.77-7.33h0Z"/>
  </g>
</svg>