<?xml version="1.0" encoding="UTF-8"?>
<svg id="Layer_2" xmlns="http://www.w3.org/2000/svg" viewBox="0 0 866.7 922.66">
  <defs>
    <style>
      .cls-1 {
        fill: #fff;
      }
    </style>
  </defs>
  <g id="njs">
    <g>
      <path class="cls-1" d="M324.29,369.39l-4.96,56.69-14.91,170.48c-1.68,19.24-22.11,36.63-52.1,21.45-17-23.76-27.91-52.34-30.23-83.61-2.56-34.41,5.62-67.13,21.72-94.87,18.13-31.28,46.31-56.23,80.48-70.14Z"/>
      <path class="cls-1" d="M532.47,445.2c-5.04-1.25-10.32-2.48-15.83-3.7-.22-.05-.44-.1-.65-.15-70.22-15.64-77-21.16-75.54-37.84.86-9.7,4.9-21.4,25.44-25.96,2.99,1.64,5.92,3.37,8.79,5.19,24.2,15.32,44.25,36.82,57.79,62.46Z"/>
      <path class="cls-1" d="M378.36,496.33c-3.4,38.84,13.65,87,114.66,95.84,15.27,1.31,29.29,1.24,41.96-.15.35-.03.7-.07,1.05-.12-.72,1.55-1.47,3.08-2.23,4.6-25.24,49.86-75.2,85.66-135,90.12-35.07,2.61-68.39-5.95-96.47-22.66,25.87-7.43,41.79-29.46,44.78-63.54l17.24-197.05,3.94-45.13c2-.22,4-.41,6.02-.56,13.29-.99,26.34-.37,38.93,1.68-2.43,2.4-4.64,4.97-6.63,7.71,0,0,0,.02-.02.04-6.82,9.41-10.94,20.76-12.09,33.89-4.41,50.44,33.44,67.84,95.95,79.6,28.78,5.37,47.23,10.4,58.95,15.39.73,4.57,1.27,9.21,1.62,13.91.97,12.95.41,25.66-1.52,37.95-11.77,4.79-29.16,5.95-53.07,3.86-61.05-5.35-73.07-21.87-74.91-52.61-.21-3.29-2.75-5.9-6.12-6.19l-29.85-2.61c-3.74-.33-6.88,2.41-7.19,6.03Z"/>
      <path class="cls-1" d="M448.47,140.26c-4.32.67-8.53,1.89-12.48,3.68l-242.01,112.94c-15.74,7.31-26.4,22.73-27.91,39.96l-10.86,124.19c-71.98-31.68-124.55-101.06-130.8-184.95C15.39,115.05,106.2,9.64,227.23.62c98.8-7.36,187.2,51.81,221.24,139.64Z"/>
      <path class="cls-1" d="M462.15,242.57c-1.14,11.11-3.13,22-5.89,32.59-8.1,31.13-22.9,59.74-42.88,84.06-.05.04-.1.09-.14.14-2.43,2.4-4.64,4.97-6.63,7.71,0,0,0,.02-.02.04-12.45,13.77-26.63,25.98-42.24,36.26l3.94-45.13,1.81-20.65c.33-3.75-2.54-6.89-6.16-7.21l-29.22-2.55c-3.74-.33-6.99,2.28-7.32,6.02l-3.11,35.54-4.96,56.69c-18.68,6.86-38.62,11.27-59.46,12.83-5.38.4-10.74.61-16.06.62-16.52.03-32.67-1.78-48.24-5.26l11.7-133.7c.23-2.62,1.82-5,4.17-6.05l242.01-112.95c2.04-.97,4.61-.84,6.57.28,1.23,7.08,2.13,14.29,2.67,21.6.99,13.26.78,26.34-.54,39.12Z"/>
      <path class="cls-1" d="M669.55,489.97l-.97,11.05-9.38,107.2c-.22,2.5-1.81,4.87-4.04,5.94l-119.53,55.71c-2.82-9.47-4.68-19.39-5.44-29.65-1.12-15.08.19-29.79,3.61-43.72.37-1.5.76-3,1.18-4.48.35-.03.7-.07,1.05-.12,47.2-5.47,75.33-29.45,78.79-68.84.7-8.02.44-15.17-.77-21.58,3.11-1.36,6.28-2.6,9.51-3.72,11.28-3.93,23.25-6.47,35.72-7.4,3.45-.25,6.87-.38,10.27-.39Z"/>
      <path class="cls-1" d="M680.05,769.31c-52.09,3.87-99.64-21.3-126.73-61.83l119.43-55.67c15.75-7.43,26.4-22.73,27.9-39.96l10.13-115.73c53.42,16.44,93.95,64.22,98.35,123.33,5.74,77.03-52.05,144.12-129.08,149.86Z"/>
      <ellipse class="cls-1" cx="59.4" cy="453.83" rx="59.38" ry="62.16" transform="translate(-33.54 5.66) rotate(-4.26)"/>
      <path class="cls-1" d="M153.07,445.47l-5.79,66.21c-6.72-7.09-11.17-16.61-11.97-27.31-1.19-15.95,6.03-30.5,17.76-38.9Z"/>
      <path class="cls-1" d="M187.8,523.1l7.05-80.58c12.7,6.62,21.88,19.86,23.05,35.7,1.57,20.99-11.43,39.56-30.1,44.88Z"/>
      <path class="cls-1" d="M260.4,822.56c-41.35,3.08-77.36-27.94-80.44-69.29-3.08-41.35,27.94-77.37,69.29-80.44,24.01-1.79,46.23,7.92,61.23,24.48-.87.22-1.78.45-2.73.69-3.86.92-9.67,2.68,1.24,10.18l15.29,10.94c2.94,7.14,4.81,14.87,5.42,23,3.08,41.35-27.95,77.36-69.3,80.44Z"/>
      <path class="cls-1" d="M497.01,687.88l-84.11,39.2c-2.11,1.07-5.1.81-7.12-.62l-26.42-18.96c18.5-15,41.61-24.7,67.16-26.6,17.71-1.32,34.82,1.24,50.49,6.98Z"/>
      <path class="cls-1" d="M464.5,922.32c-66.67,4.97-124.74-45.05-129.7-111.72-1.95-26.09,4.53-50.87,17.14-71.66l30.11,21.55c6.99,4.89,15.28,7.88,23.65,8.61,8.49.74,17.05-.77,24.79-4.37l108.64-50.64c20.91,19.96,34.78,47.43,37.09,78.53,4.97,66.67-45.05,124.74-111.72,129.7Z"/>
      <path class="cls-1" d="M222.03,648.03c-10.44,36.95-43.04,65.19-83.55,68.21-51.8,3.86-96.92-35.01-100.78-86.82-3.85-51.8,35.01-96.92,86.82-100.78,7.23-.54,14.33-.24,21.21.81l-2.93,33.46c-1.52,17.36,6.31,34.28,20.54,44.2l57.38,40.12c.44.27.88.53,1.31.8Z"/>
      <path class="cls-1" d="M222.27,597.72l-35.2-24.64c-2.15-1.32-3.3-3.94-3.08-6.44l1.84-20.98c17.46,12.36,30.62,30.59,36.44,52.06Z"/>
      <path class="cls-1" d="M494.8,155.45l-10.37-7.27c-9.15-6.32-20.77-9.19-32.03-8.36-5.48-6.75-9.02-15.19-9.72-24.51-1.81-24.33,16.44-45.51,40.76-47.32,24.33-1.82,45.52,16.44,47.33,40.76,1.69,22.7-14.08,42.66-35.97,46.7Z"/>
      <path class="cls-1" d="M682.49,342.02l-12.94,147.95-.97,11.05c-15.37.57-30.45-.57-45.02-3.26-3.71-.68-7.38-1.46-11.02-2.34-8.09-26.15-34.71-38.99-80.07-50.22-5.04-1.25-10.32-2.48-15.83-3.7-.22-.05-.44-.1-.65-.15-16.94-16.82-31-36.61-41.31-58.61-.97-2.06-1.91-4.15-2.8-6.25,7.99-1.07,18.02-1.24,30.59-.14,47.32,4.14,63.9,15.9,68.35,48.5.36,3.05,2.91,5.54,6.03,5.81l29.97,2.62c1.87.17,3.68-.43,5.05-1.69,1.37-1.27,2.16-3.08,2.2-4.97.2-55.47-34.15-84.26-108.06-90.73-17.2-1.51-32.75-.96-46.41,1.5-1.81-8.68-3.06-17.59-3.74-26.67-.9-12.05-.74-23.93.4-35.56,1.09-11.13,3.07-22.02,5.89-32.59,4.32-16.26,10.6-31.78,18.58-46.26l198.7,139.03c2.12,1.57,3.29,4.06,3.06,6.68Z"/>
      <path class="cls-1" d="M710.87,495.05l13.06-149.28c1.52-17.35-6.31-34.27-20.54-44.19l-199.05-139.45c34.39-40.4,84.29-67.57,141.38-71.82,113.29-8.43,211.97,76.57,220.4,189.86,7.56,101.42-59.78,191.13-155.25,214.88Z"/>
      <g>
        <polygon class="cls-1" points="498.1 212.09 455.51 189.62 203.12 417.37 183.99 566.64 243.8 607.33 269.33 369.39 361.25 292.39 426.91 340.89 480.74 326.48 498.1 212.09"/>
        <path class="cls-1" d="M550.14,501.16s17.4,8.12,13.32,19.36-13.96,27.33-13.96,27.33l-17.03-42.65,17.67-4.04Z"/>
        <polygon class="cls-1" points="558.35 593.11 504.34 602.22 361.25 672.62 361.25 692.09 395.97 714.09 486.38 687.08 568.9 646.14 558.35 593.11"/>
        <polygon class="cls-1" points="346.95 672.62 302.33 696.18 277.5 674.73 341.04 660.43 346.95 672.62"/>
      </g>
    </g>
    <path class="cls-1" d="M487.54,335.05c5.92,0,12.08.28,18.48.84,73.91,6.47,108.26,35.26,108.06,90.73-.04,1.89-.83,3.7-2.2,4.97-1.22,1.12-2.78,1.72-4.43,1.72-.21,0-.41,0-.62-.03l-29.97-2.62c-3.12-.27-5.67-2.76-6.03-5.81-4.45-32.6-21.03-44.36-68.35-48.5-5.84-.51-11.13-.75-15.92-.75-5.53,0-10.39.31-14.67.89-2.14.29-4.14.65-5.99,1.06-20.54,4.56-24.58,16.26-25.44,25.96-1.46,16.68,5.32,22.2,75.54,37.84.21.05.43.1.65.15,5.51,1.22,10.79,2.45,15.83,3.7,45.36,11.23,71.98,24.07,80.07,50.22.61,1.94,1.11,3.96,1.51,6.06,1.21,6.41,1.47,13.56.77,21.58-3.46,39.39-31.59,63.37-78.79,68.84-.35.05-.7.09-1.05.12-6.59.72-13.55,1.09-20.86,1.09-6.74,0-13.77-.31-21.1-.94-101.01-8.84-118.06-57-114.66-95.84.29-3.42,3.11-6.06,6.58-6.06.2,0,.4,0,.61.03l29.85,2.61c3.37.29,5.91,2.9,6.12,6.19,1.84,30.74,13.86,47.26,74.91,52.61,7.55.66,14.45,1,20.72,1,13.61,0,24.29-1.58,32.35-4.86,12.14-4.93,18.3-13.73,19.44-26.79.8-9.15-.75-17.07-19.54-25.07-11.72-4.99-30.17-10.02-58.95-15.39-62.51-11.76-100.36-29.16-95.95-79.6,1.15-13.13,5.27-24.48,12.09-33.89,0-.02.02-.03.02-.04,1.99-2.74,4.2-5.31,6.63-7.71.04-.05.09-.1.14-.14,11.09-10.91,26.73-18.32,46.22-21.83,8.58-1.55,17.92-2.34,27.93-2.34M487.54,320.05c-10.81,0-21.1.87-30.59,2.58-22.42,4.04-40.53,12.67-53.85,25.68-.22.21-.44.42-.65.64-2.9,2.89-5.58,6.02-7.97,9.31-.11.15-.21.29-.31.44-8.33,11.65-13.25,25.44-14.61,41-2.55,29.15,7.21,51.95,29.02,67.76,16.99,12.32,40.64,20.66,79.1,27.89,26.25,4.9,44.51,9.62,55.85,14.45,8.21,3.49,10.07,5.93,10.35,6.38.31.49.24,2.22.12,3.58-.67,7.62-3.41,11.47-10.14,14.2-6.12,2.49-15.1,3.75-26.7,3.75-5.76,0-12.29-.32-19.42-.94-59.25-5.19-60.13-19.92-61.24-38.56,0-.02,0-.04,0-.06-.69-10.76-9.02-19.25-19.8-20.18l-29.83-2.61c-.62-.06-1.27-.08-1.92-.08-11.31,0-20.56,8.5-21.53,19.78-2.43,27.73,5.2,52.15,22.05,70.57,21.24,23.22,56.98,37.18,106.24,41.49,7.71.66,15.24,1,22.41,1,7.74,0,15.26-.39,22.34-1.16.49-.04.98-.1,1.47-.17,26.56-3.1,48-11.6,63.73-25.25,16.35-14.19,26.06-33.95,28.1-57.15.82-9.45.51-17.84-.97-25.67-.51-2.7-1.16-5.29-1.93-7.74-6.49-20.95-21.64-34.57-43.27-44.65l21.88,1.91c.65.06,1.31.09,1.96.09,5.42,0,10.6-2.02,14.58-5.68.01-.01.03-.03.04-.04,4.32-4.01,6.88-9.71,7-15.66,0-.09,0-.17,0-.26.12-32.26-10.51-57.59-31.6-75.28-20.19-16.94-49.68-26.9-90.16-30.44-6.76-.59-13.42-.89-19.78-.89h0ZM455.31,407.61c-.03-.42-.05-1.26.09-2.8.4-4.57.87-9.76,13.75-12.62,1.5-.33,3.1-.62,4.75-.84,3.72-.5,7.98-.75,12.65-.75s9.38.23,14.61.69c21.45,1.88,35.07,5.33,42.88,10.87,4.9,3.48,9.74,8.87,11.9,24.63.51,3.99,2.11,7.63,4.49,10.64-7.63-2.43-15.77-4.67-24.36-6.79-4.97-1.23-10.4-2.5-16.15-3.78-.16-.04-.31-.07-.46-.11-.07-.02-.14-.03-.21-.05-24.5-5.46-39.98-9.41-50.19-12.83-9.89-3.31-12.94-5.52-13.76-6.26h0Z"/>
    <path class="cls-1" d="M456.22,139.68c10.03,0,20.1,2.89,28.22,8.5l10.37,7.27,9.54,6.68,199.05,139.45c14.23,9.92,22.06,26.84,20.54,44.19l-13.06,149.28-.09,1.07-10.13,115.73c-1.5,17.23-12.15,32.53-27.9,39.96l-119.43,55.67-14.19,6.61-108.64,50.64c-6.46,3-13.49,4.55-20.58,4.55-1.4,0-2.81-.06-4.21-.18-8.37-.73-16.66-3.72-23.65-8.61l-30.11-21.55-27.66-19.82-15.29-10.94c-10.91-7.5-5.1-9.26-1.24-10.18.95-.24,1.86-.47,2.73-.69,13.53-3.46,17.34-4.66,33.49-12.12.59-.27,1.23-.4,1.87-.4,1.34,0,2.71.54,3.83,1.4l29.69,21.31,26.42,18.96c1.19.84,2.71,1.28,4.19,1.28,1.04,0,2.06-.22,2.93-.66l84.11-39.2,38.62-18.01,119.53-55.71c2.23-1.07,3.82-3.44,4.04-5.94l9.38-107.2.97-11.05,12.94-147.95c.23-2.62-.94-5.11-3.06-6.68l-198.7-139.03-20.16-14.11c-.18-.13-.36-.25-.55-.35-1.08-.61-2.34-.93-3.59-.93-1.03,0-2.06.21-2.98.65l-242.01,112.95c-2.35,1.05-3.94,3.43-4.17,6.05l-11.7,133.7-.72,8.25-7.05,80.58-1.97,22.56-1.84,20.98c-.22,2.5.93,5.12,3.08,6.44l35.2,24.64,24.79,17.35c1.78,1.09,3.54,2.07,5.26,2.94,7.99,4.05,15.31,5.78,21.77,5.78,17.78,0,29.1-13.12,30.33-27.23l14.91-170.48,4.96-56.69,3.11-35.54c.31-3.53,3.22-6.05,6.68-6.05.21,0,.42,0,.64.03l29.22,2.55c3.62.32,6.49,3.46,6.16,7.21l-1.81,20.65-3.94,45.13-17.24,197.05c-2.99,34.08-18.91,56.11-44.78,63.54-6.44,1.85-13.49,2.79-21.12,2.79-2.82,0-5.72-.13-8.69-.39-13.15-1.15-23.52-2.06-50.49-18.33-.43-.27-.87-.53-1.31-.8l-57.38-40.12c-14.23-9.92-22.06-26.84-20.54-44.2l2.93-33.46,1.55-17.77,5.79-66.21,2.14-24.44,10.86-124.19c1.51-17.23,12.17-32.65,27.91-39.96l242.01-112.94c3.95-1.79,8.16-3.01,12.48-3.68,1.3-.19,2.61-.34,3.93-.44,1.27-.09,2.54-.14,3.81-.14M456.22,124.68h0c-1.64,0-3.29.06-4.92.18-1.64.12-3.31.31-5,.56-.04,0-.09.01-.13.02-5.74.89-11.25,2.52-16.37,4.84-.05.02-.1.05-.15.07l-242.01,112.94c-20.52,9.53-34.52,29.55-36.51,52.24l-10.86,124.19-2.14,24.44-5.79,66.21-1.55,17.77-2.93,33.46c-1.99,22.71,8.32,44.86,26.9,57.81l57.36,40.11c.25.17.5.34.75.49l.59.36c.2.12.4.24.59.36.07.05.15.09.22.14,27.94,16.85,40.15,18.96,56.93,20.43,3.39.3,6.75.44,10,.44,8.96,0,17.46-1.13,25.25-3.37,16.29-4.68,29.44-13.94,39.07-27.52,9.24-13.03,14.8-29.56,16.52-49.13l17.24-197.05,3.94-45.13,1.81-20.64c1.05-11.88-7.83-22.4-19.78-23.46l-29.24-2.55c-.64-.06-1.29-.08-1.94-.08-11.34,0-20.63,8.48-21.63,19.73l-3.11,35.55-4.96,56.69-14.91,170.48c-.57,6.52-5.63,13.54-15.39,13.54-4.49,0-9.54-1.4-15-4.16-1.27-.64-2.55-1.35-3.83-2.12l-24.39-17.07-31.54-22.07,1.44-16.39,1.97-22.57,7.05-80.58.72-8.25,11.32-129.35,233.84-109.14,16.45,11.51,195.04,136.47-12.56,143.6-.97,11.04-9,102.8-115.35,53.76-38.62,18.01-79.95,37.26-22.62-16.23-29.54-21.2c-3.73-2.79-8.23-4.32-12.72-4.32-2.84,0-5.58.59-8.13,1.76-15.54,7.18-18.4,8.01-30.95,11.22l-1.05.26-1.55.39c-1.79.43-3.91,1.02-6.1,2.07-5.39,2.6-9.06,7.23-10.08,12.7-2.25,12.06,8.62,19.67,12.39,22.26l15.17,10.86,27.65,19.81,30.12,21.56s.09.06.13.09c9.15,6.4,19.85,10.29,30.95,11.26,1.83.16,3.68.24,5.52.24,9.23,0,18.53-2.06,26.9-5.95l108.65-50.65,14.19-6.61,119.43-55.67s.04-.02.06-.03c20.52-9.68,34.48-29.69,36.44-52.23l10.13-115.72s0-.03,0-.05l.09-1.06,13.06-149.24c1.99-22.7-8.32-44.85-26.9-57.8l-199.02-139.43-9.54-6.68-10.36-7.27s-.06-.04-.09-.06c-10.42-7.2-23.47-11.16-36.74-11.16h0Z"/>
  </g>
</svg>