<?xml version="1.0" encoding="UTF-8"?>
<svg id="Layer_2" xmlns="http://www.w3.org/2000/svg" viewBox="0 0 866.7 922.66">
  <defs>
    <style>
      .cls-1 {
        fill: #fff;
      }
    </style>
  </defs>
  <g id="ps">
    <g>
      <path class="cls-1" d="M385.75,357.23c-1.36,15.14-4.79,27.68-9.86,38-18.27,37.27-57.84,45.49-98.05,41.97-.64-.02-1.27-.04-1.91-.07h-.01c-9.77-.35-19.51-1.16-29.2-2.43,26.9-42.95,73.18-72.96,127.59-77.02,3.84-.29,7.65-.44,11.44-.45Z"/>
      <path class="cls-1" d="M550.69,538.6c-.88,8.83-2.46,17.48-4.69,25.88h0c-2.96,11.16-7.06,21.88-12.2,32.01,0,.01,0,.02,0,.02-5.66,11.2-12.58,21.69-20.57,31.27-7.57-4.24-14.82-9.09-21.68-14.51-3.06-2.45-5.34-1.28-5.72,3.05l-3.51,40.15c-23.74,16.95-52.27,27.82-83.5,30.15-77.62,5.78-146.68-43.15-169.36-114.18l6.1-69.66c11.91,1.04,17.59,1.54,34.38,3.01,95.38,8.34,177.56-28.74,193.32-129.67,3.9,2.05,7.71,4.26,11.43,6.61,12.54,7.93,23.96,17.53,33.94,28.5-2.09,5.41-3.72,11.04-4.87,16.86-.76,3.78-1.31,7.63-1.65,11.55-3.6,41.1,11.09,70.46,48.59,98.96Z"/>
      <path class="cls-1" d="M385.78,356.91c-.01.11-.02.22-.03.32-1.36,15.14-4.79,27.68-9.86,38-28.51,21.55-62.57,36.36-99.96,41.9h-.01c-9.77-.35-19.51-1.16-29.2-2.43-1.54-.19-3.07-.41-4.61-.63l15.06-172.15c7.85.69,24.75.8,42.34,2.34,58.74,5.14,91.17,36.62,86.27,92.65Z"/>
      <path class="cls-1" d="M462.14,242.61c-1.14,11.08-3.11,21.94-5.87,32.51-.56,2.19-1.17,4.37-1.8,6.54-19.48-46.56-65.15-80.18-146.12-87.27-43.85-3.83-85.53-7.48-114.14-7.8-3.52-.31-9.94,1.31-10.22,4.56l-20.42,233.35c-76.25-29.85-132.68-101.31-139.16-188.42C15.4,115.05,106.21,9.64,227.24.62c121.02-9.01,226.44,81.8,235.45,202.83.99,13.28.78,26.37-.55,39.16Z"/>
      <path class="cls-1" d="M630.79,617.82c-1.75,20.03-17.65,33.37-52.83,30.29-16.61-1.62-32.79-5.74-48.01-12.15-.62-13.59.75-26.84,3.84-39.45,0,0,0-.01,0-.02,2.76-11.23,6.88-21.97,12.2-32h0c3.71-7.03,8.02-13.7,12.84-19.96,6.85,4.8,14.36,9.58,22.55,14.42,41.74,27.92,51.15,38.84,49.4,58.87Z"/>
      <path class="cls-1" d="M680.05,769.31c-48.83,3.63-93.67-18.26-121.42-54.41,4.44.54,8.9.92,13.38,1.15,73.09,6.39,130.51-26.5,136.69-97.14l.07-.81c4.11-46.89-14.31-80.79-80.15-119.47-.67-.4-1.35-.79-2.03-1.19-.24-.15-.48-.31-.72-.46,10.59-3.49,21.78-5.75,33.41-6.62,17.21-1.28,33.92.61,49.57,5.18h0c54.37,15.87,95.82,64.09,100.28,123.91,5.74,77.03-52.06,144.12-129.09,149.86Z"/>
      <ellipse class="cls-1" cx="59.4" cy="453.83" rx="59.38" ry="62.16" transform="translate(-33.54 5.66) rotate(-4.26)"/>
      <path class="cls-1" d="M162.17,440.57l-6.81,77.77c-11.12-7.04-18.96-19.41-20.04-33.97-1.47-19.75,9.95-37.35,26.85-43.8Z"/>
      <circle class="cls-1" cx="254.83" cy="747.69" r="75.08"/>
      <path class="cls-1" d="M464.5,922.32c-66.66,4.97-124.73-45.05-129.7-111.72-4.96-66.67,45.06-124.74,111.73-129.7,11.49-.86,22.73-.08,33.48,2.15-.11,2.82.47,4.7,2.98,6.12,16.37,9.72,34.02,16.94,52.37,21.47h.01c23,20.19,38.41,49.05,40.86,81.98,4.96,66.67-45.06,124.74-111.73,129.7Z"/>
      <path class="cls-1" d="M208.4,676.6c-15.64,22.19-40.72,37.47-69.91,39.64-51.8,3.86-96.92-35.01-100.78-86.82-3.86-51.8,35.01-96.92,86.81-100.78,10.26-.76,20.25.15,29.72,2.51l-11.74,134.23c-.36,4.06,1.42,5.58,4.94,5.89l60.96,5.33Z"/>
      <path class="cls-1" d="M223.26,643.19l2.2-25.1c.4,8.62-.37,17.04-2.2,25.1Z"/>
      <circle class="cls-1" cx="486.72" cy="112.03" r="44.17"/>
      <path class="cls-1" d="M708.86,495.54h0c-10.54,2.51-21.42,4.21-32.58,5.04-16.26,1.21-32.21.5-47.65-1.95-.67-.4-1.35-.79-2.03-1.19-.24-.15-.48-.31-.72-.46-43.26-27.79-50.2-40.9-48.94-55.43,1.28-14.62,14.76-31.44,49.67-28.39,27.32,1.45,53.71,10.36,76.3,25.77,4.21,1.73,6.57-.24,6.9-4.03l5.31-60.64c.55-3.44-.82-6.9-3.58-9.04-24.5-11.66-51.1-18.25-78.22-19.39-63.93-5.59-108.35,23.08-124.69,65.4-2.09,5.41-3.72,11.04-4.87,16.86-11.55-13.67-21.36-28.89-29.07-45.36-3.63-7.73-6.79-15.73-9.44-23.97,2.02-26.69-.87-51.97-9.66-74.38.16-3.1.39-6.19.69-9.26,1.09-11.1,3.07-21.96,5.87-32.51,21.87-82.32,93.86-145.62,183.59-152.3,113.29-8.43,211.97,76.57,220.4,189.86,7.61,102.14-60.73,192.39-157.27,215.37Z"/>
    </g>
    <path class="cls-1" d="M617.67,345.13c5.07,0,10.28.23,15.64.7,27.12,1.14,53.72,7.73,78.22,19.39,2.76,2.14,4.13,5.6,3.58,9.04l-5.31,60.64c-.25,2.84-1.64,4.66-4.1,4.66-.82,0-1.75-.2-2.8-.63-22.59-15.41-48.98-24.32-76.3-25.77-2.8-.24-5.47-.36-8-.36-28.99,0-40.49,15.31-41.67,28.75-1.26,14.53,5.68,27.64,48.94,55.43.24.15.48.31.72.46.68.4,1.36.79,2.03,1.19,65.84,38.68,84.26,72.58,80.15,119.47l-.07.81c-5.68,64.88-54.59,97.92-119.16,97.92-5.73,0-11.58-.26-17.53-.78-4.48-.23-8.94-.61-13.38-1.15-7.85-.94-15.61-2.36-23.26-4.26h-.01c-18.35-4.53-36-11.75-52.37-21.47-2.51-1.42-3.09-3.3-2.98-6.12.01-.39.04-.8.08-1.23l2.22-25.35,3.51-40.15c.25-2.83,1.31-4.31,2.87-4.31.83,0,1.79.41,2.85,1.26,6.86,5.42,14.11,10.27,21.68,14.51,5.42,3.05,11.01,5.77,16.73,8.18,15.22,6.41,31.4,10.53,48.01,12.15,3.39.3,6.62.44,9.66.44,28.47,0,41.59-12.63,43.17-30.73,1.75-20.03-7.66-30.95-49.4-58.87-8.19-4.84-15.7-9.62-22.55-14.42-2.83-1.97-5.55-3.95-8.15-5.93-37.5-28.5-52.19-57.86-48.59-98.96.34-3.92.89-7.77,1.65-11.55,1.15-5.82,2.78-11.45,4.87-16.86,14.97-38.78,53.53-66.09,109.05-66.1M617.68,330.13h-.01c-29.33,0-56.22,7.21-77.76,20.83-20.87,13.21-36.53,32.18-45.29,54.86-2.4,6.21-4.28,12.73-5.59,19.36-.86,4.26-1.49,8.7-1.88,13.16-2.06,23.48,1.34,43.81,10.37,62.14,8.79,17.82,23.21,34.2,44.08,50.06,2.76,2.1,5.68,4.22,8.66,6.3,6.89,4.83,14.47,9.68,23.12,14.81,41.95,28.09,43.37,34.39,42.45,44.87-.41,4.66-1.49,17.04-28.23,17.04-2.6,0-5.39-.13-8.27-.38-15.02-1.47-29.67-5.19-43.57-11.04-5.27-2.22-10.38-4.72-15.2-7.43-6.89-3.86-13.51-8.29-19.72-13.19-4.68-3.73-9.2-4.51-12.17-4.51-7.82,0-16.73,5.63-17.81,18l-3.51,40.15-2.22,25.32c-.07.77-.11,1.44-.13,2.08-.41,11.5,6.26,17.16,10.42,19.56,17.58,10.42,36.53,18.19,56.33,23.07.08.02.17.04.25.06,8.13,2.01,16.48,3.53,24.83,4.53,4.6.56,9.36.97,14.12,1.22,6.27.54,12.51.81,18.57.81,36.12,0,67.55-9.61,90.88-27.8,25.19-19.63,40.14-48.61,43.22-83.82l.07-.83c2.48-28.25-2.66-51.2-16.17-72.22-13.78-21.45-36.43-40.97-71.28-61.45-.44-.26-.89-.52-1.34-.78l-.52-.3-.04-.03c-.15-.1-.3-.19-.45-.29-43.23-27.78-42.49-36.35-42.04-41.47.18-2,1.06-5.88,5.03-9.16,4.64-3.85,12.15-5.88,21.69-5.88,2.13,0,4.38.1,6.7.3.17.01.34.03.51.04,24.59,1.3,48.32,9.32,68.64,23.18.86.59,1.79,1.09,2.75,1.48,2.84,1.17,5.7,1.76,8.51,1.76,10.27,0,18.1-7.55,19.04-18.36l5.27-60.22c1.15-8.64-2.38-17.25-9.3-22.61-.85-.66-1.77-1.23-2.75-1.69-26.36-12.54-54.51-19.55-83.7-20.82-5.6-.48-11.18-.72-16.59-.72h0Z"/>
    <path class="cls-1" d="M193.3,186.55c.32,0,.62.01.91.04,28.61.32,70.29,3.97,114.14,7.8,80.97,7.09,126.64,40.71,146.12,87.27.38.9.75,1.81,1.11,2.72,8.79,22.41,11.68,47.69,9.66,74.38-.06.88-.13,1.75-.21,2.63-.44,5.05-1.04,9.96-1.78,14.73-14.34,91.83-83.66,130.8-167.88,130.8-8.34,0-16.84-.38-25.44-1.13-16.79-1.47-22.47-1.97-34.38-3.01l-6.1,69.66-3.99,45.65-2.2,25.1-2.54,29.03c-.27,3.22-1.57,4.99-4.9,4.99-.31,0-.63-.02-.98-.05l-6.44-.56-60.96-5.33c-3.52-.31-5.3-1.83-4.94-5.89l11.74-134.23,1.12-12.81,6.81-77.77,1.4-16.07,20.42-233.35c.26-2.99,5.7-4.6,9.31-4.6M275.92,437.13h.01c.64.03,1.27.05,1.91.07,5.48.48,10.94.74,16.35.74,34.25,0,65.92-10.52,81.7-42.71,5.07-10.32,8.5-22.86,9.86-38,.01-.1.02-.21.03-.32,4.9-56.03-27.53-87.51-86.27-92.65-17.59-1.54-34.49-1.65-42.34-2.34l-15.06,172.15c1.54.22,3.07.44,4.61.63,9.69,1.27,19.43,2.08,29.2,2.43M193.3,171.55c-11.27,0-23.22,6.29-24.26,18.31l-20.42,233.33-1.4,16.08-6.81,77.76-1.12,12.81-11.74,134.23c-.69,7.82,2.25,12.87,4.85,15.73,3.4,3.75,8.01,5.9,13.72,6.4l60.97,5.33,6.45.56c.76.07,1.53.1,2.28.1,10.92,0,18.89-7.52,19.85-18.71l2.54-29,2.2-25.1,3.99-45.65,4.79-54.72c1.36.12,2.77.24,4.25.37l15.18,1.33c9.05.79,18.04,1.19,26.75,1.19,22.77,0,44.2-2.71,63.71-8.06,20.7-5.67,39.26-14.32,55.17-25.71,16.89-12.09,30.84-27.3,41.47-45.2,11.06-18.64,18.58-40.35,22.36-64.52.8-5.18,1.44-10.47,1.9-15.72.09-.99.17-1.94.23-2.88,2.26-29.92-1.33-57.14-10.66-80.93-.44-1.12-.85-2.11-1.26-3.08-11.34-27.12-30.13-49.1-55.82-65.29-27-17.02-61.59-27.48-102.81-31.09l-.57-.05c-43.83-3.83-85.24-7.44-114.27-7.8-.5-.03-1-.04-1.51-.04h0ZM258.31,420.93l12.54-143.3c7.92.32,17.59.72,27.35,1.57,52.22,4.57,76.66,30.26,72.64,76.37v.16c-.02.05-.02.1-.03.15-1.14,12.72-3.96,23.73-8.38,32.73-11.32,23.1-33.64,34.33-68.24,34.33-4.79,0-9.85-.23-15.04-.68-.28-.02-.56-.04-.84-.05-.56-.02-1.11-.03-1.68-.06-.09,0-.17,0-.26,0-6.01-.22-12.05-.62-18.05-1.21h0Z"/>
  </g>
</svg>