<svg width="1280" height="169" viewBox="0 0 1280 169" fill="none" xmlns="http://www.w3.org/2000/svg">
<g clip-path="url(#clip0_37_2)">
<path d="M1280 151.13V168.4H0V151.13C174.71 111.09 391.82 87.1 634.39 87.1C876.96 87.1 1105.29 111.09 1280 151.13Z" fill="#000B20"/>
<path d="M1280 151.13V168.4H0V151.13C174.71 111.09 391.82 87.1 634.39 87.1C876.96 87.1 1105.29 111.09 1280 151.13Z" fill="url(#paint0_linear_37_2)" fill-opacity="0.3"/>
<path d="M0 151.545V151.13C174.71 111.09 391.82 87.1 634.39 87.1C785.444 87.1 930.976 96.403 1061.48 113.092C940.53 99.2257 809.269 91.0646 673.764 89.882C416.431 87.6363 185.847 110.925 0 151.545Z" fill="#009AFC" fill-opacity="0.75"/>
<path d="M261.25 50.27C259.6 41.04 257.88 31.82 258.36 22.38C258.48 20.03 258.67 17.66 259.08 15.34C259.33 13.87 259.88 12.4 260.57 11.08C261.58 9.14998 263.84 8.94998 265.36 10.52C266.45 11.64 266.95 13.04 266.87 14.56C266.65 18.76 266.34 22.96 266.07 27.16C265.99 28.42 265.88 29.68 265.86 30.94C265.85 32.2 266.68 32.68 267.66 31.9C268.25 31.43 268.76 30.7 269.01 29.99C269.46 28.73 269.65 27.38 270.03 26.08C270.24 25.37 270.43 24.48 270.95 24.07C271.57 23.58 272.58 23.21 273.31 23.35C273.97 23.48 274.85 24.33 274.95 24.97C275.18 26.44 275.23 28.01 274.94 29.46C274.45 31.92 273.43 34.29 271.65 36.07C268.61 39.09 267.9 42.66 268.66 46.66C269 48.44 269.46 50.2 270 51.93C270.53 53.62 271.82 54.01 273.24 52.96C275.34 51.43 276.61 49.35 277.17 46.81C277.49 45.37 277.76 43.92 278.19 42.51C278.68 40.91 279.88 40.01 281.19 40.08C282.28 40.13 283.18 41.04 283.48 42.75C284.39 48 283.36 52.76 279.5 56.63C278.41 57.73 277.13 58.66 275.86 59.55C273.92 60.92 273.07 62.66 273.01 65.11C272.92 68.59 272.38 72.05 272 75.52C271.92 76.23 271.66 76.92 271.57 77.62C271.41 78.87 272.1 79.55 273.34 79.45C275.81 79.26 277.47 77.94 278.17 75.48C278.52 74.27 278.66 73 278.95 71.77C279.57 69.14 280.63 66.85 283.34 65.67C286.6 64.25 289.89 66.38 289.76 69.95C289.65 73.01 288.35 75.66 286.75 78.17C283.09 83.91 277.56 86.71 271.07 87.79C267.62 88.36 264.09 88.46 260.64 89.03C256.01 89.79 252.97 93.23 252.69 97.74C252.62 98.91 252.58 100.12 252.75 101.28C253.31 105.08 253.93 108.86 254.6 112.64C254.9 114.32 254.52 115.37 252.95 116.02C250.18 117.17 247.47 117.43 245.07 115.11C244.89 114.93 244.65 114.82 244.49 114.63C241.41 111.01 237.32 111.04 233.09 111.39C230.49 111.6 227.88 111.69 225.27 111.71C224.51 111.71 223.71 111.35 222.99 111.04C222.02 110.62 221.51 109.81 221.49 108.74C221.46 107.64 221.8 106.58 222.87 106.27C224.08 105.93 225.42 105.81 226.68 105.89C227.89 105.97 229.18 106.29 229.92 105.15C230.7 103.95 229.75 102.87 229.07 101.96C227.92 100.41 226.18 99.7 224.34 99.61C222.29 99.51 220.19 99.59 218.17 99.91C214.87 100.43 211.59 100.43 208.37 99.69C206.9 99.35 205.43 98.6 204.2 97.7C201.98 96.07 202.16 93.5 204.42 91.9C205.94 90.83 207.64 90.39 209.46 90.79C211.64 91.26 213.79 91.86 215.97 92.37C217.69 92.77 219.42 93.12 221.15 93.45C221.59 93.53 222.16 93.58 222.51 93.38C223.27 92.93 224.21 92.43 224.52 91.72C224.7 91.3 223.95 90.13 223.35 89.81C222.01 89.09 220.53 88.47 219.04 88.22C215.42 87.63 211.77 87.26 208.13 86.84C205.11 86.5 202.9 84.92 201.54 82.29C199 77.36 195.28 73.78 190.22 71.52C188.96 70.96 187.78 70.16 186.67 69.33C184.89 68.01 184.35 66 185.07 63.91C185.67 62.15 187.11 61.3 189.31 61.12C194.11 60.72 197.55 63.22 200.83 66.24C204.46 69.58 206.74 73.75 208.57 78.26C209.09 79.55 210.01 80.71 210.9 81.81C211.67 82.75 212.8 82.96 213.88 82.33C214.97 81.7 214.7 80.63 214.36 79.72C213.81 78.27 213.28 76.77 212.47 75.46C210.53 72.32 209.36 68.93 208.58 65.36C207.7 61.3 205.81 59.81 201.68 59.19C198.28 58.68 194.93 57.83 191.58 57.02C189.46 56.51 188.89 53.91 189.67 52.38C190.5 50.77 192.59 50.26 194.42 51.23C194.61 51.33 194.81 51.42 194.96 51.55C197.93 54.13 201.58 54.76 205.3 55.13C205.81 55.18 206.63 55 206.81 54.65C207.09 54.15 207.17 53.26 206.89 52.8C206.46 52.09 205.73 51.48 204.99 51.06C200.87 48.74 197.01 46.13 194.39 42.06C193.05 39.99 191.96 37.81 191.65 35.32C191.4 33.3 192.16 31.95 193.88 31.24C195.52 30.57 196.94 30.97 198.14 32.7C199.51 34.67 200.7 36.76 202.04 38.75C203.17 40.43 204.37 42.05 205.58 43.68C206.87 45.42 208.56 46.67 210.54 47.49C215.26 49.45 217.02 53.29 217.15 58.06C217.22 60.92 216.92 63.79 216.96 66.65C216.97 67.41 217.44 68.37 218.01 68.88C218.76 69.55 219.63 68.92 220.26 68.35C223.68 65.2 225.3 61.31 224.75 56.67C224.26 52.47 222.36 49.23 218.61 46.89C215.22 44.78 212.18 42.13 209.02 39.66C208.3 39.1 207.71 38.34 207.14 37.62C206.08 36.28 205.55 34.81 206.42 33.17C207.21 31.69 209.31 30.75 211.11 31.08C211.8 31.21 212.49 31.47 213.11 31.8C216.93 33.85 219.57 37.01 221.47 40.85C221.97 41.87 222.53 42.87 223.12 43.84C223.57 44.57 224.24 45.04 225.14 44.77C226.06 44.49 226.31 43.71 226.27 42.86C226.15 40.41 225.14 38.28 223.64 36.41C222.64 35.17 221.46 34.06 220.31 32.95C216.66 29.42 213.28 25.66 210.73 21.24C210.02 20 209.49 18.66 208.96 17.33C208.52 16.23 208.36 15.04 209.36 14.16C210.37 13.27 211.62 13.02 212.9 13.58C213.39 13.8 213.93 14.07 214.27 14.46C219.21 20.21 224.35 25.82 228.21 32.41C229.13 33.97 229.93 35.6 230.9 37.13C231.83 38.59 232.96 38.63 233.63 37.08C234.14 35.91 234.3 34.48 234.21 33.19C234.01 30.32 233.07 27.67 231.19 25.41C227.96 21.51 225.67 17.12 224.73 12.13C224.27 9.68998 224.05 7.18998 223.95 4.70998C223.91 3.67998 224.24 2.49998 224.76 1.59998C225.89 -0.330023 228.15 -0.300023 229.44 1.52998C231.7 4.73998 233.09 8.32998 234.18 12.09C235.61 17.02 236.65 22.1 239.02 26.72C239.5 27.66 239.94 28.8 241.24 28.62C242.54 28.44 242.81 27.27 243.05 26.16C243.65 23.31 242.92 20.61 241.57 18.23C238.78 13.33 239.3 8.25998 240.25 3.09998C240.33 2.64998 240.5 2.20998 240.69 1.78998C241.19 0.659977 242.04 -0.0800234 243.32 -0.0300234C244.59 0.0199766 245.06 1.04998 245.43 2.04998C246.34 4.49998 246.06 7.03998 245.97 9.56998C245.91 11.09 245.76 12.6 245.74 14.12C245.73 14.91 245.81 15.74 246.05 16.49C246.21 16.99 246.71 17.38 247.06 17.82C247.4 17.39 247.84 17.01 248.04 16.53C248.34 15.8 248.44 14.98 248.67 14.22C248.83 13.7 249.01 13.17 249.26 12.69C249.95 11.35 251.25 10.55 252.27 10.8C253.19 11.03 254.19 12.37 254.04 13.74C253.86 15.34 253.38 16.92 252.92 18.48C252.21 20.85 251.21 23.15 250.7 25.56C250.11 28.35 250.72 31.09 252.03 33.65C254.13 37.75 255.67 42.02 255.43 46.72C255.35 48.22 255.14 49.77 254.64 51.18C253.32 54.93 252.97 58.72 253.42 62.64C253.81 66.12 253.39 69.54 252.54 72.92C252.06 74.8 251.6 76.68 251.16 78.57C250.97 79.35 250.77 80.13 250.7 80.92C250.6 82.03 250.22 83.27 251.38 84.06C252.58 84.87 253.8 84.31 254.84 83.71C260.2 80.61 263.09 75.81 264.18 69.81C264.79 66.44 264.02 63.18 263.41 59.9C262.8 56.67 261.83 53.4 261.27 50.25L261.25 50.27ZM241.46 91.35C240.97 89.17 240.47 87.13 240.06 85.06C238.66 77.89 233.49 74.04 227.57 70.9C225.99 70.06 225.08 70.57 224.4 72.21C223.59 74.16 223.85 76.09 224.52 78.01C225.53 80.9 227.5 83.07 229.78 84.99C231.75 86.65 233.43 88.58 234.3 90.98C235.63 94.66 236.73 98.43 237.85 102.18C238.37 103.91 239.25 104.85 240.52 104.69C241.6 104.56 242.32 103.5 242.22 101.7C242.03 98.21 241.71 94.72 241.45 91.34L241.46 91.35ZM233.88 64.96C234.61 66.18 235.26 67.72 236.31 68.9C237.44 70.16 238.92 71.14 240.32 72.14C241.1 72.7 241.99 73.12 242.89 73.47C243.94 73.89 244.88 73.55 245.26 72.47C245.58 71.54 245.78 70.51 245.79 69.53C245.82 66.09 244.46 63.17 242.34 60.52C241.03 58.88 239.69 57.21 238.72 55.37C236.28 50.7 237.22 46.33 241.2 42.96C242.5 41.85 243.19 40.47 243.23 38.78C243.25 37.77 243.21 36.76 243.12 35.75C243.05 34.89 242.86 34.02 241.78 33.88C240.71 33.74 240.34 34.56 239.98 35.34C239.89 35.53 239.82 35.73 239.77 35.94C238.99 39.03 237.35 41.65 235.48 44.18C234.95 44.89 234.68 45.93 234.63 46.84C234.46 50.08 234.46 53.32 234.34 56.56C234.24 59.25 234.05 61.93 233.88 64.98V64.96ZM249.95 45.1C249.52 44.52 249.14 43.89 248.62 43.41C248.5 43.29 247.83 43.58 247.55 43.84C246.27 45 245.57 48.28 246.3 49.85C246.51 50.3 246.98 50.85 247.39 50.9C247.79 50.95 248.41 50.53 248.69 50.15C249.74 48.69 250.01 47.01 249.94 45.1H249.95Z" fill="#00409D"/>
<path d="M242.013 90.397C242.161 91.0383 242.311 91.6877 242.46 92.35L242.45 92.34C242.523 93.2934 242.601 94.2555 242.68 95.2239C242.88 97.6888 243.084 100.194 243.22 102.7C243.32 104.5 242.6 105.56 241.52 105.69C240.63 105.802 239.932 105.374 239.415 104.513C239.744 104.679 240.112 104.741 240.52 104.69C241.6 104.56 242.32 103.5 242.22 101.7C242.084 99.1944 241.88 96.6888 241.68 94.2239C241.601 93.2555 241.523 92.2934 241.45 91.34L241.46 91.35C241.311 90.6877 241.161 90.0383 241.013 89.397C240.674 87.9276 240.345 86.5011 240.06 85.06C239.397 81.6667 237.89 79.017 235.859 76.8343C238.394 79.1989 240.293 82.131 241.06 86.06C241.345 87.5011 241.674 88.9276 242.013 90.397Z" fill="#009AFC"/>
<path fill-rule="evenodd" clip-rule="evenodd" d="M205.42 92.9C203.58 94.2029 203.119 96.1489 204.209 97.7069L204.2 97.7C201.98 96.07 202.16 93.5 204.42 91.9C205.94 90.83 207.64 90.39 209.46 90.79C210.735 91.0649 212 91.3843 213.267 91.7042C214.165 91.9311 215.065 92.1584 215.97 92.37C217.69 92.77 219.42 93.12 221.15 93.45C221.59 93.53 222.16 93.58 222.51 93.38C222.576 93.3407 222.644 93.3009 222.713 93.2608C223.429 92.841 224.237 92.3679 224.52 91.72C224.608 91.5146 224.474 91.1299 224.243 90.753C224.279 90.7719 224.314 90.7909 224.35 90.81C224.95 91.13 225.7 92.3 225.52 92.72C225.237 93.3679 224.429 93.841 223.713 94.2608C223.644 94.3009 223.576 94.3407 223.51 94.38C223.16 94.58 222.59 94.53 222.15 94.45C220.42 94.12 218.69 93.77 216.97 93.37C216.065 93.1584 215.166 92.9312 214.267 92.7043C213.001 92.3844 211.735 92.065 210.46 91.79C208.64 91.39 206.94 91.83 205.42 92.9Z" fill="#009AFC"/>
<path fill-rule="evenodd" clip-rule="evenodd" d="M208.58 65.36C208.248 63.8278 207.772 62.6617 207.086 61.7702C208.339 62.7314 209.106 64.1728 209.58 66.36C210.36 69.93 211.53 73.32 213.47 76.46C214.199 77.6397 214.702 78.9734 215.196 80.286C215.251 80.431 215.305 80.5757 215.36 80.72C215.7 81.63 215.97 82.7 214.88 83.33C213.8 83.96 212.67 83.75 211.9 82.81C211.788 82.6714 211.675 82.5318 211.563 82.3912C212.251 82.8024 213.079 82.7969 213.88 82.33C214.97 81.7 214.7 80.63 214.36 79.72C214.305 79.5757 214.251 79.431 214.196 79.286C213.702 77.9734 213.199 76.6397 212.47 75.46C210.53 72.32 209.36 68.93 208.58 65.36Z" fill="#009AFC"/>
<path fill-rule="evenodd" clip-rule="evenodd" d="M202.54 83.29C202.87 83.9286 203.251 84.5054 203.681 85.0175C202.821 84.2999 202.107 83.3861 201.54 82.29C200.47 80.2126 199.19 78.3748 197.688 76.7746C199.629 78.5951 201.239 80.7655 202.54 83.29Z" fill="#009AFC"/>
<path fill-rule="evenodd" clip-rule="evenodd" d="M186.07 64.91C185.519 66.5089 185.706 68.061 186.621 69.2932C184.88 67.9728 184.357 65.9807 185.07 63.91C185.67 62.15 187.11 61.3 189.31 61.12C194.11 60.72 197.55 63.22 200.83 66.24C201.253 66.6292 201.658 67.0298 202.046 67.4408C201.974 67.3735 201.902 67.3066 201.83 67.24C198.55 64.22 195.11 61.72 190.31 62.12C188.11 62.3 186.67 63.15 186.07 64.91Z" fill="#009AFC"/>
<path fill-rule="evenodd" clip-rule="evenodd" d="M229.07 101.96C229.048 101.93 229.025 101.901 229.003 101.871C229.396 102.174 229.755 102.536 230.07 102.96C230.119 103.025 230.169 103.092 230.22 103.159C230.878 104.026 231.644 105.036 230.92 106.15C230.285 107.128 229.244 107.031 228.197 106.934C228.024 106.917 227.851 106.901 227.68 106.89C226.42 106.81 225.08 106.93 223.87 107.27C222.8 107.58 222.46 108.64 222.49 109.74C222.498 110.186 222.592 110.587 222.768 110.933C221.942 110.49 221.508 109.725 221.49 108.74C221.46 107.64 221.8 106.58 222.87 106.27C224.08 105.93 225.42 105.81 226.68 105.89C226.851 105.901 227.024 105.917 227.197 105.934C228.244 106.031 229.285 106.128 229.92 105.15C230.644 104.036 229.878 103.026 229.22 102.159C229.169 102.092 229.119 102.025 229.07 101.96Z" fill="#009AFC"/>
<path fill-rule="evenodd" clip-rule="evenodd" d="M190.67 53.38C190.184 54.3338 190.222 55.7035 190.834 56.7234C189.335 55.8543 188.991 53.7118 189.67 52.38C190.5 50.77 192.59 50.26 194.42 51.23C194.456 51.2487 194.492 51.2671 194.527 51.2855C194.683 51.3651 194.838 51.4443 194.96 51.55C197.93 54.13 201.58 54.76 205.3 55.13C205.81 55.18 206.63 55 206.81 54.65C207.09 54.15 207.17 53.26 206.89 52.8C206.837 52.7119 206.779 52.6254 206.717 52.5406C207.184 52.8982 207.603 53.3269 207.89 53.8C208.17 54.26 208.09 55.15 207.81 55.65C207.63 56 206.81 56.18 206.3 56.13C202.58 55.76 198.93 55.13 195.96 52.55C195.838 52.4443 195.683 52.3651 195.527 52.2855C195.492 52.2671 195.456 52.2487 195.42 52.23C193.59 51.26 191.5 51.77 190.67 53.38Z" fill="#009AFC"/>
<path fill-rule="evenodd" clip-rule="evenodd" d="M207.178 45.4195C208.166 46.2894 209.296 46.9746 210.54 47.49C212.252 48.2009 213.575 49.1593 214.571 50.3196C213.735 49.6 212.732 48.985 211.54 48.49C209.853 47.7912 208.376 46.78 207.178 45.4195Z" fill="#009AFC"/>
<path fill-rule="evenodd" clip-rule="evenodd" d="M195.39 43.06C196.059 44.0998 196.81 45.0443 197.624 45.913C196.418 44.7791 195.325 43.5125 194.39 42.06C193.05 39.99 191.96 37.81 191.65 35.32C191.4 33.3 192.16 31.95 193.88 31.24C195.449 30.5991 196.816 30.9373 197.982 32.4821C197.055 31.8256 196.021 31.774 194.88 32.24C193.16 32.95 192.4 34.3 192.65 36.32C192.96 38.81 194.05 40.99 195.39 43.06Z" fill="#009AFC"/>
<path fill-rule="evenodd" clip-rule="evenodd" d="M224.12 44.84L224.048 44.722C224.365 44.8622 224.728 44.8935 225.14 44.77C226.06 44.49 226.31 43.71 226.27 42.86C226.15 40.41 225.14 38.28 223.64 36.41C223.219 35.8878 222.766 35.3888 222.297 34.903C223.119 35.7039 223.925 36.5237 224.64 37.41C226.14 39.28 227.15 41.41 227.27 43.86C227.31 44.71 227.06 45.49 226.14 45.77C225.24 46.04 224.57 45.57 224.12 44.84Z" fill="#009AFC"/>
<path fill-rule="evenodd" clip-rule="evenodd" d="M218.412 69.1192C219.056 69.3319 219.74 68.8205 220.26 68.35C223.68 65.2 225.3 61.31 224.75 56.67C224.417 53.8156 223.433 51.4046 221.659 49.4182C224.07 51.5777 225.359 54.3181 225.75 57.67C226.3 62.31 224.68 66.2 221.26 69.35C220.63 69.92 219.76 70.55 219.01 69.88C218.788 69.6817 218.582 69.4153 218.412 69.1192Z" fill="#009AFC"/>
<path fill-rule="evenodd" clip-rule="evenodd" d="M211.73 22.24C213.887 25.9781 216.637 29.2441 219.642 32.2982C216.249 28.9566 213.124 25.3891 210.73 21.24C210.033 20.0221 209.509 18.7078 208.988 17.4012L208.96 17.33C208.52 16.23 208.36 15.04 209.36 14.16C210.37 13.27 211.62 13.02 212.9 13.58C213.39 13.8 213.93 14.07 214.27 14.46C214.434 14.6509 214.598 14.8417 214.763 15.0325C214.492 14.8551 214.187 14.7089 213.9 14.58C212.62 14.02 211.37 14.27 210.36 15.16C209.36 16.04 209.52 17.23 209.96 18.33L209.988 18.4012C210.509 19.7078 211.033 21.0221 211.73 22.24Z" fill="#009AFC"/>
<path fill-rule="evenodd" clip-rule="evenodd" d="M208.918 39.5789C208.271 39.0503 207.729 38.3643 207.206 37.7039L207.14 37.62C206.08 36.28 205.55 34.81 206.42 33.17C207.21 31.69 209.31 30.75 211.11 31.08C211.8 31.21 212.49 31.47 213.11 31.8C214.934 32.779 216.489 34.0111 217.823 35.4496C216.727 34.4339 215.496 33.5439 214.11 32.8C213.49 32.47 212.8 32.21 212.11 32.08C210.31 31.75 208.21 32.69 207.42 34.17C206.55 35.81 207.08 37.28 208.14 38.62L208.206 38.7039C208.437 38.9958 208.672 39.2928 208.918 39.5789Z" fill="#009AFC"/>
<path fill-rule="evenodd" clip-rule="evenodd" d="M229.44 1.52998L229.486 1.59536C228.223 0.779053 226.645 1.08829 225.76 2.59998C225.24 3.49998 224.91 4.67998 224.95 5.70998C225.05 8.18998 225.27 10.69 225.73 13.13C226.67 18.12 228.96 22.51 232.19 26.41C234.07 28.67 235.01 31.32 235.21 34.19C235.3 35.48 235.14 36.91 234.63 38.08C233.96 39.63 232.83 39.59 231.9 38.13L231.894 38.1212C232.547 38.4326 233.188 38.1017 233.63 37.08C234.14 35.91 234.3 34.48 234.21 33.19C234.01 30.32 233.07 27.67 231.19 25.41C227.96 21.51 225.67 17.12 224.73 12.13C224.27 9.68997 224.05 7.18998 223.95 4.70998C223.91 3.67998 224.24 2.49998 224.76 1.59998C225.89 -0.330024 228.15 -0.300024 229.44 1.52998Z" fill="#009AFC"/>
<path fill-rule="evenodd" clip-rule="evenodd" d="M242.24 29.62C241.314 29.7482 240.824 29.2066 240.446 28.5446C240.67 28.6308 240.931 28.6628 241.24 28.62C242.54 28.44 242.81 27.27 243.05 26.16C243.65 23.31 242.92 20.61 241.57 18.23C238.78 13.33 239.3 8.25998 240.25 3.09998C240.33 2.64998 240.5 2.20998 240.69 1.78998C241.19 0.659977 242.04 -0.0800234 243.32 -0.0300234C244.188 0.00416992 244.683 0.496679 245.027 1.12449C244.823 1.0353 244.589 0.980585 244.32 0.969977C243.04 0.919977 242.19 1.65998 241.69 2.78998C241.5 3.20998 241.33 3.64998 241.25 4.09998C240.3 9.25998 239.78 14.33 242.57 19.23C243.92 21.61 244.65 24.31 244.05 27.16C243.81 28.27 243.54 29.44 242.24 29.62Z" fill="#009AFC"/>
<path fill-rule="evenodd" clip-rule="evenodd" d="M252.27 10.8C252.756 10.9215 253.264 11.3529 253.614 11.9348C253.5 11.8741 253.384 11.8285 253.27 11.8C252.25 11.55 250.95 12.35 250.26 13.69C250.01 14.17 249.83 14.7 249.67 15.22C249.579 15.5198 249.509 15.8289 249.438 16.1382C249.33 16.6129 249.222 17.088 249.04 17.53C248.901 17.8635 248.646 18.1487 248.39 18.436C248.277 18.5622 248.164 18.6887 248.06 18.82C247.952 18.6846 247.83 18.554 247.709 18.4235C247.496 18.1951 247.283 17.9669 247.146 17.714C247.225 17.62 247.307 17.5279 247.389 17.436C247.646 17.1488 247.901 16.8635 248.04 16.53C248.222 16.088 248.33 15.613 248.438 15.1383C248.509 14.829 248.579 14.5198 248.67 14.22C248.83 13.7 249.01 13.17 249.26 12.69C249.95 11.35 251.25 10.55 252.27 10.8Z" fill="#009AFC"/>
<path fill-rule="evenodd" clip-rule="evenodd" d="M243.12 35.75C243.097 35.4644 243.06 35.1777 242.982 34.917C243.885 35.1347 244.055 35.9467 244.12 36.75C244.21 37.76 244.25 38.77 244.23 39.78C244.19 41.47 243.5 42.85 242.2 43.96C238.22 47.33 237.28 51.7 239.72 56.37C240.679 58.1883 241.998 59.8406 243.294 61.4621L243.34 61.52C245.46 64.17 246.82 67.09 246.79 70.53C246.78 71.51 246.58 72.54 246.26 73.47C245.88 74.55 244.94 74.89 243.89 74.47C242.99 74.12 242.1 73.7 241.32 73.14C241.142 73.0132 240.964 72.8867 240.785 72.76C239.55 71.887 238.297 71.0002 237.31 69.9C237.284 69.8704 237.258 69.8407 237.232 69.8107C238.027 70.5166 238.915 71.1453 239.791 71.7646C239.968 71.8897 240.145 72.0149 240.32 72.14C241.1 72.7 241.99 73.12 242.89 73.47C243.94 73.89 244.88 73.55 245.26 72.47C245.58 71.54 245.78 70.51 245.79 69.53C245.82 66.09 244.46 63.17 242.34 60.52L242.294 60.4621C240.998 58.8406 239.679 57.1883 238.72 55.37C236.28 50.7 237.22 46.33 241.2 42.96C242.5 41.85 243.19 40.47 243.23 38.78C243.25 37.77 243.21 36.76 243.12 35.75Z" fill="#009AFC"/>
<path fill-rule="evenodd" clip-rule="evenodd" d="M249.625 44.6455C249.564 44.56 249.504 44.4745 249.444 44.3896C249.527 44.3757 249.59 44.3802 249.62 44.41C250.006 44.7664 250.315 45.2054 250.624 45.6453C250.732 45.7979 250.839 45.9506 250.95 46.1C251.02 48.01 250.74 49.69 249.69 51.15C249.41 51.53 248.79 51.95 248.39 51.9C247.991 51.8513 247.535 51.3289 247.317 50.8862C247.33 50.8894 247.342 50.8921 247.355 50.8945C247.366 50.8967 247.378 50.8985 247.39 50.9C247.79 50.95 248.41 50.53 248.69 50.15C249.74 48.69 250.02 47.01 249.95 45.1C249.839 44.9507 249.732 44.798 249.625 44.6455Z" fill="#009AFC"/>
<path fill-rule="evenodd" clip-rule="evenodd" d="M262.096 50.4097C262.147 50.6965 262.199 50.9832 262.25 51.27L262.27 51.25C262.562 52.8912 262.965 54.5649 263.37 56.2486C263.743 57.7965 264.118 59.3528 264.41 60.9C264.474 61.2433 264.539 61.5865 264.605 61.9296C265.166 64.8637 265.726 67.7928 265.18 70.81C264.09 76.81 261.2 81.61 255.84 84.71C254.8 85.31 253.58 85.87 252.38 85.06C252.033 84.8238 251.824 84.5473 251.704 84.2461C252.798 84.769 253.893 84.2561 254.84 83.71C260.2 80.61 263.09 75.81 264.18 69.81C264.726 66.7928 264.166 63.8637 263.605 60.9296C263.539 60.5865 263.474 60.2433 263.41 59.9C263.118 58.3531 262.743 56.7966 262.37 55.249C261.965 53.5653 261.562 51.8912 261.27 50.25L261.25 50.27L261.096 49.4097C259.495 40.4669 257.895 31.5267 258.36 22.38C258.48 20.03 258.67 17.66 259.08 15.34C259.33 13.87 259.88 12.4 260.57 11.08C261.58 9.14998 263.84 8.94998 265.36 10.52C265.528 10.6927 265.682 10.8722 265.822 11.0577C264.348 10.0168 262.466 10.3669 261.57 12.08C260.88 13.4 260.33 14.87 260.08 16.34C259.67 18.66 259.48 21.03 259.36 23.38C258.895 32.5267 260.495 41.4669 262.096 50.4097Z" fill="#009AFC"/>
<path fill-rule="evenodd" clip-rule="evenodd" d="M273.31 23.35C273.83 23.4525 274.488 24.0026 274.791 24.5445C274.627 24.4488 274.463 24.3801 274.31 24.35C273.58 24.21 272.57 24.58 271.95 25.07C271.499 25.4258 271.296 26.1433 271.113 26.7908C271.085 26.8893 271.058 26.9862 271.03 27.08C270.871 27.6233 270.746 28.1753 270.62 28.7258C270.446 29.4926 270.272 30.2566 270.01 30.99C269.76 31.7 269.25 32.43 268.66 32.9C267.771 33.6075 267.005 33.2783 266.878 32.2705C267.116 32.241 267.382 32.1211 267.66 31.9C268.25 31.43 268.76 30.7 269.01 29.99C269.272 29.2566 269.446 28.4926 269.62 27.7258C269.746 27.1753 269.871 26.6233 270.03 26.08C270.058 25.9862 270.085 25.8893 270.113 25.7908C270.296 25.1433 270.499 24.4258 270.95 24.07C271.57 23.58 272.58 23.21 273.31 23.35Z" fill="#009AFC"/>
<path d="M433.86 110.07C430.71 110 427.88 110.07 425.06 109.86C421.04 109.56 417.91 107.44 415.23 104.58C414.43 103.72 413.69 102.79 412.99 101.85C411.78 100.21 410.25 98.93 408.54 97.86C406.55 96.61 404.49 95.43 402.58 94.06C399.09 91.56 396.93 88.15 396.2 83.89C396.12 83.45 396.09 82.99 396.08 82.54C396.06 81.57 396.43 81.01 397.19 80.8C398 80.57 398.92 80.92 399.32 81.68C399.58 82.18 399.78 82.74 399.91 83.29C400.94 87.59 403.31 90.93 406.97 93.38C407.26 93.57 407.57 93.75 407.88 93.9C408.43 94.17 409.02 94.4 409.57 93.95C410.17 93.46 410.36 92.77 410.18 92.05C410.02 91.4 409.77 90.75 409.45 90.17C407.5 86.68 405.3 83.37 402.3 80.68C401.66 80.1 400.86 79.69 400.11 79.24C399.11 78.63 398.06 78.08 397.07 77.46C396.17 76.89 395.75 75.97 395.49 74.99C395.27 74.18 395.58 73.43 396.21 73.11C397.03 72.7 398.04 72.87 398.51 73.59C398.82 74.06 398.94 74.66 399.25 75.14C399.57 75.63 399.95 76.12 400.41 76.45C400.69 76.65 401.28 76.7 401.56 76.52C401.78 76.38 401.88 75.78 401.8 75.45C401.55 74.46 401.24 73.47 400.85 72.53C400.5 71.68 399.94 70.91 399.59 70.06C399.27 69.27 398.93 68.41 398.9 67.58C398.83 65.95 400.37 65.08 401.67 66.05C402.46 66.64 403.14 67.5 403.61 68.38C405.19 71.34 406.19 74.51 406.68 77.83C406.89 79.22 407.42 80.48 408.23 81.62C409.11 82.87 409.98 84.13 410.91 85.34C412.41 87.31 413.33 89.5 413.87 91.92C414.39 94.26 415.03 96.61 416.39 98.63C417.02 99.57 417.84 100.4 418.65 101.21C419.1 101.66 419.74 101.88 420.38 101.6C421.07 101.3 421.29 100.64 421.22 99.97C421.13 99.11 421.02 98.21 420.71 97.41C419.61 94.65 418.32 91.95 417.27 89.17C415.59 84.72 414.03 80.23 412.44 75.75C411.18 72.19 409.72 68.76 407.23 65.84C405.8 64.17 404.81 62.23 404.21 60.1C404.08 59.64 404 59.17 403.97 58.7C403.88 57.51 404.57 56.54 405.6 56.33C406.86 56.07 407.87 56.6 408.26 57.83C408.57 58.81 408.75 59.82 408.99 60.82C409.37 62.38 410.05 63.77 411.18 64.95C413.13 67 414.42 69.45 415.28 72.13C415.43 72.6 415.62 73.08 415.88 73.5C416.25 74.11 416.81 74.16 417.2 73.57C417.47 73.16 417.64 72.61 417.67 72.12C417.73 70.95 417.67 69.77 417.65 68.59C417.6 66.13 416.78 63.94 415.3 61.98C412.12 57.78 411.05 52.99 411.36 47.83C411.48 45.88 413.26 44.93 414.77 45.93C415.46 46.39 415.71 47.09 415.73 47.87C415.79 49.8 415.74 51.73 415.88 53.66C415.97 54.95 416.3 56.22 416.53 57.5C416.55 57.6 416.57 57.72 416.63 57.78C416.95 58.1 417.26 58.6 417.63 58.66C417.87 58.7 418.34 58.16 418.51 57.79C419.58 55.34 419.73 52.75 419.45 50.13C419.42 49.81 419.3 49.5 419.25 49.17C419.08 48.19 419.59 47.36 420.52 47.06C421.43 46.78 422.49 47.17 422.7 48.13C422.95 49.23 423.06 50.42 422.93 51.53C421.9 60.64 420.77 69.73 419.75 78.84C419.41 81.9 419.67 84.95 420.6 87.91C420.77 88.46 421.1 89.02 421.49 89.45C422.04 90.06 422.75 89.94 423.17 89.23C423.37 88.89 423.51 88.51 423.63 88.13C424.81 84.38 425.97 80.63 427.16 76.88C427.74 75.06 427.47 73.2 427.42 71.36C427.36 69.18 427.18 67 427.2 64.83C427.22 63.13 427.51 61.44 427.62 59.74C427.77 57.44 427.44 55.19 426.83 52.97C426.71 52.54 426.6 52.09 426.59 51.64C426.58 51.12 426.59 50.58 426.74 50.09C427.01 49.21 427.84 48.59 428.54 48.61C429.24 48.63 429.94 49.13 430.07 50.13C430.29 51.81 430.28 53.51 430.36 55.2C430.38 55.62 430.32 56.06 430.39 56.47C430.55 57.55 431.44 57.93 432.32 57.28C433.43 56.46 434.07 55.3 434.55 54.04C435.15 52.46 435.2 50.81 435.19 49.15C435.19 47.83 435.06 46.49 435.75 45.26C436.37 44.16 437.37 43.65 438.49 43.88C439.58 44.11 440.2 44.82 440.19 46.2C440.17 47.92 440.03 49.65 439.87 51.37C439.6 54.3 439.94 57.18 440.42 60.05C440.63 61.29 440.84 62.52 441.13 63.74C441.24 64.18 441.54 64.8 441.87 64.89C442.22 64.98 442.81 64.64 443.13 64.32C444.13 63.32 444.64 62.02 444.91 60.65C445.45 57.93 445.74 55.21 444.7 52.5C444.48 51.92 444.43 51.21 444.52 50.6C444.65 49.66 445.34 49.15 446.25 48.95C447.15 48.76 447.87 49.08 448.31 49.84C448.66 50.44 448.98 51.1 449.09 51.77C449.79 56.16 449.53 60.43 447.2 64.36C446.44 65.65 445.44 66.8 444.61 68.04C444.24 68.6 443.92 69.21 443.71 69.84C443.45 70.62 443.82 71.11 444.63 71.05C445.26 71 445.93 70.84 446.49 70.56C450.04 68.81 452.21 65.97 453.1 62.11C453.25 61.46 453.49 60.82 453.81 60.24C454.11 59.69 454.66 59.49 455.3 59.65C455.94 59.81 456.57 60.06 456.63 60.79C456.69 61.57 456.68 62.39 456.51 63.16C455.75 66.79 453.59 69.52 450.61 71.56C449.03 72.64 447.28 73.5 445.53 74.27C441.38 76.11 438.23 78.9 436.62 83.22C435.49 86.26 435.4 89.39 435.96 92.55C436.07 93.19 436.36 93.78 437.09 93.89C437.79 94 438.24 93.56 438.52 93C438.87 92.31 439.16 91.59 439.41 90.86C440.6 87.44 442.31 84.4 445.49 82.45C446.7 81.71 448.02 81.14 449.3 80.5C452.42 78.94 454.29 76.42 455.13 73.07C455.43 71.86 455.74 70.63 456.19 69.47C456.44 68.83 456.93 68.25 457.43 67.76C457.91 67.29 458.57 67.26 459.18 67.62C459.77 67.97 459.96 68.57 459.85 69.18C459.57 70.88 459.35 72.61 458.86 74.25C457.84 77.72 455.72 80.27 452.46 82.02C448.15 84.34 444.98 87.78 443.41 92.52C442.62 94.91 441.4 97.04 439.67 98.88C438.8 99.8 438.27 100.89 438.25 102.19C438.22 103.76 439.5 104.76 441.02 104.33C442.69 103.86 443.97 102.89 444.78 101.32C445.34 100.23 445.89 99.13 446.48 98.06C447.64 95.96 449.07 94.07 450.92 92.52C453.51 90.35 455.19 87.59 456.35 84.45C456.77 83.31 457.39 82.23 458.06 81.21C458.46 80.6 459.08 80.1 459.69 79.68C460.63 79.04 461.71 79.52 461.79 80.65C461.86 81.56 461.76 82.51 461.56 83.4C460.81 86.73 459.25 89.64 456.76 92C454.4 94.23 452.6 96.86 451.18 99.77C450.45 101.28 449.65 102.76 448.74 104.17C447.55 106.02 445.87 107.36 443.71 107.88C440.35 108.69 436.97 109.36 433.86 110.02V110.07ZM437.45 58.74C437.21 57.28 437 55.82 436.72 54.37C436.52 53.31 436.04 53.11 435.08 53.63C433.32 54.58 432.4 56.1 431.96 58.01C431.38 60.54 431.46 63.09 431.72 65.64C432.1 69.46 431.44 73.1 430.05 76.67C428.93 79.53 427.9 82.44 427.07 85.4C426.18 88.59 426 91.88 426.77 95.14C426.94 95.84 427.34 96.53 427.81 97.09C428.56 98 429.62 97.99 430.29 97.02C430.79 96.3 431.18 95.44 431.36 94.59C431.81 92.36 431.72 90.11 431.44 87.86C431.2 85.92 430.91 83.95 431.03 82.02C431.3 77.71 432.88 73.78 435.09 70.12C437.22 66.58 438.18 62.86 437.44 58.75L437.45 58.74Z" fill="#00409D"/>
<path fill-rule="evenodd" clip-rule="evenodd" d="M400.98 92.7649C398.999 90.5981 397.727 87.9655 397.2 84.89C397.12 84.45 397.09 83.99 397.08 83.54C397.06 82.57 397.43 82.01 398.19 81.8C398.597 81.6843 399.032 81.7154 399.415 81.8714C399.384 81.8067 399.353 81.7429 399.32 81.68C398.92 80.92 398 80.57 397.19 80.8C396.43 81.01 396.06 81.57 396.08 82.54C396.09 82.99 396.12 83.45 396.2 83.89C396.811 87.4555 398.424 90.4255 400.98 92.7649ZM404.753 91.6431C405.682 92.6552 406.755 93.5666 407.97 94.38C408.26 94.57 408.57 94.75 408.88 94.9C409.43 95.17 410.02 95.4 410.57 94.95C411.17 94.46 411.36 93.77 411.18 93.05C411.02 92.4 410.77 91.75 410.45 91.17C408.607 87.8723 406.542 84.7354 403.789 82.1303C406.054 84.5213 407.838 87.2841 409.45 90.17C409.77 90.75 410.02 91.4 410.18 92.05C410.36 92.77 410.17 93.46 409.57 93.95C409.02 94.4 408.43 94.17 407.88 93.9C407.57 93.75 407.26 93.57 406.97 93.38C406.169 92.8439 405.43 92.2651 404.753 91.6431ZM400.305 79.3555C400.308 79.3574 400.311 79.3594 400.315 79.3613C400.355 79.3848 400.395 79.4082 400.435 79.4316C400.481 79.4586 400.528 79.4855 400.574 79.5125C400.572 79.5112 400.576 79.5137 400.574 79.5125L400.256 79.327C400.272 79.3365 400.289 79.346 400.305 79.3555ZM397.07 77.46L397.102 77.4799C396.818 77.0312 396.63 76.5194 396.49 75.99C396.27 75.18 396.58 74.43 397.21 74.11C397.699 73.8655 398.255 73.8273 398.725 73.9888C398.662 73.8498 398.593 73.7153 398.51 73.59C398.04 72.87 397.03 72.7 396.21 73.11C395.58 73.43 395.27 74.18 395.49 74.99C395.75 75.97 396.17 76.89 397.07 77.46ZM400.501 76.5048C400.765 76.8648 401.065 77.2024 401.41 77.45C401.69 77.65 402.28 77.7 402.56 77.52C402.78 77.38 402.88 76.78 402.8 76.45C402.55 75.46 402.24 74.47 401.85 73.53C401.675 73.105 401.448 72.7 401.22 72.295C400.992 71.89 400.765 71.485 400.59 71.06C400.27 70.27 399.93 69.41 399.9 68.58C399.83 66.95 401.37 66.08 402.67 67.05C402.71 67.0797 402.749 67.1101 402.788 67.1411C402.454 66.7286 402.076 66.3536 401.67 66.05C400.37 65.08 398.83 65.95 398.9 67.58C398.93 68.41 399.27 69.27 399.59 70.06C399.765 70.485 399.992 70.89 400.22 71.295C400.448 71.7 400.675 72.105 400.85 72.53C401.24 73.47 401.55 74.46 401.8 75.45C401.88 75.78 401.78 76.38 401.56 76.52C401.308 76.6822 400.803 76.6576 400.501 76.5048ZM418.808 101.352C419.084 101.643 419.368 101.928 419.65 102.21C420.1 102.66 420.74 102.88 421.38 102.6C422.07 102.3 422.29 101.64 422.22 100.97C422.13 100.11 422.02 99.21 421.71 98.41C421.226 97.195 420.705 95.9916 420.183 94.7879C419.521 93.2574 418.858 91.7261 418.27 90.17C416.926 86.6103 415.659 83.025 414.392 79.4397C414.075 78.5431 413.758 77.6462 413.44 76.75C412.18 73.19 410.72 69.76 408.23 66.84C406.8 65.17 405.81 63.23 405.21 61.1C405.08 60.64 405 60.17 404.97 59.7C404.88 58.51 405.57 57.54 406.6 57.33C407.164 57.2136 407.678 57.2555 408.108 57.4475C407.643 56.4924 406.721 56.0988 405.6 56.33C404.57 56.54 403.88 57.51 403.97 58.7C404 59.17 404.08 59.64 404.21 60.1C404.81 62.23 405.8 64.17 407.23 65.84C409.72 68.76 411.18 72.19 412.44 75.75C412.758 76.6462 413.075 77.5428 413.392 78.4394C414.659 82.0248 415.926 85.6102 417.27 89.17C417.858 90.7262 418.521 92.2573 419.183 93.7879C419.705 94.9916 420.226 96.195 420.71 97.41C421.02 98.21 421.13 99.11 421.22 99.97C421.29 100.64 421.07 101.3 420.38 101.6C419.812 101.849 419.243 101.703 418.808 101.352ZM416.606 73.9848C416.688 74.1629 416.778 74.336 416.88 74.5C417.25 75.11 417.81 75.16 418.2 74.57C418.47 74.16 418.64 73.61 418.67 73.12C418.715 72.243 418.693 71.3604 418.67 70.4764C418.663 70.1811 418.655 69.8855 418.65 69.59C418.6 67.13 417.78 64.94 416.3 62.98C413.12 58.78 412.05 53.99 412.36 48.83C412.473 46.9963 414.054 46.0468 415.497 46.7717C415.346 46.4452 415.112 46.1581 414.77 45.93C413.26 44.93 411.48 45.88 411.36 47.83C411.05 52.99 412.12 57.78 415.3 61.98C416.78 63.94 417.6 66.13 417.65 68.59C417.655 68.8855 417.663 69.1811 417.67 69.4764C417.693 70.3604 417.715 71.243 417.67 72.12C417.64 72.61 417.47 73.16 417.2 73.57C417.025 73.8344 416.816 73.9703 416.606 73.9848ZM417.562 58.6439C417.577 58.6983 417.598 58.7478 417.63 58.78C417.717 58.8674 417.804 58.9683 417.891 59.0699C418.124 59.3404 418.361 59.6164 418.63 59.66C418.87 59.7 419.34 59.16 419.51 58.79C420.58 56.34 420.73 53.75 420.45 51.13C420.433 50.9533 420.389 50.7797 420.345 50.6041C420.309 50.4616 420.272 50.3178 420.25 50.17C420.08 49.19 420.59 48.36 421.52 48.06C421.906 47.9413 422.319 47.943 422.682 48.0576C422.436 47.1505 421.407 46.7871 420.52 47.06C419.59 47.36 419.08 48.19 419.25 49.17C419.272 49.3178 419.309 49.4616 419.345 49.6041C419.389 49.7797 419.433 49.9533 419.45 50.13C419.73 52.75 419.58 55.34 418.51 57.79C418.34 58.16 417.87 58.7 417.63 58.66C417.607 58.6563 417.584 58.6509 417.562 58.6439ZM422.009 89.8036C422.151 90.0369 422.315 90.2566 422.49 90.45C423.04 91.06 423.75 90.94 424.17 90.23C424.37 89.89 424.51 89.51 424.63 89.13C425.102 87.63 425.571 86.1301 426.04 84.6301C426.743 82.3804 427.446 80.1296 428.16 77.88C428.621 76.4335 428.545 74.9618 428.469 73.4949C428.45 73.1162 428.43 72.7376 428.42 72.36C428.397 71.5413 428.358 70.7227 428.319 69.9045C428.253 68.5442 428.188 67.185 428.2 65.83C428.212 64.8108 428.321 63.7952 428.43 62.7788C428.503 62.1001 428.576 61.4207 428.62 60.74C428.77 58.44 428.44 56.19 427.83 53.97C427.71 53.54 427.6 53.09 427.59 52.64C427.58 52.12 427.59 51.58 427.74 51.09C428.01 50.21 428.84 49.59 429.54 49.61C429.683 49.6141 429.826 49.6382 429.964 49.6825C429.713 48.9803 429.126 48.6268 428.54 48.61C427.84 48.59 427.01 49.21 426.74 50.09C426.59 50.58 426.58 51.12 426.59 51.64C426.6 52.09 426.71 52.54 426.83 52.97C427.44 55.19 427.77 57.44 427.62 59.74C427.576 60.4208 427.503 61.1 427.43 61.7789C427.321 62.7952 427.212 63.8108 427.2 64.83C427.188 66.185 427.253 67.5439 427.319 68.9043C427.358 69.7225 427.397 70.5413 427.42 71.36C427.43 71.7376 427.45 72.1161 427.469 72.4949C427.545 73.9618 427.621 75.4335 427.16 76.88C426.446 79.13 425.743 81.3799 425.04 83.6299C424.571 85.1299 424.102 86.63 423.63 88.13C423.51 88.51 423.37 88.89 423.17 89.23C422.874 89.7297 422.435 89.9371 422.009 89.8036ZM431.413 57.5976C431.49 57.9601 431.655 58.233 431.875 58.4016C431.902 58.271 431.93 58.1405 431.96 58.01C432.007 57.8059 432.059 57.6063 432.118 57.4114C432.185 57.3736 432.253 57.3298 432.32 57.28C433.43 56.46 434.07 55.3 434.55 54.04C434.565 54.0001 434.58 53.9602 434.594 53.9203C434.749 53.8183 434.91 53.7215 435.08 53.63C435.456 53.4264 435.758 53.3332 435.999 53.3587C436.178 52.3044 436.197 51.2293 436.19 50.15C436.19 49.9695 436.188 49.7886 436.185 49.6077C436.17 48.4656 436.154 47.3217 436.75 46.26C437.37 45.16 438.37 44.65 439.49 44.88C439.672 44.9184 439.841 44.9702 439.996 45.0362C439.734 44.4 439.217 44.0333 438.49 43.88C437.37 43.65 436.37 44.16 435.75 45.26C435.154 46.3217 435.17 47.4654 435.185 48.6074C435.188 48.7884 435.19 48.9694 435.19 49.15C435.2 50.7681 435.152 52.3767 434.594 53.9203C433.318 54.7635 432.553 55.9575 432.118 57.4114C431.874 57.5488 431.634 57.6085 431.413 57.5976ZM442.171 64.8836C442.303 65.3043 442.575 65.8094 442.87 65.89C443.22 65.98 443.81 65.64 444.13 65.32C445.13 64.32 445.64 63.02 445.91 61.65C446.45 58.93 446.74 56.21 445.7 53.5C445.48 52.92 445.43 52.21 445.52 51.6C445.65 50.66 446.34 50.15 447.25 49.95C447.684 49.8584 448.076 49.8853 448.414 50.0228C448.38 49.9613 448.345 49.9003 448.31 49.84C447.87 49.08 447.15 48.76 446.25 48.95C445.34 49.15 444.65 49.66 444.52 50.6C444.43 51.21 444.48 51.92 444.7 52.5C445.74 55.21 445.45 57.93 444.91 60.65C444.64 62.02 444.13 63.32 443.13 64.32C442.89 64.5597 442.499 64.8106 442.171 64.8836ZM444.654 71.048C444.522 71.7056 444.895 72.1045 445.63 72.05C446.26 72 446.93 71.84 447.49 71.56C451.04 69.81 453.21 66.97 454.1 63.11C454.25 62.46 454.49 61.82 454.81 61.24C455.11 60.69 455.66 60.49 456.3 60.65C456.41 60.6774 456.519 60.7075 456.625 60.7421C456.542 60.0489 455.926 59.8064 455.3 59.65C454.66 59.49 454.11 59.69 453.81 60.24C453.49 60.82 453.25 61.46 453.1 62.11C452.21 65.97 450.04 68.81 446.49 70.56C445.937 70.8364 445.277 70.9959 444.654 71.048ZM437.036 93.8809C437.186 94.3828 437.488 94.7994 438.09 94.89C438.79 95 439.24 94.56 439.52 94C439.87 93.31 440.16 92.59 440.41 91.86C441.6 88.44 443.31 85.4 446.49 83.45C447.354 82.9216 448.274 82.4798 449.196 82.0374C449.565 81.8602 449.934 81.683 450.3 81.5C453.42 79.94 455.29 77.42 456.13 74.07C456.43 72.86 456.74 71.63 457.19 70.47C457.44 69.83 457.93 69.25 458.43 68.76C458.819 68.3792 459.326 68.2872 459.829 68.4575C459.74 68.1237 459.53 67.8278 459.18 67.62C458.57 67.26 457.91 67.29 457.43 67.76C456.93 68.25 456.44 68.83 456.19 69.47C455.74 70.63 455.43 71.86 455.13 73.07C454.29 76.42 452.42 78.94 449.3 80.5C448.934 80.683 448.565 80.8602 448.196 81.0374C447.274 81.4798 446.354 81.9216 445.49 82.45C442.31 84.4 440.6 87.44 439.41 90.86C439.16 91.59 438.87 92.31 438.52 93C438.24 93.56 437.79 94 437.09 93.89C437.072 93.8873 437.054 93.8842 437.036 93.8809ZM439.458 104.252C439.878 105.172 440.882 105.652 442.02 105.33C443.69 104.86 444.97 103.89 445.78 102.32C445.9 102.087 446.019 101.853 446.139 101.619C446.577 100.761 447.017 99.9005 447.48 99.06C448.64 96.96 450.07 95.07 451.92 93.52C454.51 91.35 456.19 88.59 457.35 85.45C457.77 84.31 458.39 83.23 459.06 82.21C459.46 81.6 460.08 81.1 460.69 80.68C461.046 80.4377 461.422 80.3559 461.756 80.4092C461.55 79.4549 460.56 79.0875 459.69 79.68C459.08 80.1 458.46 80.6 458.06 81.21C457.39 82.23 456.77 83.31 456.35 84.45C455.19 87.59 453.51 90.35 450.92 92.52C449.07 94.07 447.64 95.96 446.48 98.06C446.017 98.9005 445.578 99.7596 445.139 100.618C445.02 100.852 444.9 101.086 444.78 101.32C443.97 102.89 442.69 103.86 441.02 104.33C440.446 104.492 439.906 104.451 439.458 104.252ZM436.721 54.3756C436.918 55.3955 437.08 56.4205 437.243 57.4468C437.311 57.8777 437.379 58.3089 437.45 58.74L437.44 58.75C438.18 62.86 437.22 66.58 435.09 70.12C432.88 73.78 431.3 77.71 431.03 82.02C430.922 83.7523 431.145 85.5168 431.365 87.263C431.39 87.4622 431.415 87.6613 431.44 87.86C431.72 90.11 431.81 92.36 431.36 94.59C431.18 95.44 430.79 96.3 430.29 97.02C429.796 97.7357 429.089 97.9288 428.451 97.6152C428.564 97.7813 428.684 97.9403 428.81 98.09C429.56 99 430.62 98.99 431.29 98.02C431.79 97.3 432.18 96.44 432.36 95.59C432.81 93.36 432.72 91.11 432.44 88.86C432.415 88.6613 432.39 88.4622 432.365 88.263C432.145 86.5168 431.922 84.7523 432.03 83.02C432.3 78.71 433.88 74.78 436.09 71.12C438.22 67.58 439.18 63.86 438.44 59.75L438.45 59.74C438.379 59.3089 438.311 58.8777 438.243 58.4468C438.08 57.4186 437.917 56.3918 437.72 55.37C437.571 54.5788 437.265 54.2668 436.721 54.3756Z" fill="#009AFC"/>
<g filter="url(#filter0_i_37_2)">
<path d="M1021.58 20.26C1021.43 21.63 1021.78 23.15 1022.25 24.48C1023.07 26.77 1025.02 27.17 1026.47 25.22C1027.71 23.56 1028.59 21.56 1029.31 19.6C1030.21 17.15 1030.71 14.54 1031.56 12.07C1031.89 11.09 1032.59 10.16 1033.32 9.40999C1034.27 8.42999 1035.54 8.41999 1036.73 8.98999C1037.96 9.57999 1038.38 10.74 1038.12 11.96C1037.49 14.92 1036.84 17.88 1035.96 20.77C1032.61 31.84 1027.24 41.86 1020.1 50.95C1018.23 53.33 1016.31 55.68 1014.69 58.22C1010.61 64.6 1010.81 71.03 1015 77.29C1017.77 81.43 1020.59 85.53 1022 90.39C1022.16 90.94 1022.49 91.46 1022.81 91.95C1023.71 93.31 1025.11 93.61 1026.43 92.66C1028.45 91.2 1029.54 89.15 1029.72 86.68C1029.98 82.97 1028.53 79.8 1026.39 76.88C1025.03 75.02 1023.47 73.27 1022.43 71.24C1020.32 67.13 1020.38 62.78 1022.49 58.71C1024 55.8 1025.95 53.12 1027.84 50.43C1028.5 49.5 1029.34 48.68 1030.29 48C1031.2 47.35 1032.42 47.28 1033.31 48.18C1034.18 49.06 1034.52 50.13 1033.84 51.26C1033.01 52.65 1032.04 53.97 1031.21 55.36C1030.14 57.13 1029.05 58.9 1028.16 60.76C1027.75 61.61 1027.68 62.69 1027.68 63.66C1027.67 65.38 1028.27 66.94 1029.92 67.69C1031.59 68.45 1033.25 68.07 1034.63 66.93C1039.03 63.28 1042.26 55.35 1040.26 49.95C1039.7 48.44 1039.51 46.62 1039.73 45.02C1040.3 40.91 1041.11 36.82 1042.04 32.77C1042.25 31.85 1043.21 30.92 1044.07 30.38C1046.1 29.09 1048.38 30.36 1048.29 32.78C1048.2 35.17 1047.79 37.54 1047.51 39.92C1047.27 41.94 1046.93 43.95 1046.81 45.97C1046.74 47.15 1046.73 48.53 1048.21 49.04C1049.26 49.4 1050.42 48.58 1051.14 46.94C1051.59 45.92 1051.87 44.81 1052.15 43.72C1053.09 40.04 1053.99 36.35 1054.91 32.67C1054.99 32.37 1055.12 32.07 1055.26 31.79C1056.13 30.16 1058.23 29.09 1059.78 29.47C1061.06 29.78 1061.91 31.07 1061.63 33.26C1061.19 36.65 1060.67 40.07 1059.75 43.36C1057.18 52.51 1051.93 59.94 1044.73 66.09C1042.61 67.9 1040.59 69.89 1038.8 72.02C1036.77 74.45 1036.06 77.29 1037.44 80.37C1038.77 83.35 1041.9 83.86 1043.85 81.27C1044.8 80.01 1045.44 78.45 1045.97 76.93C1046.65 74.97 1046.91 72.86 1047.67 70.94C1048.15 69.74 1049.14 68.7 1050.05 67.74C1050.9 66.83 1052.09 66.45 1053.28 67C1054.45 67.54 1054.81 68.69 1054.96 69.91C1055.31 72.64 1054.56 75.19 1053.73 77.74C1051.79 83.69 1047.58 87.68 1042.58 91.11C1036.84 95.05 1031.12 99.05 1025.66 103.36C1022.05 106.2 1018.66 109.48 1017.05 113.98C1016.12 116.55 1015.54 119.27 1015.05 121.97C1014.8 123.34 1014.29 124.18 1012.95 124.03C1010.91 123.81 1008.88 123.44 1006.88 122.99C1005.89 122.77 1005.64 121.92 1005.89 120.94C1006.77 117.48 1007.61 114 1008.52 110.55C1009.16 108.1 1008.74 106.81 1006.65 105.28C1003.38 102.88 1000.25 100.29 998.63 96.46C997.8 94.49 997.32 92.34 996.95 90.23C996.67 88.61 997.28 87.11 998.7 86.07C1000.36 84.85 1002.13 85.36 1002.78 87.31C1003.12 88.34 1003.2 89.46 1003.62 90.45C1004.73 93.06 1005.83 95.69 1007.19 98.16C1008.13 99.86 1009.72 101.24 1011.85 100.7C1013.95 100.16 1014.21 98.1 1014.38 96.31C1014.83 91.58 1012.94 87.74 1009.5 84.63C1004.94 80.52 999.79 77.29 994.24 74.66C990.03 72.67 986.22 70.09 983.49 66.21C981.5 63.38 980.55 60.17 981.41 56.82C982.98 50.7 984.84 44.65 986.67 38.59C987.09 37.19 988.05 36.05 989.48 35.44C991.45 34.6 993.15 35.46 993.11 37.57C993.07 39.62 992.65 41.7 992.13 43.69C991.13 47.54 989.87 51.32 988.85 55.16C987.8 59.14 988.85 62.57 991.91 65.37C995.01 68.2 998.5 67.26 999.26 63.12C999.73 60.59 999.77 57.87 999.39 55.33C998.29 48.01 999.54 40.9 1000.89 33.79C1001.28 31.74 1002.82 30.69 1004.77 30.29C1006.38 29.96 1007.46 30.6 1007.51 32.25C1007.59 34.77 1007.4 37.3 1007.21 39.81C1007.04 41.97 1006.66 44.11 1006.46 46.27C1006.39 47.02 1006.5 47.82 1006.7 48.55C1007.3 50.81 1009.1 51.42 1010.93 49.96C1012.99 48.31 1014.45 46.16 1015.21 43.65C1016.67 38.87 1016.79 33.99 1015.35 29.21C1013.81 24.09 1013.51 19.04 1015 13.86C1015.99 10.43 1016.58 6.88999 1017.65 3.49999C1018.03 2.27999 1019.1 1.05999 1020.19 0.33999C1020.96 -0.16001 1022.38 -0.0900104 1023.34 0.23999C1024.55 0.64999 1024.68 1.94999 1024.53 3.13999C1024.32 4.70999 1024.08 6.27999 1023.83 7.83999C1023.65 8.95999 1023.44 10.07 1023.24 11.18C1023.04 12.29 1021.9 17.19 1021.58 20.24V20.26Z" fill="#00409D"/>
</g>
<path fill-rule="evenodd" clip-rule="evenodd" d="M1024.4 1.26026C1024.38 1.25328 1024.37 1.24898 1024.35 1.24245C1023.39 0.912449 1021.96 0.83999 1021.19 1.33999C1020.1 2.05999 1019.03 3.27999 1018.65 4.49999C1018.21 5.89155 1017.85 7.30839 1017.51 8.73252C1017.49 8.85106 1017.46 8.96966 1017.43 9.08828C1017.38 9.29024 1017.34 9.49229 1017.29 9.69443C1017.25 9.84906 1017.22 10.0037 1017.18 10.1584C1016.81 11.7317 1016.45 13.3077 1016 14.86C1014.51 20.04 1014.81 25.09 1016.35 30.21C1017.79 34.99 1017.67 39.87 1016.21 44.65C1015.45 47.16 1013.99 49.31 1011.93 50.96C1010.41 52.1762 1008.9 51.956 1008.1 50.5423C1008.9 50.9451 1009.91 50.7754 1010.93 49.96C1012.99 48.31 1014.45 46.16 1015.21 43.65C1016.67 38.87 1016.79 33.99 1015.35 29.21C1013.81 24.09 1013.51 19.04 1015 13.86C1015.45 12.3077 1015.81 10.7328 1016.18 9.15949C1016.62 7.25648 1017.06 5.35576 1017.65 3.49999C1018.03 2.27999 1019.1 1.05999 1020.19 0.33999C1020.96 -0.16001 1022.38 -0.0900104 1023.34 0.23999C1023.89 0.426817 1024.22 0.798447 1024.4 1.26026ZM1007.34 31.3344C1006.98 30.3718 1006.04 30.0301 1004.77 30.29C1002.82 30.69 1001.28 31.74 1000.89 33.79C999.54 40.9 998.29 48.01 999.39 55.33C999.77 57.87 999.73 60.59 999.26 63.12C998.506 67.2242 995.07 68.1835 991.99 65.4426C992.273 65.759 992.58 66.0682 992.91 66.37C996.01 69.2 999.5 68.26 1000.26 64.12C1000.73 61.59 1000.77 58.87 1000.39 56.33C999.29 49.01 1000.54 41.9 1001.89 34.79C1002.28 32.74 1003.82 31.69 1005.77 31.29C1006.38 31.1651 1006.91 31.1791 1007.34 31.3344ZM992.877 36.313C992.35 35.1533 990.995 34.7941 989.48 35.44C988.05 36.05 987.09 37.19 986.67 38.59C986.494 39.1717 986.318 39.7534 986.142 40.335C984.485 45.8122 982.829 51.2875 981.41 56.82C980.55 60.17 981.5 63.38 983.49 66.21C984.345 67.4252 985.306 68.5128 986.352 69.4948C985.688 68.7864 985.065 68.027 984.49 67.21C982.5 64.38 981.55 61.17 982.41 57.82C983.829 52.2875 985.485 46.8122 987.142 41.335C987.318 40.7534 987.494 40.1717 987.67 39.59C988.09 38.19 989.05 37.05 990.48 36.44C991.383 36.055 992.229 36.0271 992.877 36.313ZM1026.47 25.22C1025.58 26.4152 1024.5 26.7276 1023.62 26.2629C1024.56 27.8338 1026.2 27.9213 1027.47 26.22C1028.71 24.56 1029.59 22.56 1030.31 20.6C1030.79 19.2933 1031.16 17.941 1031.52 16.5887C1031.84 15.4057 1032.16 14.2226 1032.56 13.07C1032.89 12.09 1033.59 11.16 1034.32 10.41C1035.27 9.42999 1036.54 9.41999 1037.73 9.98999C1037.79 10.0195 1037.85 10.0504 1037.91 10.0826C1037.67 9.63437 1037.28 9.25477 1036.73 8.98999C1035.54 8.41999 1034.27 8.42999 1033.32 9.40999C1032.59 10.16 1031.89 11.09 1031.56 12.07C1031.16 13.2226 1030.84 14.4057 1030.52 15.5887C1030.16 16.941 1029.79 18.2933 1029.31 19.6C1028.59 21.56 1027.71 23.56 1026.47 25.22ZM1023.78 92.9091L1023.81 92.95C1024.71 94.31 1026.11 94.61 1027.43 93.66C1029.45 92.2 1030.54 90.15 1030.72 87.68C1030.98 83.97 1029.53 80.8 1027.39 77.88C1027.01 77.3609 1026.62 76.8505 1026.22 76.3401C1025.2 75.0215 1024.18 73.7035 1023.43 72.24C1021.32 68.13 1021.38 63.78 1023.49 59.71C1024.85 57.0913 1026.56 54.6589 1028.27 52.2379L1028.56 51.8224L1028.84 51.43C1029.5 50.5 1030.34 49.68 1031.29 49C1032.04 48.4669 1032.99 48.3239 1033.8 48.7863C1033.67 48.5759 1033.5 48.3734 1033.31 48.18C1032.42 47.28 1031.2 47.35 1030.29 48C1029.34 48.68 1028.5 49.5 1027.84 50.43C1027.65 50.6993 1027.46 50.9685 1027.27 51.2379C1025.56 53.6589 1023.85 56.0913 1022.49 58.71C1020.38 62.78 1020.32 67.13 1022.43 71.24C1023.18 72.7035 1024.2 74.0215 1025.22 75.3401C1025.62 75.8505 1026.01 76.361 1026.39 76.88C1028.53 79.8 1029.98 82.97 1029.72 86.68C1029.54 89.15 1028.45 91.2 1026.43 92.66C1025.52 93.3129 1024.58 93.3754 1023.78 92.9091ZM1029.38 67.3949C1029.74 67.9339 1030.24 68.3808 1030.92 68.69C1032.59 69.45 1034.25 69.07 1035.63 67.93C1040.03 64.28 1043.26 56.35 1041.26 50.95C1040.7 49.44 1040.51 47.62 1040.73 46.02C1041.3 41.91 1042.11 37.82 1043.04 33.77C1043.25 32.85 1044.21 31.92 1045.07 31.38C1046.07 30.7456 1047.13 30.7303 1047.93 31.1664C1047.22 29.8764 1045.58 29.4214 1044.07 30.38C1043.21 30.92 1042.25 31.85 1042.04 32.77C1041.11 36.82 1040.3 40.91 1039.73 45.02C1039.51 46.62 1039.7 48.44 1040.26 49.95C1042.26 55.35 1039.03 63.28 1034.63 66.93C1033.25 68.07 1031.59 68.45 1029.92 67.69C1029.73 67.6023 1029.55 67.5036 1029.38 67.3949ZM1048 48.9587C1048.2 49.4261 1048.56 49.8166 1049.21 50.04C1050.26 50.4 1051.42 49.58 1052.14 47.94C1052.58 46.947 1052.85 45.8687 1053.13 44.8066L1053.15 44.72C1053.77 42.3089 1054.36 39.8935 1054.96 37.4795C1055.28 36.209 1055.59 34.9389 1055.91 33.67C1055.99 33.37 1056.12 33.07 1056.26 32.79C1057.13 31.16 1059.23 30.09 1060.78 30.47C1060.96 30.5132 1061.13 30.5754 1061.29 30.6564C1060.95 30.0235 1060.42 29.6247 1059.78 29.47C1058.23 29.09 1056.13 30.16 1055.26 31.79C1055.12 32.07 1054.99 32.37 1054.91 32.67C1054.59 33.9389 1054.28 35.209 1053.96 36.4795C1053.36 38.8935 1052.77 41.3089 1052.15 43.72L1052.13 43.8066C1051.85 44.8687 1051.58 45.947 1051.14 46.94C1050.42 48.58 1049.26 49.4 1048.21 49.04C1048.14 49.0149 1048.07 48.9878 1048 48.9587ZM1038.99 82.331C1040.5 84.4276 1043.13 84.5506 1044.85 82.27C1045.8 81.01 1046.44 79.45 1046.97 77.93C1047.28 77.0387 1047.5 76.1164 1047.72 75.1951C1047.99 74.0926 1048.26 72.9848 1048.67 71.94C1049.15 70.7479 1050.13 69.7136 1051.03 68.7589L1051.05 68.74C1051.9 67.83 1053.09 67.45 1054.28 68C1054.33 68.0252 1054.39 68.0517 1054.44 68.0795C1054.18 67.6257 1053.82 67.2483 1053.28 67C1052.09 66.45 1050.9 66.83 1050.05 67.74L1050.03 67.7589C1049.13 68.7136 1048.15 69.7479 1047.67 70.94C1047.26 71.9858 1046.99 73.0881 1046.72 74.1917C1046.5 75.1142 1046.28 76.0376 1045.97 76.93C1045.44 78.45 1044.8 80.01 1043.85 81.27C1042.47 83.1048 1040.49 83.3838 1038.99 82.331ZM1006.84 122.98C1006.77 122.671 1006.79 122.315 1006.89 121.94C1007.21 120.683 1007.52 119.423 1007.84 118.163L1007.85 118.121C1008.4 115.927 1008.94 113.732 1009.52 111.55C1010.11 109.281 1009.8 108.006 1008.09 106.615C1008.9 107.678 1008.97 108.827 1008.52 110.55C1007.94 112.732 1007.4 114.927 1006.85 117.121C1006.53 118.395 1006.21 119.669 1005.89 120.94C1005.64 121.905 1005.88 122.745 1006.84 122.98ZM1002.72 102.09C1001.46 100.743 1000.38 99.2346 999.63 97.46C998.8 95.49 998.32 93.34 997.95 91.23C997.67 89.61 998.28 88.11 999.7 87.07C1000.67 86.3536 1001.69 86.2337 1002.49 86.6516C1001.69 85.2601 1000.15 85.0013 998.7 86.07C997.28 87.11 996.67 88.61 996.95 90.23C997.32 92.34 997.8 94.49 998.63 96.46C999.572 98.687 1001.02 100.495 1002.72 102.09ZM1008.79 100.074C1009.75 101.311 1011.12 102.139 1012.85 101.7C1014.95 101.16 1015.21 99.1 1015.38 97.31C1015.82 92.6712 1014.01 88.8884 1010.7 85.8107C1013.37 88.6979 1014.77 92.1616 1014.38 96.31C1014.21 98.1 1013.95 100.16 1011.85 100.7C1010.65 101.004 1009.62 100.7 1008.79 100.074Z" fill="#009AFC"/>
<path d="M770.83 80.28C769.9 79.72 768.96 79.21 768.09 78.59C767.45 78.14 766.7 77.66 766.37 77.01C765.6 75.49 765.97 74.81 767.56 74.22C767.96 74.07 768.42 73.96 768.71 73.69C769.06 73.35 769.26 72.86 769.52 72.43C769.06 72.15 768.62 71.68 768.15 71.65C767.44 71.61 766.66 71.76 766 72.04C763.64 73.04 761.14 73.3 758.7 72.99C755.15 72.54 751.74 71.49 749.21 68.66C748.25 67.58 747.63 66.31 748.42 64.96C749.29 63.46 750.32 61.89 752.42 62.11C753.72 62.24 754.99 62.62 756.29 62.85C756.66 62.92 757.35 62.95 757.4 62.81C757.54 62.42 757.57 61.88 757.4 61.5C757.19 61.03 756.76 60.64 756.39 60.25C755.35 59.16 755.1 57.9 755.62 56.5C756.13 55.15 757.02 54.65 758.44 54.9C761.61 55.47 764.19 56.89 765.68 59.91C765.85 60.25 766.24 60.48 766.52 60.75C766.73 60.41 767.04 60.1 767.14 59.73C767.9 56.93 766.63 54.03 764.02 52.61C763.7 52.43 763.29 52.39 762.91 52.34C760.6 52.06 758.3 51.81 755.99 51.51C755.51 51.45 755 51.27 754.59 51.02C752.75 49.91 752.42 48.74 753.64 46.99C754.31 46.03 755.22 45.19 756.15 44.47C756.86 43.92 756.86 43.46 756.44 42.82C756.04 42.21 755.56 41.62 755.28 40.96C755.09 40.51 754.97 39.83 755.18 39.44C755.57 38.71 756.12 38.02 757.2 38.25C758.41 38.51 759.64 38.64 760.87 38.83C762.1 39.01 763.05 39.6 763.63 40.72C766.45 46.09 769.54 51.33 771.47 57.13C771.79 58.11 772.32 59.04 772.91 59.89C773.66 60.98 774.7 60.95 775.5 59.89C776.2 58.97 776.38 57.96 775.96 56.83C774.75 53.59 774.5 50.17 774.48 46.77C774.48 45.86 775.38 44.86 776.06 44.07C776.28 43.82 777.32 43.91 777.67 44.21C778.67 45.05 779.64 45.99 780.37 47.06C780.77 47.64 780.72 48.57 780.76 49.35C780.78 49.74 780.56 50.15 780.37 50.8C782.05 50.32 783.12 49.43 783.78 48.11C784.35 46.97 784.89 45.78 785.15 44.55C785.32 43.77 785.15 42.77 784.78 42.06C783.82 40.22 784.5 37.57 786.38 36.67C787.54 36.11 788.63 36.52 789.52 37.25C790.59 38.13 791.59 39.13 792.51 40.16C793.43 41.2 793.67 42.47 793.4 43.86C792.8 46.97 791.28 49.62 789.14 51.86C786.44 54.68 783.58 57.34 780.76 60.05C779.64 61.13 778.85 62.29 779.31 63.95C779.59 64.96 780.17 65.42 781.19 65.05C782.13 64.71 783.06 64.31 783.95 63.86C784.86 63.4 785.33 62.63 785.57 61.6C785.9 60.18 786.36 58.77 786.95 57.45C787.25 56.79 787.9 56.22 788.51 55.77C789.87 54.76 791.67 55.19 792.5 56.67C793.22 57.97 793.37 59.36 792.6 60.66C790.56 64.09 788.14 67.18 784.52 69.12C784.01 69.39 783.5 69.76 782.95 69.85C780.83 70.22 779.61 71.68 778.54 73.33C777.85 74.4 777.14 75.46 776.49 76.55C775.92 77.51 776.2 78.01 777.31 78.06C778.73 78.12 779.79 77.32 780.81 76.47C781.17 76.17 781.47 75.82 781.82 75.5C784.06 73.42 787.83 74.14 789.15 76.95C789.33 77.33 789.38 77.9 789.23 78.28C788.26 80.66 787.01 82.77 784.31 83.62C783.15 83.99 782.03 84.6 781.01 85.28C779.1 86.54 778.75 87.8 779.7 89.85C780.28 91.12 780.99 92.46 782.6 92.57C784.11 92.67 784.91 91.46 785.68 90.4C786.13 89.79 786.32 89 786.7 88.33C787.08 87.67 787.44 86.95 787.99 86.44C790.38 84.19 793.36 84.93 794.38 88.06C794.59 88.7 794.39 89.55 794.17 90.23C793.84 91.25 793.26 92.19 792.89 93.2C792.61 93.97 792.96 94.35 793.82 94.3C796.69 94.13 800.08 91.02 800.46 88.18C800.64 86.81 800.03 85.88 798.93 85.17C797.82 84.46 796.68 83.8 795.63 83.01C794.3 82.02 793.73 78.86 794.65 77.49C794.86 77.17 795.66 76.94 796.02 77.09C797.01 77.49 797.98 78.02 798.82 78.67C800.01 79.59 801.25 79.37 801.91 77.97C802.46 76.81 802.14 75.3 801 74.42C799.74 73.45 798.37 72.64 797.1 71.69C795.06 70.17 794.53 67.69 795.7 65.49C796.18 64.58 796.88 64.15 797.94 64.15C801.65 64.14 803.89 66.13 805.29 69.36C805.92 70.82 806.59 71.15 807.77 70.74C808.46 70.5 808.85 70.17 808.36 69.38C808.14 69.03 808.01 68.6 807.95 68.19C807.8 67.16 808.22 66.53 809.25 66.58C810.3 66.64 811.34 67.01 812.38 67.22C812.95 67.34 813.91 67.67 814.04 67.47C814.45 66.85 814.85 65.96 814.72 65.28C814.23 62.85 812.92 61.02 810.31 60.45C808.53 60.06 806.75 59.69 804.98 59.27C803.83 59 803.1 58.22 802.74 57.12C802.42 56.16 802.87 55.5 803.88 55.45C804.53 55.42 805.21 55.6 805.85 55.49C806.32 55.41 806.9 55.13 807.14 54.76C807.87 53.61 807.75 53.01 806.5 52.44C804.82 51.67 803.07 50.99 801.29 50.51C798.65 49.81 797.33 47.98 796.53 45.58C796 43.99 796.2 43.55 797.91 42.36C799.44 41.29 800.11 41.27 801.34 42.22C801.68 42.48 802.01 42.79 802.4 42.92C802.87 43.08 803.66 43.29 803.85 43.07C804.23 42.64 804.58 41.83 804.42 41.36C804.14 40.54 804.36 40.05 804.86 39.5C805.41 38.9 805.87 38.22 806.44 37.64C807.45 36.62 808.53 36.51 809.49 37.53C810.8 38.94 812.14 40.4 813.08 42.05C813.63 43.02 813.63 44.44 813.52 45.62C813.4 46.87 812.77 48.06 812.5 49.3C812.35 49.99 812.35 50.79 812.56 51.44C812.72 51.93 813.3 52.54 813.76 52.61C814.59 52.73 814.52 51.89 814.68 51.29C815.38 48.6 816.01 45.86 818.02 43.74C819.76 41.9 821.99 42.12 822.9 44.29C823.14 44.86 823.07 45.55 823.14 46.19C824.31 46.14 825.09 45.3 825.13 44.03C825.19 41.9 825.17 39.77 825.33 37.66C825.4 36.68 825.64 35.62 826.14 34.8C826.58 34.07 827.4 33.38 828.2 33.09C830.39 32.29 834.22 33.67 835.43 35.67C835.83 36.32 836.07 37.35 835.86 38.05C834.82 41.5 832.95 44.58 830.63 47.27C829.5 48.58 827.66 49.32 826.08 50.2C823.91 51.41 821.69 52.57 820.2 54.63C819.72 55.29 819.41 56.24 819.41 57.05C819.41 58.26 820.46 58.77 821.57 58.23C822.01 58.02 822.43 57.68 822.74 57.31C823.68 56.18 824.58 55.01 825.46 53.83C827.47 51.14 830.27 50.58 833.11 52.32C834.8 53.36 835.14 56.5 833.67 57.84C831.76 59.57 829.61 60.93 827.14 61.75C825.71 62.23 824.69 63.09 824.57 64.7C824.49 65.82 824.84 66.95 825.86 67.34C826.47 67.57 827.48 67.16 828.15 66.77C828.86 66.35 829.42 65.65 829.98 65.01C830.62 64.27 831.33 63.89 832.33 64.14C832.74 64.25 833.17 64.29 833.59 64.35C836.88 64.84 836.86 67.22 835.9 69.46C835.01 71.54 833.19 72.8 831.36 73.99C828.42 75.89 825.34 76.26 822.07 74.86C820.77 74.3 819.4 74.02 818 74.53C816.22 75.18 815.73 76.4 816.8 77.96C817.3 78.68 818.1 79.25 818.87 79.72C819.56 80.15 820.27 80.04 820.98 79.43C822.67 78 826.37 78.31 827.95 79.92C828.67 80.64 828.66 81.41 828.18 82.25C826.45 85.25 824.3 86.33 820.85 85.9C818.75 85.64 816.85 84.9 814.99 83.84C813.69 83.1 812.12 82.73 810.62 82.48C809.31 82.26 808.38 83.13 808.22 84.31C808.08 85.35 808.58 86.11 809.96 86.38C811.35 86.65 812.81 86.83 814.21 86.7C816.56 86.49 818.41 87.38 819.94 88.94C821.57 90.61 820.75 93.48 818.53 94.25C816.66 94.9 814.74 94.81 812.93 94.16C810.87 93.42 808.84 92.52 806.92 91.47C805.96 90.95 805.16 91.25 804.31 92.37C803.63 93.27 804.26 93.91 804.95 94.39C805.38 94.68 805.93 94.84 806.45 94.96C808.62 95.45 810.34 96.63 811.72 98.35C812.78 99.67 812.59 100.9 811.22 101.93C810.05 102.82 808.91 103.75 807.72 104.62C806.28 105.67 805.3 105.68 804.1 104.46C802.83 103.17 801.73 101.71 800.55 100.33C800.13 99.84 799.76 99.24 799.23 98.9C797.6 97.82 796.65 98.21 796.04 100.05C794.99 103.2 792.68 105.09 789.67 106.18C788.07 106.76 787.32 106.28 786.83 104.62C786.35 102.99 786.05 101.27 785.35 99.74C784.83 98.6 783.8 97.68 782.97 96.69C782.89 96.59 782.62 96.57 782.46 96.61C780.63 97.02 779.13 99.02 779.06 100.91C779.01 102.25 778.82 103.6 778.55 104.91C778.33 105.96 777.49 106.42 776.45 106.37C775.25 106.31 774.02 106.32 772.88 106.01C770.86 105.46 769.2 105.92 767.55 107.12C765.58 108.56 762.98 108.5 761.09 106.94C759.14 105.33 758.15 103.07 757.6 100.67C757.33 99.46 757.81 98.3 758.61 97.33C759.23 96.58 760.01 96.63 760.84 96.88C762.62 97.41 764.42 97.88 766.18 98.46C768.34 99.17 770.45 98.91 772.6 98.44C773.59 98.23 773.59 97.45 773.7 96.76C773.82 96.03 773.48 95.41 772.72 95.28C772.09 95.18 771.39 95.14 770.79 95.33C768.62 96.01 766.74 95.28 764.93 94.22C763.75 93.53 763.89 91.67 765.05 90.65C765.38 90.36 765.66 89.85 765.66 89.43C765.66 89.19 765.08 88.78 764.74 88.75C764.4 88.72 763.98 89.02 763.68 89.28C762.52 90.31 761.46 91.45 760.26 92.43C757.4 94.77 755.46 94.75 752.6 92.38C751.28 91.28 750.05 90.11 750.15 88.14C750.2 87.22 750.43 86.48 751.29 86.02C751.63 85.84 751.96 85.63 752.27 85.39C753.31 84.58 753.18 83.53 752 82.92C751.5 82.66 751.02 82.32 750.57 81.97C749.86 81.4 749.68 80.67 749.92 79.78C750.03 79.38 750.06 78.94 750.02 78.52C749.88 76.9 750.07 76.54 751.54 75.81C756.27 73.45 759.89 74.22 765.01 78.7C765.62 79.23 766.12 79.89 766.68 80.48C767.82 81.66 769.81 81.64 770.85 80.28H770.83Z" fill="#01409D"/>
<path fill-rule="evenodd" clip-rule="evenodd" d="M770.606 80.5579C769.656 81.5034 768.166 81.5716 767.101 80.8373C767.29 81.0525 767.484 81.2734 767.68 81.48C768.82 82.66 770.81 82.64 771.85 81.28H771.83C771.724 81.2161 771.618 81.1529 771.511 81.0901L771.37 81.0066C771.272 80.9492 771.175 80.892 771.077 80.835L770.935 80.7515L770.777 80.6589C770.72 80.6253 770.663 80.5916 770.606 80.5579ZM765.884 79.5899C765.606 79.2771 765.322 78.9715 765.01 78.7C759.89 74.22 756.27 73.45 751.54 75.81C750.07 76.54 749.88 76.9 750.02 78.52C750.06 78.94 750.03 79.38 749.92 79.78C749.68 80.67 749.86 81.4 750.57 81.97C750.713 82.081 750.858 82.191 751.007 82.2978C750.785 81.858 750.766 81.352 750.92 80.78C751.03 80.38 751.06 79.94 751.02 79.52C750.88 77.9 751.07 77.54 752.54 76.81C757.231 74.4694 760.83 75.2075 765.884 79.5899ZM752.925 83.8805C753.08 84.3766 752.869 84.9231 752.27 85.39C751.96 85.63 751.63 85.84 751.29 86.02C750.43 86.48 750.2 87.22 750.15 88.14C750.061 89.8882 751.02 91.0065 752.159 92.0048C751.518 91.2356 751.089 90.335 751.15 89.14C751.2 88.22 751.43 87.48 752.29 87.02C752.63 86.84 752.96 86.63 753.27 86.39C754.31 85.58 754.18 84.53 753 83.92C752.975 83.907 752.95 83.8938 752.925 83.8805ZM765.612 89.7531C765.518 90.0886 765.298 90.4316 765.05 90.65C763.89 91.67 763.75 93.53 764.93 94.22C765.032 94.2799 765.135 94.3388 765.238 94.3964C764.911 93.5425 765.219 92.3807 766.05 91.65C766.38 91.36 766.66 90.85 766.66 90.43C766.66 90.19 766.08 89.78 765.74 89.75C765.698 89.7463 765.656 89.7476 765.612 89.7531ZM773.71 96.2785C773.73 96.4293 773.727 96.5932 773.7 96.76C773.689 96.8309 773.679 96.9028 773.668 96.9749C773.58 97.6043 773.488 98.2516 772.6 98.44C770.45 98.91 768.34 99.17 766.18 98.46C765.038 98.0836 763.879 97.7536 762.72 97.4234C762.092 97.2448 761.465 97.0661 760.84 96.88C760.01 96.63 759.23 96.58 758.61 97.33C757.81 98.3 757.33 99.46 757.6 100.67C758.142 103.034 759.11 105.262 761.003 106.867C759.751 105.393 759.037 103.576 758.6 101.67C758.33 100.46 758.81 99.3 759.61 98.33C760.23 97.58 761.01 97.63 761.84 97.88C762.465 98.0661 763.092 98.2447 763.72 98.4234C764.879 98.7535 766.038 99.0837 767.18 99.46C769.34 100.17 771.45 99.91 773.6 99.44C774.488 99.2516 774.58 98.6043 774.668 97.9749C774.679 97.9028 774.689 97.8309 774.7 97.76C774.82 97.03 774.47 96.4085 773.71 96.2785ZM820.232 89.2872C820.145 89.1668 820.048 89.0508 819.94 88.94C818.41 87.38 816.56 86.49 814.21 86.7C812.81 86.83 811.35 86.65 809.96 86.38C809.702 86.3296 809.476 86.2621 809.278 86.179C809.468 86.7687 810.002 87.1925 810.96 87.38C812.35 87.65 813.81 87.83 815.21 87.7C817.209 87.5214 818.846 88.1386 820.232 89.2872ZM828.331 80.4194C828.24 80.2502 828.114 80.0838 827.95 79.92C826.37 78.31 822.67 78 820.98 79.43C820.27 80.04 819.56 80.15 818.87 79.72C818.524 79.5087 818.172 79.2771 817.843 79.0209C818.345 79.7122 819.122 80.2633 819.87 80.72C820.56 81.15 821.27 81.04 821.98 80.43C823.477 79.1635 826.55 79.2619 828.331 80.4194ZM836.176 65.8492C835.793 65.111 834.992 64.5588 833.59 64.35C833.495 64.3364 833.399 64.3238 833.303 64.3112C832.976 64.2682 832.647 64.225 832.33 64.14C831.33 63.89 830.62 64.27 829.98 65.01C829.914 65.0849 829.849 65.1605 829.783 65.2365C829.287 65.8099 828.777 66.3991 828.15 66.77C827.48 67.16 826.47 67.57 825.86 67.34C825.845 67.3342 825.83 67.3283 825.815 67.3222C826.021 67.7803 826.36 68.1489 826.86 68.34C827.47 68.57 828.48 68.16 829.15 67.77C829.777 67.3991 830.287 66.8099 830.783 66.2365L830.89 66.1132C830.92 66.0786 830.95 66.0442 830.98 66.01C831.62 65.27 832.33 64.89 833.33 65.14C833.647 65.225 833.976 65.2682 834.303 65.3112C834.398 65.3237 834.495 65.3365 834.59 65.35C835.243 65.4472 835.766 65.6189 836.176 65.8492ZM834.023 53.2674C833.787 52.8779 833.481 52.5483 833.11 52.32C830.27 50.58 827.47 51.14 825.46 53.83C824.58 55.01 823.68 56.18 822.74 57.31C822.43 57.68 822.01 58.02 821.57 58.23C821.173 58.4233 820.783 58.482 820.446 58.4223C820.641 59.3592 821.582 59.7108 822.57 59.23C823.01 59.02 823.43 58.68 823.74 58.31C824.68 57.18 825.58 56.01 826.46 54.83C828.449 52.1674 831.213 51.5917 834.023 53.2674ZM835.281 35.445C833.932 33.5684 830.307 32.3204 828.2 33.09C827.4 33.38 826.58 34.07 826.14 34.8C825.64 35.62 825.4 36.68 825.33 37.66C825.219 39.1217 825.195 40.5929 825.17 42.0672C825.159 42.721 825.148 43.3755 825.13 44.03C825.102 44.9273 824.704 45.6099 824.06 45.951C824.085 46.1577 824.093 46.3706 824.102 46.5838C824.11 46.7873 824.118 46.9911 824.14 47.19C825.31 47.14 826.09 46.3 826.13 45.03C826.148 44.3755 826.159 43.721 826.17 43.0672C826.195 41.5942 826.219 40.1204 826.33 38.66C826.4 37.68 826.64 36.62 827.14 35.8C827.58 35.07 828.4 34.38 829.2 34.09C830.903 33.4679 833.598 34.1641 835.281 35.445ZM822.648 43.7909C821.624 42.0977 819.616 42.0524 818.02 43.74C816.113 45.7517 815.448 48.3216 814.787 50.8774C814.751 51.015 814.716 51.1525 814.68 51.29C814.647 51.4118 814.624 51.5434 814.602 51.675C814.511 52.1914 814.422 52.7056 813.76 52.61C813.711 52.6026 813.662 52.5892 813.611 52.5706C813.82 53.0324 814.34 53.5461 814.76 53.61C815.422 53.7056 815.511 53.1914 815.602 52.675C815.624 52.5434 815.647 52.4118 815.68 52.29L815.729 52.0997L815.787 51.8774C816.448 49.3216 817.113 46.7517 819.02 44.74C820.191 43.5015 821.584 43.1963 822.648 43.7909ZM810.077 38.1653C809.882 37.9521 809.685 37.7405 809.49 37.53C808.53 36.51 807.45 36.62 806.44 37.64C806.125 37.9604 805.844 38.3112 805.562 38.6623C805.334 38.9468 805.106 39.2314 804.86 39.5C804.36 40.05 804.14 40.54 804.42 41.36C804.58 41.83 804.23 42.64 803.85 43.07C803.66 43.29 802.87 43.08 802.4 42.92C802.089 42.8164 801.816 42.5984 801.546 42.3825C801.478 42.3276 801.409 42.2727 801.34 42.22C800.11 41.27 799.44 41.29 797.91 42.36C796.2 43.55 796 43.99 796.53 45.58C797.05 47.1386 797.788 48.4569 798.966 49.3813C798.339 48.5913 797.884 47.6414 797.53 46.58C797 44.99 797.2 44.55 798.91 43.36C800.44 42.29 801.11 42.27 802.34 43.22C802.37 43.2432 802.401 43.2667 802.431 43.2906C802.469 43.3209 802.508 43.3517 802.546 43.3825C802.816 43.5984 803.089 43.8164 803.4 43.92C803.87 44.08 804.66 44.29 804.85 44.07C805.23 43.64 805.58 42.83 805.42 42.36C805.14 41.54 805.36 41.05 805.86 40.5C806.106 40.2318 806.334 39.9477 806.561 39.6637C806.843 39.3129 807.125 38.9601 807.44 38.64C808.308 37.7638 809.227 37.5591 810.077 38.1653ZM807.581 53.478C807.63 53.8235 807.474 54.2343 807.14 54.76C806.9 55.13 806.32 55.41 805.85 55.49C805.479 55.5538 805.094 55.52 804.709 55.4863C804.431 55.4618 804.153 55.4374 803.88 55.45C802.87 55.5 802.42 56.16 802.74 57.12C802.998 57.9093 803.447 58.5339 804.105 58.9235C803.957 58.6805 803.835 58.4115 803.74 58.12C803.42 57.16 803.87 56.5 804.88 56.45C805.153 56.4374 805.431 56.4618 805.709 56.4863C806.094 56.52 806.479 56.5538 806.85 56.49C807.32 56.41 807.9 56.13 808.14 55.76C808.854 54.6355 808.755 54.0369 807.581 53.478ZM813.517 62.4253C814.113 63.2154 814.5 64.187 814.72 65.28C814.85 65.96 814.45 66.85 814.04 67.47C813.943 67.6186 813.388 67.4746 812.876 67.3415C812.699 67.2955 812.526 67.2508 812.38 67.22C812.028 67.1489 811.676 67.0594 811.323 66.9699C810.635 66.795 809.944 66.6197 809.25 66.58C808.22 66.53 807.8 67.16 807.95 68.19C808.01 68.6 808.14 69.03 808.36 69.38C808.85 70.17 808.46 70.5 807.77 70.74C807.275 70.9121 806.869 70.9538 806.519 70.8362C807.088 71.8884 807.731 72.1009 808.77 71.74C809.46 71.5 809.85 71.17 809.36 70.38C809.14 70.03 809.01 69.6 808.95 69.19C808.8 68.16 809.22 67.53 810.25 67.58C810.944 67.6197 811.635 67.795 812.323 67.9699C812.675 68.0594 813.028 68.149 813.38 68.22C813.526 68.2508 813.698 68.2954 813.875 68.3413C814.388 68.4744 814.943 68.6186 815.04 68.47C815.45 67.85 815.85 66.96 815.72 66.28C815.394 64.6659 814.707 63.3165 813.517 62.4253ZM803.72 66.7276C802.353 65.0851 800.495 64.1431 797.94 64.15C796.88 64.15 796.18 64.58 795.7 65.49C794.543 67.6659 795.049 70.1157 797.033 71.6397C795.914 70.1605 795.771 68.237 796.7 66.49C797.18 65.58 797.88 65.15 798.94 65.15C800.92 65.1446 802.481 65.709 803.72 66.7276ZM801.714 75.2035C802.247 76.0504 802.319 77.107 801.91 77.97C801.25 79.37 800.01 79.59 798.82 78.67C797.98 78.02 797.01 77.49 796.02 77.09C795.66 76.94 794.86 77.17 794.65 77.49C793.73 78.86 794.3 82.02 795.63 83.01C795.744 83.0956 795.859 83.1796 795.974 83.2624C795.14 81.9116 794.9 79.6064 795.65 78.49C795.86 78.17 796.66 77.94 797.02 78.09C798.01 78.49 798.98 79.02 799.82 79.67C801.01 80.59 802.25 80.37 802.91 78.97C803.46 77.81 803.14 76.3 802 75.42C801.905 75.347 801.81 75.2748 801.714 75.2035ZM800.084 86.2734C800.417 86.7992 800.56 87.4223 800.46 88.18C800.082 91.0077 796.719 94.1031 793.857 94.2976C793.641 95.002 793.997 95.3478 794.82 95.3C797.69 95.13 801.08 92.02 801.46 89.18C801.631 87.8755 801.086 86.97 800.084 86.2734ZM793.711 86.6863C792.374 84.7657 789.978 84.5685 787.99 86.44C787.522 86.8742 787.191 87.4606 786.869 88.0326C786.812 88.1325 786.756 88.2319 786.7 88.33C786.541 88.6096 786.416 88.9102 786.291 89.2098C786.116 89.6281 785.942 90.0446 785.68 90.4L785.575 90.5444C784.836 91.5666 784.042 92.6655 782.6 92.57C782.141 92.5386 781.756 92.4075 781.425 92.2065C781.919 92.9349 782.578 93.5002 783.6 93.57C785.042 93.6655 785.836 92.5666 786.575 91.5444L786.68 91.4C786.942 91.0446 787.116 90.6281 787.291 90.2098C787.416 89.9102 787.541 89.6096 787.7 89.33C787.756 89.2319 787.812 89.1325 787.869 89.0326C788.191 88.4608 788.522 87.8741 788.99 87.44C790.548 85.9728 792.358 85.777 793.711 86.6863ZM788.712 76.208C787.129 74.0287 783.848 73.6171 781.82 75.5C781.673 75.6348 781.534 75.7749 781.396 75.9143C781.207 76.106 781.018 76.2963 780.81 76.47C779.79 77.32 778.73 78.12 777.31 78.06L777.278 78.0584L777.254 78.057C777.06 78.6871 777.415 79.0197 778.31 79.06C779.73 79.12 780.79 78.32 781.81 77.47C782.018 77.2963 782.207 77.1059 782.396 76.9143C782.534 76.7749 782.673 76.6348 782.82 76.5C784.484 74.9552 786.991 74.9549 788.712 76.208ZM792.45 56.5835C791.599 55.1736 789.843 54.7799 788.51 55.77C787.9 56.22 787.25 56.79 786.95 57.45C786.36 58.77 785.9 60.18 785.57 61.6C785.33 62.63 784.86 63.4 783.95 63.86C783.06 64.31 782.13 64.71 781.19 65.05C780.88 65.1626 780.61 65.1983 780.377 65.1651C780.678 66.0235 781.245 66.3926 782.19 66.05C783.13 65.71 784.06 65.31 784.95 64.86C785.86 64.4 786.33 63.63 786.57 62.6C786.9 61.18 787.36 59.77 787.95 58.45C788.25 57.79 788.9 57.22 789.51 56.77C790.434 56.0836 791.562 56.0623 792.45 56.5835ZM791.775 39.3625C791.064 38.617 790.311 37.9007 789.52 37.25C788.63 36.52 787.54 36.11 786.38 36.67C784.5 37.57 783.82 40.22 784.78 42.06C785.15 42.77 785.32 43.77 785.15 44.55C784.89 45.78 784.35 46.97 783.78 48.11C783.323 49.0233 782.67 49.7308 781.755 50.239C781.756 50.2763 781.758 50.3133 781.76 50.35C781.773 50.6119 781.679 50.8828 781.557 51.2293C781.498 51.3984 781.432 51.5872 781.37 51.8C783.05 51.32 784.12 50.43 784.78 49.11C785.35 47.97 785.89 46.78 786.15 45.55C786.32 44.77 786.15 43.77 785.78 43.06C784.82 41.22 785.5 38.57 787.38 37.67C788.54 37.11 789.63 37.52 790.52 38.25C790.95 38.6034 791.368 38.9762 791.775 39.3625ZM779.423 45.8699C778.882 45.2747 778.281 44.7236 777.67 44.21C777.32 43.91 776.28 43.82 776.06 44.07L775.967 44.178C775.301 44.9499 774.48 45.901 774.48 46.77C774.5 50.17 774.75 53.59 775.96 56.83C776.38 57.96 776.2 58.97 775.5 59.89C774.96 60.6061 774.31 60.8521 773.713 60.6003C773.778 60.6979 773.844 60.7944 773.91 60.89C774.66 61.98 775.7 61.95 776.5 60.89C777.2 59.97 777.38 58.96 776.96 57.83C775.75 54.59 775.5 51.17 775.48 47.77C775.48 46.901 776.301 45.9499 776.967 45.178L777.06 45.07C777.28 44.82 778.32 44.91 778.67 45.21C778.924 45.4234 779.176 45.6432 779.423 45.8699ZM766.37 77.01C766.59 77.4437 766.997 77.8017 767.434 78.1256C767.411 78.0877 767.39 78.0491 767.37 78.01C766.6 76.49 766.97 75.81 768.56 75.22C768.647 75.1874 768.737 75.1567 768.827 75.1259C769.152 75.0147 769.483 74.9014 769.71 74.69C769.96 74.4472 770.133 74.1278 770.307 73.8084C770.376 73.6807 770.446 73.5529 770.52 73.43C770.379 73.344 770.239 73.2401 770.1 73.1366C769.858 72.9557 769.617 72.7759 769.369 72.6942C769.348 72.7321 769.328 72.7701 769.307 72.8082C769.133 73.1276 768.96 73.4471 768.71 73.69C768.483 73.9013 768.152 74.0147 767.827 74.1259C767.737 74.1567 767.647 74.1874 767.56 74.22C765.97 74.81 765.6 75.49 766.37 77.01ZM749.21 68.66C749.518 69.0043 749.839 69.3223 750.171 69.616C749.233 68.5456 748.641 67.2917 749.42 65.96C750.29 64.46 751.32 62.89 753.42 63.11C754.227 63.1907 755.023 63.3678 755.821 63.5456C756.309 63.6541 756.797 63.7628 757.29 63.85C757.66 63.92 758.35 63.95 758.4 63.81C758.54 63.42 758.57 62.88 758.4 62.5C758.225 62.1088 757.898 61.7731 757.58 61.4466L757.49 61.3544C757.456 61.3196 757.423 61.2848 757.39 61.25C756.35 60.16 756.1 58.9 756.62 57.5C757.13 56.15 758.02 55.65 759.44 55.9C761.387 56.2501 763.112 56.9211 764.498 58.0866C762.984 56.2873 760.888 55.3402 758.44 54.9C757.02 54.65 756.13 55.15 755.62 56.5C755.1 57.9 755.35 59.16 756.39 60.25C756.452 60.3154 756.516 60.3808 756.58 60.4466C756.898 60.7731 757.225 61.1088 757.4 61.5C757.57 61.88 757.54 62.42 757.4 62.81C757.35 62.95 756.66 62.92 756.29 62.85C755.797 62.7628 755.309 62.6541 754.821 62.5456C754.023 62.3678 753.227 62.1907 752.42 62.11C750.32 61.89 749.29 63.46 748.42 64.96C747.63 66.31 748.25 67.58 749.21 68.66ZM766.564 60.6817C766.603 60.7568 766.642 60.8329 766.68 60.91C766.797 61.1447 767.02 61.327 767.238 61.5062C767.291 61.5498 767.344 61.5932 767.395 61.6372C767.438 61.6743 767.48 61.7117 767.52 61.75C767.588 61.6397 767.667 61.5326 767.745 61.4255C767.909 61.2025 768.072 60.98 768.14 60.73C768.797 58.3083 767.936 55.8118 766.003 54.2627C767.213 55.7767 767.67 57.7776 767.14 59.73C767.072 59.9799 766.909 60.2025 766.745 60.4254C766.683 60.5103 766.621 60.5952 766.564 60.6817ZM753.64 46.99C752.517 48.6009 752.707 49.7203 754.18 50.7539C753.716 49.9776 753.866 49.1006 754.64 47.99C755.31 47.03 756.22 46.19 757.15 45.47C757.86 44.92 757.86 44.46 757.44 43.82C757.33 43.6528 757.215 43.487 757.099 43.321C756.792 42.8812 756.483 42.4391 756.28 41.96C756.09 41.51 755.97 40.83 756.18 40.44C756.57 39.71 757.12 39.02 758.2 39.25C759.033 39.4291 759.876 39.5465 760.722 39.6643C761.104 39.7175 761.487 39.7709 761.87 39.83C762.459 39.9162 762.984 40.0965 763.435 40.384C762.847 39.4804 761.971 38.9911 760.87 38.83C760.487 38.7709 760.104 38.7175 759.722 38.6643C758.876 38.5465 758.033 38.4291 757.2 38.25C756.12 38.02 755.57 38.71 755.18 39.44C754.97 39.83 755.09 40.51 755.28 40.96C755.483 41.439 755.792 41.8812 756.099 42.3209C756.215 42.487 756.33 42.6528 756.44 42.82C756.86 43.46 756.86 43.92 756.15 44.47C755.22 45.19 754.31 46.03 753.64 46.99Z" fill="#009AFC"/>
</g>
<defs>
<filter id="filter0_i_37_2" x="981.092" y="-0.0213623" width="80.5911" height="124.069" filterUnits="userSpaceOnUse" color-interpolation-filters="sRGB">
<feFlood flood-opacity="0" result="BackgroundImageFix"/>
<feBlend mode="normal" in="SourceGraphic" in2="BackgroundImageFix" result="shape"/>
<feColorMatrix in="SourceAlpha" type="matrix" values="0 0 0 0 0 0 0 0 0 0 0 0 0 0 0 0 0 0 127 0" result="hardAlpha"/>
<feOffset dx="1" dy="1"/>
<feComposite in2="hardAlpha" operator="arithmetic" k2="-1" k3="1"/>
<feColorMatrix type="matrix" values="0 0 0 0 0 0 0 0 0 0.603922 0 0 0 0 0.988235 0 0 0 0.75 0"/>
<feBlend mode="normal" in2="shape" result="effect1_innerShadow_37_2"/>
</filter>
<linearGradient id="paint0_linear_37_2" x1="640" y1="87.1" x2="640" y2="168.4" gradientUnits="userSpaceOnUse">
<stop stop-color="#00409D"/>
<stop offset="1" stop-color="#003779"/>
</linearGradient>
<clipPath id="clip0_37_2">
<rect width="1280" height="168.4" fill="white"/>
</clipPath>
</defs>
</svg>
