<?xml version="1.0" encoding="UTF-8"?>
<svg id="Layer_2" xmlns="http://www.w3.org/2000/svg" viewBox="0 0 1280 168.4">
  <defs>
    <style>
      .cls-1 {
        fill: #003179;
      }

      .cls-2 {
        fill: #009afc;
      }
    </style>
  </defs>
  <g id="Layer_23">
    <path class="cls-1" d="M1280,151.13v17.27H0v-17.27c174.71-40.04,391.82-64.03,634.39-64.03s470.9,23.99,645.61,64.03Z"/>
    <path class="cls-2" d="M261.25,50.27c-1.65-9.23-3.37-18.45-2.89-27.89.12-2.35.31-4.72.72-7.04.25-1.47.8-2.94,1.49-4.26,1.01-1.93,3.27-2.13,4.79-.56,1.09,1.12,1.59,2.52,1.51,4.04-.22,4.2-.53,8.4-.8,12.6-.08,1.26-.19,2.52-.21,3.78-.01,1.26.82,1.74,1.8.96.59-.47,1.1-1.2,1.35-1.91.45-1.26.64-2.61,1.02-3.91.21-.71.4-1.6.92-2.01.62-.49,1.63-.86,2.36-.72.66.13,1.54.98,1.64,1.62.23,1.47.28,3.04-.01,4.49-.49,2.46-1.51,4.83-3.29,6.61-3.04,3.02-3.75,6.59-2.99,10.59.34,1.78.8,3.54,1.34,5.27.53,1.69,1.82,2.08,3.24,1.03,2.1-1.53,3.37-3.61,3.93-6.15.32-1.44.59-2.89,1.02-4.3.49-1.6,1.69-2.5,3-2.43,1.09.05,1.99.96,2.29,2.67.91,5.25-.12,10.01-3.98,13.88-1.09,1.1-2.37,2.03-3.64,2.92-1.94,1.37-2.79,3.11-2.85,5.56-.09,3.48-.63,6.94-1.01,10.41-.08.71-.34,1.4-.43,2.1-.16,1.25.53,1.93,1.77,1.83,2.47-.19,4.13-1.51,4.83-3.97.35-1.21.49-2.48.78-3.71.62-2.63,1.68-4.92,4.39-6.1,3.26-1.42,6.55.71,6.42,4.28-.11,3.06-1.41,5.71-3.01,8.22-3.66,5.74-9.19,8.54-15.68,9.62-3.45.57-6.98.67-10.43,1.24-4.63.76-7.67,4.2-7.95,8.71-.07,1.17-.11,2.38.06,3.54.56,3.8,1.18,7.58,1.85,11.36.3,1.68-.08,2.73-1.65,3.38-2.77,1.15-5.48,1.41-7.88-.91-.18-.18-.42-.29-.58-.48-3.08-3.62-7.17-3.59-11.4-3.24-2.6.21-5.21.3-7.82.32-.76,0-1.56-.36-2.28-.67-.97-.42-1.48-1.23-1.5-2.3-.03-1.1.31-2.16,1.38-2.47,1.21-.34,2.55-.46,3.81-.38,1.21.08,2.5.4,3.24-.74.78-1.2-.17-2.28-.85-3.19-1.15-1.55-2.89-2.26-4.73-2.35-2.05-.1-4.15-.02-6.17.3-3.3.52-6.58.52-9.8-.22-1.47-.34-2.94-1.09-4.17-1.99-2.22-1.63-2.04-4.2.22-5.8,1.52-1.07,3.22-1.51,5.04-1.11,2.18.47,4.33,1.07,6.51,1.58,1.72.4,3.45.75,5.18,1.08.44.08,1.01.13,1.36-.07.76-.45,1.7-.95,2.01-1.66.18-.42-.57-1.59-1.17-1.91-1.34-.72-2.82-1.34-4.31-1.59-3.62-.59-7.27-.96-10.91-1.38-3.02-.34-5.23-1.92-6.59-4.55-2.54-4.93-6.26-8.51-11.32-10.77-1.26-.56-2.44-1.36-3.55-2.19-1.78-1.32-2.32-3.33-1.6-5.42.6-1.76,2.04-2.61,4.24-2.79,4.8-.4,8.24,2.1,11.52,5.12,3.63,3.34,5.91,7.51,7.74,12.02.52,1.29,1.44,2.45,2.33,3.55.77.94,1.9,1.15,2.98.52,1.09-.63.82-1.7.48-2.61-.55-1.45-1.08-2.95-1.89-4.26-1.94-3.14-3.11-6.53-3.89-10.1-.88-4.06-2.77-5.55-6.9-6.17-3.4-.51-6.75-1.36-10.1-2.17-2.12-.51-2.69-3.11-1.91-4.64.83-1.61,2.92-2.12,4.75-1.15.19.1.39.19.54.32,2.97,2.58,6.62,3.21,10.34,3.58.51.05,1.33-.13,1.51-.48.28-.5.36-1.39.08-1.85-.43-.71-1.16-1.32-1.9-1.74-4.12-2.32-7.98-4.93-10.6-9-1.34-2.07-2.43-4.25-2.74-6.74-.25-2.02.51-3.37,2.23-4.08,1.64-.67,3.06-.27,4.26,1.46,1.37,1.97,2.56,4.06,3.9,6.05,1.13,1.68,2.33,3.3,3.54,4.93,1.29,1.74,2.98,2.99,4.96,3.81,4.72,1.96,6.48,5.8,6.61,10.57.07,2.86-.23,5.73-.19,8.59.01.76.48,1.72,1.05,2.23.75.67,1.62.04,2.25-.53,3.42-3.15,5.04-7.04,4.49-11.68-.49-4.2-2.39-7.44-6.14-9.78-3.39-2.11-6.43-4.76-9.59-7.23-.72-.56-1.31-1.32-1.88-2.04-1.06-1.34-1.59-2.81-.72-4.45.79-1.48,2.89-2.42,4.69-2.09.69.13,1.38.39,2,.72,3.82,2.05,6.46,5.21,8.36,9.05.5,1.02,1.06,2.02,1.65,2.99.45.73,1.12,1.2,2.02.93.92-.28,1.17-1.06,1.13-1.91-.12-2.45-1.13-4.58-2.63-6.45-1-1.24-2.18-2.35-3.33-3.46-3.65-3.53-7.03-7.29-9.58-11.71-.71-1.24-1.24-2.58-1.77-3.91-.44-1.1-.6-2.29.4-3.17,1.01-.89,2.26-1.14,3.54-.58.49.22,1.03.49,1.37.88,4.94,5.75,10.08,11.36,13.94,17.95.92,1.56,1.72,3.19,2.69,4.72.93,1.46,2.06,1.5,2.73-.05.51-1.17.67-2.6.58-3.89-.2-2.87-1.14-5.52-3.02-7.78-3.23-3.9-5.52-8.29-6.46-13.28-.46-2.44-.68-4.94-.78-7.42-.04-1.03.29-2.21.81-3.11,1.13-1.93,3.39-1.9,4.68-.07,2.26,3.21,3.65,6.8,4.74,10.56,1.43,4.93,2.47,10.01,4.84,14.63.48.94.92,2.08,2.22,1.9,1.3-.18,1.57-1.35,1.81-2.46.6-2.85-.13-5.55-1.48-7.93-2.79-4.9-2.27-9.97-1.32-15.13.08-.45.25-.89.44-1.31.5-1.13,1.35-1.87,2.63-1.82,1.27.05,1.74,1.08,2.11,2.08.91,2.45.63,4.99.54,7.52-.06,1.52-.21,3.03-.23,4.55-.01.79.07,1.62.31,2.37.16.5.66.89,1.01,1.33.34-.43.78-.81.98-1.29.3-.73.4-1.55.63-2.31.16-.52.34-1.05.59-1.53.69-1.34,1.99-2.14,3.01-1.89.92.23,1.92,1.57,1.77,2.94-.18,1.6-.66,3.18-1.12,4.74-.71,2.37-1.71,4.67-2.22,7.08-.59,2.79.02,5.53,1.33,8.09,2.1,4.1,3.64,8.37,3.4,13.07-.08,1.5-.29,3.05-.79,4.46-1.32,3.75-1.67,7.54-1.22,11.46.39,3.48-.03,6.9-.88,10.28-.48,1.88-.94,3.76-1.38,5.65-.19.78-.39,1.56-.46,2.35-.1,1.11-.48,2.35.68,3.14,1.2.81,2.42.25,3.46-.35,5.36-3.1,8.25-7.9,9.34-13.9.61-3.37-.16-6.63-.77-9.91-.61-3.23-1.58-6.5-2.14-9.65ZM241.46,91.35c-.49-2.18-.99-4.22-1.4-6.29-1.4-7.17-6.57-11.02-12.49-14.16-1.58-.84-2.49-.33-3.17,1.31-.81,1.95-.55,3.88.12,5.8,1.01,2.89,2.98,5.06,5.26,6.98,1.97,1.66,3.65,3.59,4.52,5.99,1.33,3.68,2.43,7.45,3.55,11.2.52,1.73,1.4,2.67,2.67,2.51,1.08-.13,1.8-1.19,1.7-2.99-.19-3.49-.51-6.98-.77-10.36ZM233.88,64.96c.73,1.22,1.38,2.76,2.43,3.94,1.13,1.26,2.61,2.24,4.01,3.24.78.56,1.67.98,2.57,1.33,1.05.42,1.99.08,2.37-1,.32-.93.52-1.96.53-2.94.03-3.44-1.33-6.36-3.45-9.01-1.31-1.64-2.65-3.31-3.62-5.15-2.44-4.67-1.5-9.04,2.48-12.41,1.3-1.11,1.99-2.49,2.03-4.18.02-1.01-.02-2.02-.11-3.03-.07-.86-.26-1.73-1.34-1.87-1.07-.14-1.44.68-1.8,1.46-.09.19-.16.39-.21.6-.78,3.09-2.42,5.71-4.29,8.24-.53.71-.8,1.75-.85,2.66-.17,3.24-.17,6.48-.29,9.72-.1,2.69-.29,5.37-.46,8.42ZM249.95,45.1c-.43-.58-.81-1.21-1.33-1.69-.12-.12-.79.17-1.07.43-1.28,1.16-1.98,4.44-1.25,6.01.21.45.68,1,1.09,1.05.4.05,1.02-.37,1.3-.75,1.05-1.46,1.32-3.14,1.25-5.05Z"/>
    <path class="cls-2" d="M1021.58,20.26c-.15,1.37.2,2.89.67,4.22.82,2.29,2.77,2.69,4.22.74,1.24-1.66,2.12-3.66,2.84-5.62.9-2.45,1.4-5.06,2.25-7.53.33-.98,1.03-1.91,1.76-2.66.95-.98,2.22-.99,3.41-.42,1.23.59,1.65,1.75,1.39,2.97-.63,2.96-1.28,5.92-2.16,8.81-3.35,11.07-8.72,21.09-15.86,30.18-1.87,2.38-3.79,4.73-5.41,7.27-4.08,6.38-3.88,12.81.31,19.07,2.77,4.14,5.59,8.24,7,13.1.16.55.49,1.07.81,1.56.9,1.36,2.3,1.66,3.62.71,2.02-1.46,3.11-3.51,3.29-5.98.26-3.71-1.19-6.88-3.33-9.8-1.36-1.86-2.92-3.61-3.96-5.64-2.11-4.11-2.05-8.46.06-12.53,1.51-2.91,3.46-5.59,5.35-8.28.66-.93,1.5-1.75,2.45-2.43.91-.65,2.13-.72,3.02.18.87.88,1.21,1.95.53,3.08-.83,1.39-1.8,2.71-2.63,4.1-1.07,1.77-2.16,3.54-3.05,5.4-.41.85-.48,1.93-.48,2.9-.01,1.72.59,3.28,2.24,4.03,1.67.76,3.33.38,4.71-.76,4.4-3.65,7.63-11.58,5.63-16.98-.56-1.51-.75-3.33-.53-4.93.57-4.11,1.38-8.2,2.31-12.25.21-.92,1.17-1.85,2.03-2.39,2.03-1.29,4.31-.02,4.22,2.4-.09,2.39-.5,4.76-.78,7.14-.24,2.02-.58,4.03-.7,6.05-.07,1.18-.08,2.56,1.4,3.07,1.05.36,2.21-.46,2.93-2.1.45-1.02.73-2.13,1.01-3.22.94-3.68,1.84-7.37,2.76-11.05.08-.3.21-.6.35-.88.87-1.63,2.97-2.7,4.52-2.32,1.28.31,2.13,1.6,1.85,3.79-.44,3.39-.96,6.81-1.88,10.1-2.57,9.15-7.82,16.58-15.02,22.73-2.12,1.81-4.14,3.8-5.93,5.93-2.03,2.43-2.74,5.27-1.36,8.35,1.33,2.98,4.46,3.49,6.41.9.95-1.26,1.59-2.82,2.12-4.34.68-1.96.94-4.07,1.7-5.99.48-1.2,1.47-2.24,2.38-3.2.85-.91,2.04-1.29,3.23-.74,1.17.54,1.53,1.69,1.68,2.91.35,2.73-.4,5.28-1.23,7.83-1.94,5.95-6.15,9.94-11.15,13.37-5.74,3.94-11.46,7.94-16.92,12.25-3.61,2.84-7,6.12-8.61,10.62-.93,2.57-1.51,5.29-2,7.99-.25,1.37-.76,2.21-2.1,2.06-2.04-.22-4.07-.59-6.07-1.04-.99-.22-1.24-1.07-.99-2.05.88-3.46,1.72-6.94,2.63-10.39.64-2.45.22-3.74-1.87-5.27-3.27-2.4-6.4-4.99-8.02-8.82-.83-1.97-1.31-4.12-1.68-6.23-.28-1.62.33-3.12,1.75-4.16,1.66-1.22,3.43-.71,4.08,1.24.34,1.03.42,2.15.84,3.14,1.11,2.61,2.21,5.24,3.57,7.71.94,1.7,2.53,3.08,4.66,2.54,2.1-.54,2.36-2.6,2.53-4.39.45-4.73-1.44-8.57-4.88-11.68-4.56-4.11-9.71-7.34-15.26-9.97-4.21-1.99-8.02-4.57-10.75-8.45-1.99-2.83-2.94-6.04-2.08-9.39,1.57-6.12,3.43-12.17,5.26-18.23.42-1.4,1.38-2.54,2.81-3.15,1.97-.84,3.67.02,3.63,2.13-.04,2.05-.46,4.13-.98,6.12-1,3.85-2.26,7.63-3.28,11.47-1.05,3.98,0,7.41,3.06,10.21,3.1,2.83,6.59,1.89,7.35-2.25.47-2.53.51-5.25.13-7.79-1.1-7.32.15-14.43,1.5-21.54.39-2.05,1.93-3.1,3.88-3.5,1.61-.33,2.69.31,2.74,1.96.08,2.52-.11,5.05-.3,7.56-.17,2.16-.55,4.3-.75,6.46-.07.75.04,1.55.24,2.28.6,2.26,2.4,2.87,4.23,1.41,2.06-1.65,3.52-3.8,4.28-6.31,1.46-4.78,1.58-9.66.14-14.44-1.54-5.12-1.84-10.17-.35-15.35.99-3.43,1.58-6.97,2.65-10.36.38-1.22,1.45-2.44,2.54-3.16.77-.5,2.19-.43,3.15-.1,1.21.41,1.34,1.71,1.19,2.9-.21,1.57-.45,3.14-.7,4.7-.18,1.12-.39,2.23-.59,3.34s-1.34,6.01-1.66,9.06Z"/>
    <path class="cls-2" d="M433.86,110.07c-3.15-.07-5.98,0-8.8-.21-4.02-.3-7.15-2.42-9.83-5.28-.8-.86-1.54-1.79-2.24-2.73-1.21-1.64-2.74-2.92-4.45-3.99-1.99-1.25-4.05-2.43-5.96-3.8-3.49-2.5-5.65-5.91-6.38-10.17-.08-.44-.11-.9-.12-1.35-.02-.97.35-1.53,1.11-1.74.81-.23,1.73.12,2.13.88.26.5.46,1.06.59,1.61,1.03,4.3,3.4,7.64,7.06,10.09.29.19.6.37.91.52.55.27,1.14.5,1.69.05.6-.49.79-1.18.61-1.9-.16-.65-.41-1.3-.73-1.88-1.95-3.49-4.15-6.8-7.15-9.49-.64-.58-1.44-.99-2.19-1.44-1-.61-2.05-1.16-3.04-1.78-.9-.57-1.32-1.49-1.58-2.47-.22-.81.09-1.56.72-1.88.82-.41,1.83-.24,2.3.48.31.47.43,1.07.74,1.55.32.49.7.98,1.16,1.31.28.2.87.25,1.15.07.22-.14.32-.74.24-1.07-.25-.99-.56-1.98-.95-2.92-.35-.85-.91-1.62-1.26-2.47-.32-.79-.66-1.65-.69-2.48-.07-1.63,1.47-2.5,2.77-1.53.79.59,1.47,1.45,1.94,2.33,1.58,2.96,2.58,6.13,3.07,9.45.21,1.39.74,2.65,1.55,3.79.88,1.25,1.75,2.51,2.68,3.72,1.5,1.97,2.42,4.16,2.96,6.58.52,2.34,1.16,4.69,2.52,6.71.63.94,1.45,1.77,2.26,2.58.45.45,1.09.67,1.73.39.69-.3.91-.96.84-1.63-.09-.86-.2-1.76-.51-2.56-1.1-2.76-2.39-5.46-3.44-8.24-1.68-4.45-3.24-8.94-4.83-13.42-1.26-3.56-2.72-6.99-5.21-9.91-1.43-1.67-2.42-3.61-3.02-5.74-.13-.46-.21-.93-.24-1.4-.09-1.19.6-2.16,1.63-2.37,1.26-.26,2.27.27,2.66,1.5.31.98.49,1.99.73,2.99.38,1.56,1.06,2.95,2.19,4.13,1.95,2.05,3.24,4.5,4.1,7.18.15.47.34.95.6,1.37.37.61.93.66,1.32.07.27-.41.44-.96.47-1.45.06-1.17,0-2.35-.02-3.53-.05-2.46-.87-4.65-2.35-6.61-3.18-4.2-4.25-8.99-3.94-14.15.12-1.95,1.9-2.9,3.41-1.9.69.46.94,1.16.96,1.94.06,1.93.01,3.86.15,5.79.09,1.29.42,2.56.65,3.84.02.1.04.22.1.28.32.32.63.82,1,.88.24.04.71-.5.88-.87,1.07-2.45,1.22-5.04.94-7.66-.03-.32-.15-.63-.2-.96-.17-.98.34-1.81,1.27-2.11.91-.28,1.97.11,2.18,1.07.25,1.1.36,2.29.23,3.4-1.03,9.11-2.16,18.2-3.18,27.31-.34,3.06-.08,6.11.85,9.07.17.55.5,1.11.89,1.54.55.61,1.26.49,1.68-.22.2-.34.34-.72.46-1.1,1.18-3.75,2.34-7.5,3.53-11.25.58-1.82.31-3.68.26-5.52-.06-2.18-.24-4.36-.22-6.53.02-1.7.31-3.39.42-5.09.15-2.3-.18-4.55-.79-6.77-.12-.43-.23-.88-.24-1.33-.01-.52,0-1.06.15-1.55.27-.88,1.1-1.5,1.8-1.48.7.02,1.4.52,1.53,1.52.22,1.68.21,3.38.29,5.07.02.42-.04.86.03,1.27.16,1.08,1.05,1.46,1.93.81,1.11-.82,1.75-1.98,2.23-3.24.6-1.58.65-3.23.64-4.89,0-1.32-.13-2.66.56-3.89.62-1.1,1.62-1.61,2.74-1.38,1.09.23,1.71.94,1.7,2.32-.02,1.72-.16,3.45-.32,5.17-.27,2.93.07,5.81.55,8.68.21,1.24.42,2.47.71,3.69.11.44.41,1.06.74,1.15.35.09.94-.25,1.26-.57,1-1,1.51-2.3,1.78-3.67.54-2.72.83-5.44-.21-8.15-.22-.58-.27-1.29-.18-1.9.13-.94.82-1.45,1.73-1.65.9-.19,1.62.13,2.06.89.35.6.67,1.26.78,1.93.7,4.39.44,8.66-1.89,12.59-.76,1.29-1.76,2.44-2.59,3.68-.37.56-.69,1.17-.9,1.8-.26.78.11,1.27.92,1.21.63-.05,1.3-.21,1.86-.49,3.55-1.75,5.72-4.59,6.61-8.45.15-.65.39-1.29.71-1.87.3-.55.85-.75,1.49-.59.64.16,1.27.41,1.33,1.14.06.78.05,1.6-.12,2.37-.76,3.63-2.92,6.36-5.9,8.4-1.58,1.08-3.33,1.94-5.08,2.71-4.15,1.84-7.3,4.63-8.91,8.95-1.13,3.04-1.22,6.17-.66,9.33.11.64.4,1.23,1.13,1.34.7.11,1.15-.33,1.43-.89.35-.69.64-1.41.89-2.14,1.19-3.42,2.9-6.46,6.08-8.41,1.21-.74,2.53-1.31,3.81-1.95,3.12-1.56,4.99-4.08,5.83-7.43.3-1.21.61-2.44,1.06-3.6.25-.64.74-1.22,1.24-1.71.48-.47,1.14-.5,1.75-.14.59.35.78.95.67,1.56-.28,1.7-.5,3.43-.99,5.07-1.02,3.47-3.14,6.02-6.4,7.77-4.31,2.32-7.48,5.76-9.05,10.5-.79,2.39-2.01,4.52-3.74,6.36-.87.92-1.4,2.01-1.42,3.31-.03,1.57,1.25,2.57,2.77,2.14,1.67-.47,2.95-1.44,3.76-3.01.56-1.09,1.11-2.19,1.7-3.26,1.16-2.1,2.59-3.99,4.44-5.54,2.59-2.17,4.27-4.93,5.43-8.07.42-1.14,1.04-2.22,1.71-3.24.4-.61,1.02-1.11,1.63-1.53.94-.64,2.02-.16,2.1.97.07.91-.03,1.86-.23,2.75-.75,3.33-2.31,6.24-4.8,8.6-2.36,2.23-4.16,4.86-5.58,7.77-.73,1.51-1.53,2.99-2.44,4.4-1.19,1.85-2.87,3.19-5.03,3.71-3.36.81-6.74,1.48-9.85,2.14ZM437.45,58.74c-.24-1.46-.45-2.92-.73-4.37-.2-1.06-.68-1.26-1.64-.74-1.76.95-2.68,2.47-3.12,4.38-.58,2.53-.5,5.08-.24,7.63.38,3.82-.28,7.46-1.67,11.03-1.12,2.86-2.15,5.77-2.98,8.73-.89,3.19-1.07,6.48-.3,9.74.17.7.57,1.39,1.04,1.95.75.91,1.81.9,2.48-.07.5-.72.89-1.58,1.07-2.43.45-2.23.36-4.48.08-6.73-.24-1.94-.53-3.91-.41-5.84.27-4.31,1.85-8.24,4.06-11.9,2.13-3.54,3.09-7.26,2.35-11.37Z"/>
    <path class="cls-2" d="M770.83,80.28c-.93-.56-1.87-1.07-2.74-1.69-.64-.45-1.39-.93-1.72-1.58-.77-1.52-.4-2.2,1.19-2.79.4-.15.86-.26,1.15-.53.35-.34.55-.83.81-1.26-.46-.28-.9-.75-1.37-.78-.71-.04-1.49.11-2.15.39-2.36,1-4.86,1.26-7.3.95-3.55-.45-6.96-1.5-9.49-4.33-.96-1.08-1.58-2.35-.79-3.7.87-1.5,1.9-3.07,4-2.85,1.3.13,2.57.51,3.87.74.37.07,1.06.1,1.11-.04.14-.39.17-.93,0-1.31-.21-.47-.64-.86-1.01-1.25-1.04-1.09-1.29-2.35-.77-3.75.51-1.35,1.4-1.85,2.82-1.6,3.17.57,5.75,1.99,7.24,5.01.17.34.56.57.84.84.21-.34.52-.65.62-1.02.76-2.8-.51-5.7-3.12-7.12-.32-.18-.73-.22-1.11-.27-2.31-.28-4.61-.53-6.92-.83-.48-.06-.99-.24-1.4-.49-1.84-1.11-2.17-2.28-.95-4.03.67-.96,1.58-1.8,2.51-2.52.71-.55.71-1.01.29-1.65-.4-.61-.88-1.2-1.16-1.86-.19-.45-.31-1.13-.1-1.52.39-.73.94-1.42,2.02-1.19,1.21.26,2.44.39,3.67.58,1.23.18,2.18.77,2.76,1.89,2.82,5.37,5.91,10.61,7.84,16.41.32.98.85,1.91,1.44,2.76.75,1.09,1.79,1.06,2.59,0,.7-.92.88-1.93.46-3.06-1.21-3.24-1.46-6.66-1.48-10.06,0-.91.9-1.91,1.58-2.7.22-.25,1.26-.16,1.61.14,1,.84,1.97,1.78,2.7,2.85.4.58.35,1.51.39,2.29.02.39-.2.8-.39,1.45,1.68-.48,2.75-1.37,3.41-2.69.57-1.14,1.11-2.33,1.37-3.56.17-.78,0-1.78-.37-2.49-.96-1.84-.28-4.49,1.6-5.39,1.16-.56,2.25-.15,3.14.58,1.07.88,2.07,1.88,2.99,2.91.92,1.04,1.16,2.31.89,3.7-.6,3.11-2.12,5.76-4.26,8-2.7,2.82-5.56,5.48-8.38,8.19-1.12,1.08-1.91,2.24-1.45,3.9.28,1.01.86,1.47,1.88,1.1.94-.34,1.87-.74,2.76-1.19.91-.46,1.38-1.23,1.62-2.26.33-1.42.79-2.83,1.38-4.15.3-.66.95-1.23,1.56-1.68,1.36-1.01,3.16-.58,3.99.9.72,1.3.87,2.69.1,3.99-2.04,3.43-4.46,6.52-8.08,8.46-.51.27-1.02.64-1.57.73-2.12.37-3.34,1.83-4.41,3.48-.69,1.07-1.4,2.13-2.05,3.22-.57.96-.29,1.46.82,1.51,1.42.06,2.48-.74,3.5-1.59.36-.3.66-.65,1.01-.97,2.24-2.08,6.01-1.36,7.33,1.45.18.38.23.95.08,1.33-.97,2.38-2.22,4.49-4.92,5.34-1.16.37-2.28.98-3.3,1.66-1.91,1.26-2.26,2.52-1.31,4.57.58,1.27,1.29,2.61,2.9,2.72,1.51.1,2.31-1.11,3.08-2.17.45-.61.64-1.4,1.02-2.07.38-.66.74-1.38,1.29-1.89,2.39-2.25,5.37-1.51,6.39,1.62.21.64.01,1.49-.21,2.17-.33,1.02-.91,1.96-1.28,2.97-.28.77.07,1.15.93,1.1,2.87-.17,6.26-3.28,6.64-6.12.18-1.37-.43-2.3-1.53-3.01-1.11-.71-2.25-1.37-3.3-2.16-1.33-.99-1.9-4.15-.98-5.52.21-.32,1.01-.55,1.37-.4.99.4,1.96.93,2.8,1.58,1.19.92,2.43.7,3.09-.7.55-1.16.23-2.67-.91-3.55-1.26-.97-2.63-1.78-3.9-2.73-2.04-1.52-2.57-4-1.4-6.2.48-.91,1.18-1.34,2.24-1.34,3.71-.01,5.95,1.98,7.35,5.21.63,1.46,1.3,1.79,2.48,1.38.69-.24,1.08-.57.59-1.36-.22-.35-.35-.78-.41-1.19-.15-1.03.27-1.66,1.3-1.61,1.05.06,2.09.43,3.13.64.57.12,1.53.45,1.66.25.41-.62.81-1.51.68-2.19-.49-2.43-1.8-4.26-4.41-4.83-1.78-.39-3.56-.76-5.33-1.18-1.15-.27-1.88-1.05-2.24-2.15-.32-.96.13-1.62,1.14-1.67.65-.03,1.33.15,1.97.04.47-.08,1.05-.36,1.29-.73.73-1.15.61-1.75-.64-2.32-1.68-.77-3.43-1.45-5.21-1.93-2.64-.7-3.96-2.53-4.76-4.93-.53-1.59-.33-2.03,1.38-3.22,1.53-1.07,2.2-1.09,3.43-.14.34.26.67.57,1.06.7.47.16,1.26.37,1.45.15.38-.43.73-1.24.57-1.71-.28-.82-.06-1.31.44-1.86.55-.6,1.01-1.28,1.58-1.86,1.01-1.02,2.09-1.13,3.05-.11,1.31,1.41,2.65,2.87,3.59,4.52.55.97.55,2.39.44,3.57-.12,1.25-.75,2.44-1.02,3.68-.15.69-.15,1.49.06,2.14.16.49.74,1.1,1.2,1.17.83.12.76-.72.92-1.32.7-2.69,1.33-5.43,3.34-7.55,1.74-1.84,3.97-1.62,4.88.55.24.57.17,1.26.24,1.9,1.17-.05,1.95-.89,1.99-2.16.06-2.13.04-4.26.2-6.37.07-.98.31-2.04.81-2.86.44-.73,1.26-1.42,2.06-1.71,2.19-.8,6.02.58,7.23,2.58.4.65.64,1.68.43,2.38-1.04,3.45-2.91,6.53-5.23,9.22-1.13,1.31-2.97,2.05-4.55,2.93-2.17,1.21-4.39,2.37-5.88,4.43-.48.66-.79,1.61-.79,2.42,0,1.21,1.05,1.72,2.16,1.18.44-.21.86-.55,1.17-.92.94-1.13,1.84-2.3,2.72-3.48,2.01-2.69,4.81-3.25,7.65-1.51,1.69,1.04,2.03,4.18.56,5.52-1.91,1.73-4.06,3.09-6.53,3.91-1.43.48-2.45,1.34-2.57,2.95-.08,1.12.27,2.25,1.29,2.64.61.23,1.62-.18,2.29-.57.71-.42,1.27-1.12,1.83-1.76.64-.74,1.35-1.12,2.35-.87.41.11.84.15,1.26.21,3.29.49,3.27,2.87,2.31,5.11-.89,2.08-2.71,3.34-4.54,4.53-2.94,1.9-6.02,2.27-9.29.87-1.3-.56-2.67-.84-4.07-.33-1.78.65-2.27,1.87-1.2,3.43.5.72,1.3,1.29,2.07,1.76.69.43,1.4.32,2.11-.29,1.69-1.43,5.39-1.12,6.97.49.72.72.71,1.49.23,2.33-1.73,3-3.88,4.08-7.33,3.65-2.1-.26-4-1-5.86-2.06-1.3-.74-2.87-1.11-4.37-1.36-1.31-.22-2.24.65-2.4,1.83-.14,1.04.36,1.8,1.74,2.07,1.39.27,2.85.45,4.25.32,2.35-.21,4.2.68,5.73,2.24,1.63,1.67.81,4.54-1.41,5.31-1.87.65-3.79.56-5.6-.09-2.06-.74-4.09-1.64-6.01-2.69-.96-.52-1.76-.22-2.61.9-.68.9-.05,1.54.64,2.02.43.29.98.45,1.5.57,2.17.49,3.89,1.67,5.27,3.39,1.06,1.32.87,2.55-.5,3.58-1.17.89-2.31,1.82-3.5,2.69-1.44,1.05-2.42,1.06-3.62-.16-1.27-1.29-2.37-2.75-3.55-4.13-.42-.49-.79-1.09-1.32-1.43-1.63-1.08-2.58-.69-3.19,1.15-1.05,3.15-3.36,5.04-6.37,6.13-1.6.58-2.35.1-2.84-1.56-.48-1.63-.78-3.35-1.48-4.88-.52-1.14-1.55-2.06-2.38-3.05-.08-.1-.35-.12-.51-.08-1.83.41-3.33,2.41-3.4,4.3-.05,1.34-.24,2.69-.51,4-.22,1.05-1.06,1.51-2.1,1.46-1.2-.06-2.43-.05-3.57-.36-2.02-.55-3.68-.09-5.33,1.11-1.97,1.44-4.57,1.38-6.46-.18-1.95-1.61-2.94-3.87-3.49-6.27-.27-1.21.21-2.37,1.01-3.34.62-.75,1.4-.7,2.23-.45,1.78.53,3.58,1,5.34,1.58,2.16.71,4.27.45,6.42-.02.99-.21.99-.99,1.1-1.68.12-.73-.22-1.35-.98-1.48-.63-.1-1.33-.14-1.93.05-2.17.68-4.05-.05-5.86-1.11-1.18-.69-1.04-2.55.12-3.57.33-.29.61-.8.61-1.22,0-.24-.58-.65-.92-.68-.34-.03-.76.27-1.06.53-1.16,1.03-2.22,2.17-3.42,3.15-2.86,2.34-4.8,2.32-7.66-.05-1.32-1.1-2.55-2.27-2.45-4.24.05-.92.28-1.66,1.14-2.12.34-.18.67-.39.98-.63,1.04-.81.91-1.86-.27-2.47-.5-.26-.98-.6-1.43-.95-.71-.57-.89-1.3-.65-2.19.11-.4.14-.84.1-1.26-.14-1.62.05-1.98,1.52-2.71,4.73-2.36,8.35-1.59,13.47,2.89.61.53,1.11,1.19,1.67,1.78,1.14,1.18,3.13,1.16,4.17-.2Z"/>
  </g>
</svg>