<svg width="516" height="152" viewBox="0 0 516 152" fill="none" xmlns="http://www.w3.org/2000/svg">
<path fill-rule="evenodd" clip-rule="evenodd" d="M498.424 106.661V148.878H481.731V106.661H466.152V89.9974H481.731V74.4444H498.424V89.9974H513.103V106.661H498.424ZM415.519 148.878L405.503 113.882H404.947L394.932 148.878H367.668L343.742 63.3344H371.006L381.021 98.3294H381.578L391.593 63.3344H418.857L428.873 97.7744H429.429L439.444 63.3344H466.152L442.783 148.878H415.519ZM314.809 148.878H284.206C284.206 148.878 284.464 112.556 284.206 87.2494C283.141 87.2494 260.281 87.2204 260.281 87.2204V63.3344H284.206H314.809H338.178V87.2204C338.178 87.2204 316.356 87.2694 314.84 87.2694C314.84 89.3114 314.809 148.878 314.809 148.878ZM216.881 148.878H182.94V63.3344H216.881H254.717V84.9984C254.717 84.9984 218.24 84.9414 216.881 84.9414C216.881 89.9694 216.881 93.8854 216.881 93.8854H254.717V117.771H216.881V148.878ZM146.773 117.771H126.186V148.878H95.584V63.3344H126.186V93.8854H146.773V63.3344H177.376V148.878H146.773V117.771ZM70.253 33.3384C50.133 33.3384 33.823 49.2434 33.823 68.8624C33.823 88.4814 50.133 104.385 70.253 104.385C76.84 104.385 83.019 102.68 88.351 99.6994C88.351 106.473 88.385 125.3 88.385 133.044C82.612 134.591 76.533 135.418 70.255 135.418C32.559 135.418 2 105.619 2 68.8614C2 32.1034 32.559 2.30444 70.255 2.30444C103.464 2.30444 131.134 25.4304 137.251 56.0674C133.379 56.0674 108.174 56.0954 104.26 56.0954C99 42.7834 85.758 33.3384 70.253 33.3384Z" fill="#001D30" fill-opacity="0.3"/>
<path d="M126.186 62.3347C126.738 62.3347 127.186 62.7824 127.186 63.3347V92.8855H145.773V63.3347C145.773 62.7824 146.221 62.3347 146.773 62.3347H177.376C177.928 62.3347 178.376 62.7824 178.376 63.3347V148.879C178.376 149.431 177.928 149.879 177.376 149.879H146.773C146.221 149.879 145.774 149.431 145.773 148.879V118.771H127.186V148.879C127.185 149.431 126.738 149.879 126.186 149.879H95.584C95.0318 149.879 94.5841 149.431 94.584 148.879V63.3347C94.584 62.7824 95.0317 62.3347 95.584 62.3347H126.186ZM371.006 62.3347L371.17 62.3484C371.546 62.4107 371.86 62.6837 371.968 63.0593L381.299 95.6667L390.632 63.0593L390.689 62.905C390.853 62.5609 391.202 62.3348 391.593 62.3347H418.857L419.021 62.3474C419.395 62.4093 419.709 62.6816 419.817 63.0554L429.15 95.1492L438.483 63.0554L438.542 62.9021C438.706 62.5595 439.055 62.3347 439.444 62.3347H466.152C466.464 62.3348 466.758 62.4796 466.947 62.7273C467.136 62.9751 467.198 63.2977 467.116 63.5984L443.748 149.142C443.629 149.577 443.234 149.879 442.783 149.879H415.519C415.073 149.878 414.681 149.583 414.558 149.154L405.225 116.545L395.894 149.154C395.771 149.583 395.378 149.879 394.932 149.879H367.668C367.22 149.879 366.826 149.58 366.705 149.148L342.779 63.6042C342.695 63.3031 342.756 62.9794 342.945 62.7302C343.134 62.481 343.429 62.3347 343.742 62.3347H371.006ZM498.424 73.4441C498.976 73.4441 499.424 73.892 499.424 74.4441V88.9978H513.103C513.655 88.9978 514.103 89.4455 514.103 89.9978V106.662C514.102 107.214 513.655 107.662 513.103 107.662H499.424V148.879C499.424 149.431 498.976 149.879 498.424 149.879H481.731C481.179 149.879 480.732 149.431 480.731 148.879V107.662H466.152C465.6 107.662 465.153 107.214 465.152 106.662V89.9978C465.152 89.4455 465.6 88.9978 466.152 88.9978H480.731V74.4441C480.732 73.892 481.179 73.4441 481.731 73.4441H498.424ZM70.2549 1.30444C103.933 1.30444 132.02 24.7593 138.231 55.8718C138.29 56.1655 138.214 56.4703 138.024 56.7019C137.834 56.9334 137.55 57.0671 137.251 57.0671C135.316 57.0671 128.047 57.0748 120.772 57.0818C113.498 57.0888 106.217 57.0955 104.26 57.0955C103.849 57.0954 103.481 56.8443 103.33 56.4626C98.2203 43.531 85.3458 34.3386 70.2529 34.3386C50.6615 34.3387 34.8235 49.8191 34.8232 68.8621C34.8232 87.9051 50.6613 103.385 70.2529 103.385C76.6656 103.385 82.6774 101.726 87.8633 98.8269C88.173 98.6538 88.5514 98.6572 88.8574 98.8367C89.1632 99.0161 89.3504 99.3444 89.3506 99.699C89.3506 103.085 89.3597 109.485 89.3682 116.007C89.3767 122.528 89.3848 129.172 89.3848 133.045C89.3847 133.497 89.0806 133.893 88.6436 134.01C82.7869 135.58 76.6209 136.419 70.2549 136.419C32.0305 136.419 1 106.195 1 68.8611C1.0002 31.5274 32.0307 1.3045 70.2549 1.30444ZM338.178 87.2205L338.18 88.2205H338.117C338.076 88.2206 338.014 88.2213 337.935 88.2214C337.774 88.2218 337.539 88.2217 337.239 88.2224C336.64 88.2238 335.782 88.226 334.747 88.2283C332.678 88.2329 329.902 88.2387 327.08 88.2449C322.547 88.2547 317.89 88.2629 315.839 88.2664C315.837 92.0631 315.831 105.551 315.824 118.841C315.82 126.414 315.816 133.924 315.813 139.54C315.812 142.348 315.811 144.682 315.811 146.315C315.81 147.132 315.81 147.773 315.81 148.21C315.809 148.428 315.809 148.595 315.809 148.708V148.879L315.804 148.981C315.752 149.485 315.326 149.879 314.809 149.879H284.206C283.94 149.879 283.684 149.772 283.496 149.583C283.309 149.394 283.204 149.137 283.206 148.871V148.845C283.206 148.828 283.207 148.801 283.207 148.766C283.208 148.697 283.208 148.594 283.209 148.458C283.211 148.186 283.214 147.783 283.217 147.262C283.223 146.22 283.232 144.702 283.242 142.802C283.262 139.003 283.287 133.672 283.303 127.552C283.334 115.626 283.333 100.702 283.214 88.2478C281.186 88.2457 276.472 88.2408 271.843 88.2351C268.919 88.2315 266.028 88.2281 263.868 88.2253C262.788 88.224 261.891 88.2222 261.264 88.2214C260.951 88.221 260.705 88.2207 260.537 88.2205H260.28H260.279C259.728 88.2195 259.281 87.7721 259.281 87.2205V63.3347C259.281 62.7824 259.729 62.3347 260.281 62.3347H338.178C338.73 62.3347 339.178 62.7824 339.178 63.3347V87.2205C339.178 87.7717 338.732 88.219 338.181 88.2205L338.178 87.2205ZM254.717 84.9988L254.715 85.9988H254.689C254.672 85.9988 254.645 85.9979 254.61 85.9978C254.541 85.9977 254.439 85.998 254.306 85.9978C254.038 85.9974 253.646 85.9966 253.146 85.9958C252.146 85.9943 250.715 85.9927 248.995 85.99C245.554 85.9846 240.951 85.9766 236.307 85.9695C228.538 85.9576 220.652 85.9457 217.881 85.9421V92.8855H254.717C255.269 92.8855 255.717 93.3332 255.717 93.8855V117.771C255.717 118.324 255.269 118.771 254.717 118.771H217.881V148.879C217.881 149.431 217.433 149.879 216.881 149.879H182.94C182.388 149.879 181.941 149.431 181.94 148.879V63.3347C181.94 62.7824 182.388 62.3347 182.94 62.3347H254.717C255.269 62.3347 255.717 62.7824 255.717 63.3347V84.9988C255.717 85.264 255.611 85.5183 255.424 85.7058C255.236 85.8933 254.981 85.9991 254.716 85.9988L254.717 84.9988Z" stroke="#009AFC" stroke-width="2" stroke-linecap="round" stroke-linejoin="round"/>
<mask id="mask0_1_2" style="mask-type:alpha" maskUnits="userSpaceOnUse" x="207" y="-114" width="350" height="446">
<rect x="308.861" y="-114" width="256" height="393" transform="rotate(15 308.861 -114)" fill="#D9D9D9"/>
</mask>
<g mask="url(#mask0_1_2)">
<path d="M126.186 62.3347C126.738 62.3347 127.186 62.7824 127.186 63.3347V92.8855H145.773V63.3347C145.773 62.7824 146.221 62.3347 146.773 62.3347H177.376C177.928 62.3347 178.376 62.7824 178.376 63.3347V148.879C178.376 149.431 177.928 149.879 177.376 149.879H146.773C146.221 149.879 145.774 149.431 145.773 148.879V118.771H127.186V148.879C127.185 149.431 126.738 149.879 126.186 149.879H95.584C95.0318 149.879 94.5841 149.431 94.584 148.879V63.3347C94.584 62.7824 95.0317 62.3347 95.584 62.3347H126.186ZM371.006 62.3347L371.17 62.3484C371.546 62.4107 371.86 62.6837 371.968 63.0593L381.299 95.6667L390.632 63.0593L390.689 62.905C390.853 62.5609 391.202 62.3348 391.593 62.3347H418.857L419.021 62.3474C419.395 62.4093 419.709 62.6816 419.817 63.0554L429.15 95.1492L438.483 63.0554L438.542 62.9021C438.706 62.5595 439.055 62.3347 439.444 62.3347H466.152C466.464 62.3348 466.758 62.4796 466.947 62.7273C467.136 62.9751 467.198 63.2977 467.116 63.5984L443.748 149.142C443.629 149.577 443.234 149.879 442.783 149.879H415.519C415.073 149.878 414.681 149.583 414.558 149.154L405.225 116.545L395.894 149.154C395.771 149.583 395.378 149.879 394.932 149.879H367.668C367.22 149.879 366.826 149.58 366.705 149.148L342.779 63.6042C342.695 63.3031 342.756 62.9794 342.945 62.7302C343.134 62.481 343.429 62.3347 343.742 62.3347H371.006ZM498.424 73.4441C498.976 73.4441 499.424 73.892 499.424 74.4441V88.9978H513.103C513.655 88.9978 514.103 89.4455 514.103 89.9978V106.662C514.102 107.214 513.655 107.662 513.103 107.662H499.424V148.879C499.424 149.431 498.976 149.879 498.424 149.879H481.731C481.179 149.879 480.732 149.431 480.731 148.879V107.662H466.152C465.6 107.662 465.153 107.214 465.152 106.662V89.9978C465.152 89.4455 465.6 88.9978 466.152 88.9978H480.731V74.4441C480.732 73.892 481.179 73.4441 481.731 73.4441H498.424ZM70.2549 1.30444C103.933 1.30444 132.019 24.7593 138.231 55.8718C138.29 56.1655 138.214 56.4703 138.024 56.7019C137.834 56.9334 137.55 57.0671 137.251 57.0671C135.316 57.0671 128.047 57.0748 120.772 57.0818C113.498 57.0888 106.217 57.0955 104.26 57.0955C103.849 57.0954 103.481 56.8443 103.33 56.4626C98.2203 43.531 85.3458 34.3386 70.2529 34.3386C50.6615 34.3387 34.8235 49.8191 34.8232 68.8621C34.8232 87.9051 50.6613 103.385 70.2529 103.385C76.6656 103.385 82.6774 101.726 87.8633 98.8269C88.173 98.6538 88.5514 98.6572 88.8574 98.8367C89.1632 99.0161 89.3504 99.3444 89.3506 99.699C89.3506 103.085 89.3597 109.485 89.3682 116.007C89.3767 122.528 89.3848 129.172 89.3848 133.045C89.3847 133.497 89.0806 133.893 88.6436 134.01C82.7869 135.58 76.6209 136.419 70.2549 136.419C32.0305 136.419 1 106.195 1 68.8611C1.0002 31.5274 32.0307 1.3045 70.2549 1.30444ZM338.178 87.2205L338.18 88.2205H338.117C338.076 88.2206 338.014 88.2213 337.935 88.2214C337.774 88.2218 337.539 88.2217 337.239 88.2224C336.64 88.2238 335.782 88.226 334.747 88.2283C332.678 88.2329 329.902 88.2387 327.08 88.2449C322.547 88.2547 317.89 88.2629 315.839 88.2664C315.837 92.0631 315.831 105.551 315.824 118.841C315.82 126.414 315.816 133.924 315.813 139.54C315.812 142.348 315.811 144.682 315.811 146.315C315.81 147.132 315.81 147.773 315.81 148.21C315.809 148.428 315.809 148.595 315.809 148.708V148.879L315.804 148.981C315.752 149.485 315.326 149.879 314.809 149.879H284.206C283.94 149.879 283.684 149.772 283.496 149.583C283.309 149.394 283.204 149.137 283.206 148.871V148.845C283.206 148.828 283.207 148.801 283.207 148.766C283.208 148.697 283.208 148.594 283.209 148.458C283.211 148.186 283.214 147.783 283.217 147.262C283.223 146.22 283.232 144.702 283.242 142.802C283.262 139.003 283.287 133.672 283.303 127.552C283.334 115.626 283.333 100.702 283.214 88.2478C281.186 88.2457 276.472 88.2408 271.843 88.2351C268.919 88.2315 266.028 88.2281 263.868 88.2253C262.788 88.224 261.891 88.2222 261.264 88.2214C260.951 88.221 260.705 88.2207 260.537 88.2205H260.28H260.279C259.728 88.2195 259.281 87.7721 259.281 87.2205V63.3347C259.281 62.7824 259.729 62.3347 260.281 62.3347H338.178C338.73 62.3347 339.178 62.7824 339.178 63.3347V87.2205C339.178 87.7717 338.732 88.219 338.181 88.2205L338.178 87.2205ZM254.717 84.9988L254.715 85.9988H254.689C254.672 85.9988 254.645 85.9979 254.61 85.9978C254.541 85.9977 254.439 85.998 254.306 85.9978C254.038 85.9974 253.646 85.9966 253.146 85.9958C252.146 85.9943 250.715 85.9927 248.995 85.99C245.554 85.9846 240.951 85.9766 236.307 85.9695C228.538 85.9576 220.652 85.9457 217.881 85.9421V92.8855H254.717C255.269 92.8855 255.717 93.3332 255.717 93.8855V117.771C255.717 118.324 255.269 118.771 254.717 118.771H217.881V148.879C217.881 149.431 217.433 149.879 216.881 149.879H182.94C182.388 149.879 181.941 149.431 181.94 148.879V63.3347C181.94 62.7824 182.388 62.3347 182.94 62.3347H254.717C255.269 62.3347 255.717 62.7824 255.717 63.3347V84.9988C255.717 85.264 255.611 85.5183 255.424 85.7058C255.236 85.8933 254.981 85.9991 254.716 85.9988L254.717 84.9988Z" stroke="#0058C1" stroke-width="2" stroke-linecap="round" stroke-linejoin="round"/>
</g>
</svg>
