<svg 
 xmlns="http://www.w3.org/2000/svg"
 xmlns:xlink="http://www.w3.org/1999/xlink"
 width="512px" height="147px">
<path fill-rule="evenodd"  stroke="rgb(255, 255, 255)" stroke-width="0px" stroke-linecap="round" stroke-linejoin="round" fill="rgb(255, 255, 255)"
 d="M496.421,104.360 L496.421,146.577 L479.728,146.577 L479.728,104.360 L464.149,104.360 L464.149,87.696 L479.728,87.696 L479.728,72.143 L496.421,72.143 L496.421,87.696 L511.1000,87.696 L511.1000,104.360 L496.421,104.360 ZM413.516,146.577 L403.500,111.581 L402.944,111.581 L392.929,146.577 L365.665,146.577 L341.739,61.033 L369.003,61.033 L379.018,96.028 L379.575,96.028 L389.590,61.033 L416.854,61.033 L426.870,95.473 L427.426,95.473 L437.441,61.033 L464.149,61.033 L440.780,146.577 L413.516,146.577 ZM312.806,146.577 L282.203,146.577 C282.203,146.577 282.461,110.255 282.203,84.948 C281.138,84.948 258.278,84.919 258.278,84.919 L258.278,61.033 L282.203,61.033 L312.806,61.033 L336.175,61.033 L336.175,84.919 C336.175,84.918 314.353,84.968 312.837,84.968 C312.837,87.010 312.806,146.577 312.806,146.577 ZM214.878,146.577 L180.937,146.577 L180.937,61.033 L214.878,61.033 L252.714,61.033 L252.714,82.697 C252.714,82.697 216.237,82.640 214.878,82.640 C214.878,87.668 214.878,91.584 214.878,91.584 L252.714,91.584 L252.714,115.470 L214.878,115.470 L214.878,146.577 ZM144.770,115.470 L124.183,115.470 L124.183,146.577 L93.581,146.577 L93.581,61.033 L124.183,61.033 L124.183,91.584 L144.770,91.584 L144.770,61.033 L175.373,61.033 L175.373,146.577 L144.770,146.577 L144.770,115.470 ZM68.250,31.037 C48.130,31.037 31.820,46.942 31.820,66.561 C31.820,86.180 48.130,102.084 68.250,102.084 C74.837,102.084 81.016,100.379 86.348,97.398 C86.348,104.172 86.382,122.999 86.382,130.743 C80.609,132.290 74.530,133.117 68.252,133.117 C30.556,133.117 -0.003,103.318 -0.003,66.560 C-0.003,29.802 30.556,0.003 68.252,0.003 C101.461,0.003 129.131,23.129 135.248,53.766 C131.376,53.766 106.171,53.794 102.257,53.794 C96.997,40.482 83.755,31.037 68.250,31.037 Z"/>
</svg>