<?xml version="1.0" encoding="UTF-8"?>
<svg id="Layer_2" xmlns="http://www.w3.org/2000/svg" viewBox="0 0 819.21 715.23">
  <defs>
    <style>
      .cls-1 {
        fill: #80ccfd;
      }

      .cls-2 {
        opacity: .15;
      }

      .cls-3 {
        fill: none;
        stroke: #80ccfd;
        stroke-miterlimit: 10;
        stroke-width: 5px;
      }
    </style>
  </defs>
  <g id="ai_3">
    <g class="cls-2">
      <path class="cls-1" d="M375.25,383.31l-75.56-6.61c1.82-4.96,3.68-10.01,5.57-15.14,25.23,1.92,49.03,9.58,69.99,21.75Z"/>
      <path class="cls-1" d="M445.82,586.88c-7.91,19.9-19.62,37.98-34.28,53.27-27.18,28.37-64.52,47.18-106.78,50.32-90.83,6.77-169.95-61.39-176.72-152.22-3.98-53.49,18.01-102.91,55.32-135.88,10.9-9.65,23.11-17.88,36.36-24.4l-14.49,37.87-3.15,8.22-9.11,23.8-50.54,132c-1.36,5.68-.62,7.19,4.27,7.62l59.19,5.18,8.98.78.9.08c4.89.43,7.27-.23,7.59-3.97l1.07-2.98,28.03-78.31,20.42-57.06,139.17,12.18,12.2,1.07,8.77,49.77,7.11,40.35,4.91,27.89.47,2.64.31,1.78Z"/>
      <path class="cls-1" d="M406.78,386.08h0s-31.53-2.77-31.53-2.77l-75.56-6.61c1.82-4.96,3.68-10.01,5.57-15.14,3.38-9.22,6.84-18.68,10.34-28.28,7.53-20.69,15.21-42.01,22.53-62.86.99-2.82,1.98-5.64,2.96-8.45,13.4-38.45,25.35-74.73,32.65-101.79,3.12,24.98,9.04,62.09,15.41,100.27,1.67,10,3.37,20.06,5.05,30,5.33,31.33,10.54,61.41,14.32,84.02h0c.71,4.26,1.37,8.25,1.97,11.93l-3.71-.32Z"/>
      <path class="cls-1" d="M529.04,222.28c.05,48.62-15.92,94.04-43.21,130.83l-15.03-74.35-3.1-15.33-11.81-58.4-22.43-110.97c-.46-4.68-1.9-4.8-5.35-5.1l-98.43-8.62c-3.74-.32-3.86,1.12-4.14,4.28-1.19,13.19-3.99,26.19-8.32,38.71l-83.68,218.56-10.11,26.4-3.71,9.68-14.49,37.87c-7.56-4.06-14.86-8.57-21.87-13.47-52.17-36.53-88.12-95.32-93.22-163.79C81.13,117.55,171.94,12.13,292.96,3.12c121.03-9.01,226.45,81.8,235.46,202.82.4,5.49.61,10.93.62,16.34Z"/>
      <ellipse class="cls-1" cx="573.21" cy="678.13" rx="33.06" ry="34.61" transform="translate(-48.77 44.44) rotate(-4.26)"/>
      <ellipse class="cls-1" cx="61.9" cy="398.8" rx="59.38" ry="62.16" transform="translate(-29.44 5.7) rotate(-4.26)"/>
      <path class="cls-1" d="M536.84,621.19c-2.82,32.53-27.73,58.99-59.92,61.38-28.9,2.16-54.87-15.75-65.38-42.42-2.55-6.48-4.19-13.48-4.74-20.83-2.05-27.48,11.74-52.32,33.33-64.75l4.91,27.89.47,2.64.31,1.78,4.01,22.77c.77,4.42,3.08,4.62,6.82,4.95l77.99,6.82c.94.08,1.65,0,2.2-.23Z"/>
      <circle class="cls-1" cx="573.21" cy="118.96" r="44.17"/>
      <path class="cls-1" d="M410.49,386.4l-3.71-.32h0c.47-3.9,1.05-7.77,1.74-11.6.71,4.25,1.37,8.24,1.97,11.92Z"/>
      <path class="cls-1" d="M433.02,514.22c-9.12-15.7-16.23-32.75-20.97-50.84l12.2,1.07,8.77,49.77Z"/>
      <path class="cls-1" d="M697.37,597.75l17.36-198.49.11-1.29h0s12.24-139.89,12.24-139.89c.38-4.32-1.51-5.93-5.25-6.26l-73.96-6.47c-4.03-.35-5.65,1.53-5.97,5.27l.28.03-13.09,149.67-.15,1.68-18.79,214.7c-25.92-.07-50.86-5.01-73.87-14l-14.53-71.89-35.92-177.7-15.03-74.35-3.1-15.33c17.61-17.13,38.34-31.17,61.34-41.15,20.6-8.95,43.03-14.65,66.69-16.41,113.29-8.44,211.97,76.57,220.4,189.86,6.55,87.93-43.19,167.06-118.76,202.02Z"/>
    </g>
    <g>
      <path class="cls-3" d="M375.25,383.31l-75.56-6.61c1.82-4.96,3.68-10.01,5.57-15.14,25.23,1.92,49.03,9.58,69.99,21.75Z"/>
      <path class="cls-3" d="M445.82,586.88c-7.91,19.9-19.62,37.98-34.28,53.27-27.18,28.37-64.52,47.18-106.78,50.32-90.83,6.77-169.95-61.39-176.72-152.22-3.98-53.49,18.01-102.91,55.32-135.88,10.9-9.65,23.11-17.88,36.36-24.4l-14.49,37.87-3.15,8.22-9.11,23.8-50.54,132c-1.36,5.68-.62,7.19,4.27,7.62l59.19,5.18,8.98.78.9.08c4.89.43,7.27-.23,7.59-3.97l1.07-2.98,28.03-78.31,20.42-57.06,139.17,12.18,12.2,1.07,8.77,49.77,7.11,40.35,4.91,27.89.47,2.64.31,1.78Z"/>
      <path class="cls-3" d="M406.78,386.08h0s-31.53-2.77-31.53-2.77l-75.56-6.61c1.82-4.96,3.68-10.01,5.57-15.14,3.38-9.22,6.84-18.68,10.34-28.28,7.53-20.69,15.21-42.01,22.53-62.86.99-2.82,1.98-5.64,2.96-8.45,13.4-38.45,25.35-74.73,32.65-101.79,3.12,24.98,9.04,62.09,15.41,100.27,1.67,10,3.37,20.06,5.05,30,5.33,31.33,10.54,61.41,14.32,84.02h0c.71,4.26,1.37,8.25,1.97,11.93l-3.71-.32Z"/>
      <path class="cls-3" d="M529.04,222.28c.05,48.62-15.92,94.04-43.21,130.83l-15.03-74.35-3.1-15.33-11.81-58.4-22.43-110.97c-.46-4.68-1.9-4.8-5.35-5.1l-98.43-8.62c-3.74-.32-3.86,1.12-4.14,4.28-1.19,13.19-3.99,26.19-8.32,38.71l-83.68,218.56-10.11,26.4-3.71,9.68-14.49,37.87c-7.56-4.06-14.86-8.57-21.87-13.47-52.17-36.53-88.12-95.32-93.22-163.79C81.13,117.55,171.94,12.13,292.96,3.12c121.03-9.01,226.45,81.8,235.46,202.82.4,5.49.61,10.93.62,16.34Z"/>
      <ellipse class="cls-3" cx="573.21" cy="678.13" rx="33.06" ry="34.61" transform="translate(-48.77 44.44) rotate(-4.26)"/>
      <ellipse class="cls-3" cx="61.9" cy="398.8" rx="59.38" ry="62.16" transform="translate(-29.44 5.7) rotate(-4.26)"/>
      <path class="cls-3" d="M536.84,621.19c-2.82,32.53-27.73,58.99-59.92,61.38-28.9,2.16-54.87-15.75-65.38-42.42-2.55-6.48-4.19-13.48-4.74-20.83-2.05-27.48,11.74-52.32,33.33-64.75l4.91,27.89.47,2.64.31,1.78,4.01,22.77c.77,4.42,3.08,4.62,6.82,4.95l77.99,6.82c.94.08,1.65,0,2.2-.23Z"/>
      <circle class="cls-3" cx="573.21" cy="118.96" r="44.17"/>
      <path class="cls-3" d="M410.49,386.4l-3.71-.32h0c.47-3.9,1.05-7.77,1.74-11.6.71,4.25,1.37,8.24,1.97,11.92Z"/>
      <path class="cls-3" d="M433.02,514.22c-9.12-15.7-16.23-32.75-20.97-50.84l12.2,1.07,8.77,49.77Z"/>
      <path class="cls-3" d="M697.37,597.75l17.36-198.49.11-1.29h0s12.24-139.89,12.24-139.89c.38-4.32-1.51-5.93-5.25-6.26l-73.96-6.47c-4.03-.35-5.65,1.53-5.97,5.27l.28.03-13.09,149.67-.15,1.68-18.79,214.7c-25.92-.07-50.86-5.01-73.87-14l-14.53-71.89-35.92-177.7-15.03-74.35-3.1-15.33c17.61-17.13,38.34-31.17,61.34-41.15,20.6-8.95,43.03-14.65,66.69-16.41,113.29-8.44,211.97,76.57,220.4,189.86,6.55,87.93-43.19,167.06-118.76,202.02Z"/>
    </g>
    <g>
      <path class="cls-1" d="M695.91,203.48c-2.69-.03-5.43-.28-8.16-.74-28.38-.84-50.94-24.46-50.42-52.92.04-2.54.29-5.14.73-7.73,1.29-13.85,7.65-26.63,17.94-36,10.3-9.39,23.62-14.56,37.51-14.56,1.63,0,3.28.07,4.91.21,14.83,1.3,28.27,8.29,37.84,19.7,9.51,11.33,14.07,25.67,12.86,40.41-.51,28.5-24.02,51.64-52.54,51.64h-.67Z"/>
      <path class="cls-1" d="M693.51,99.02c1.41,0,2.83.06,4.26.19,26.54,2.32,46.18,25.72,43.86,52.26-.31,24.7-20.43,44.51-45.05,44.51-.19,0-.38,0-.57,0-2.52-.03-5.03-.28-7.51-.73-24.57-.45-44.11-20.73-43.66-45.3.04-2.31.27-4.61.67-6.89,2.2-25.11,23.26-44.03,48-44.04M693.51,84.02v15-15c-15.77,0-30.88,5.87-42.56,16.52-11.6,10.57-18.8,24.96-20.33,40.57-.47,2.87-.74,5.75-.78,8.58-.59,32.38,24.95,59.29,57.17,60.52,2.94.47,5.9.73,8.82.77.24,0,.5,0,.75,0,15.88,0,30.86-6.15,42.18-17.32,11.19-11.05,17.52-25.75,17.86-41.44,1.31-16.63-3.87-32.81-14.61-45.6-10.86-12.94-26.11-20.88-42.94-22.35-1.85-.16-3.72-.24-5.56-.24h0Z"/>
    </g>
    <g>
      <path class="cls-1" d="M689.89,642.44c-.7,0-1.42-.03-2.23-.1l-72.81-6.38c-8.5-.73-13.34-6.36-12.63-14.7l.45-5.21,18.79-214.71.15-1.69,12.91-147.63c-.13-.66-.16-1.35-.1-2.05.77-8.97,6.98-12.17,12.53-12.17.5,0,1.03.02,1.56.07l73.97,6.47c8.16.72,12.78,6.23,12.07,14.39l-29.71,339.67-2.79,31.86c-.27,3.02-1.07,12.18-12.16,12.18Z"/>
      <path class="cls-1" d="M646.96,245.31c.29,0,.59.01.91.04l73.96,6.47c3.74.33,5.63,1.94,5.25,6.26l-12.24,139.88h0s-.11,1.3-.11,1.3l-17.36,198.49-2.79,31.86c-.3,3.36-.47,5.34-4.68,5.34-.47,0-1-.02-1.58-.08l-72.81-6.38c-4.9-.42-6.13-2.85-5.81-6.59l.45-5.2,18.79-214.7.15-1.68,13.09-149.67-.28-.03c.29-3.44,1.69-5.31,5.06-5.31M646.96,230.31h0c-10.99,0-19.03,7.65-20,19.03-.08.98-.07,1.95.03,2.89l-12.84,146.78-.15,1.65-18.79,214.73-.45,5.21c-1.08,12.57,6.75,21.74,19.47,22.83l72.78,6.38c1.03.09,1.97.13,2.88.13,9.5,0,14.29-5.07,16.3-8.1,2.72-4.1,3.09-8.2,3.33-10.92l2.79-31.87,17.36-198.49.11-1.32s0-.08.01-.13l12.23-139.73c1.09-12.37-6.5-21.42-18.88-22.51l-73.97-6.47c-.76-.07-1.5-.1-2.22-.1h0Z"/>
    </g>
    <g>
      <path class="cls-1" d="M535.31,628.95c-.41,0-.84-.02-1.3-.06l-78.01-6.82c-3.84-.34-11.8-1.04-13.56-11.13l-4.32-24.55-.46-2.61-19.79-112.36-139.87-12.24-47.31,132.19c-.59,3.31-2.98,9.77-12.62,9.77-.88,0-1.84-.05-2.94-.14l-69.07-6.04c-1.87-.16-6.82-.6-9.75-4.67-3.06-4.24-1.82-9.4-1.16-12.16.08-.32.17-.63.29-.93l62.8-164.02,14.49-37.87,13.82-36.08,83.64-218.44c4.11-11.92,6.77-24.31,7.9-36.82.17-1.96.37-4.17,1.62-6.33,1.04-1.8,3.61-4.82,9.05-4.82.5,0,1.02.02,1.57.07l98.44,8.62c3.56.31,10.9.95,12.12,11.42l22.36,110.63,29.94,148.08,53.08,262.59c.14.71.18,1.43.12,2.15-.31,3.51-.83,9.31-6.65,11.74-1.33.56-2.82.84-4.42.84h0ZM401.51,378.08c-.13-.78-.41-2.47-.42-2.52-2.31-13.84-5.2-30.67-8.25-48.49-1.95-11.36-3.99-23.27-6.04-35.37-1.68-9.95-3.38-20.02-5.05-30.02-4.43-26.56-7.93-48.3-10.61-66.09-6.01,19.21-13.62,42.02-22.97,68.84-.98,2.82-1.97,5.64-2.97,8.47-6.48,18.46-13.65,38.46-22.56,62.94-3.5,9.61-6.96,19.07-10.35,28.3,0,0-1.5,4.07-2.19,5.94l91.4,8Z"/>
      <path class="cls-1" d="M328.74,80.29c.28,0,.59.01.93.04l98.43,8.62c3.45.3,4.89.42,5.35,5.1l22.43,110.97,11.81,58.4,3.1,15.33,15.03,74.35,35.92,177.7,14.53,71.89,1.18,5.83,1.45,7.17c-.25,2.8-.42,4.8-2.07,5.49-.41.17-.91.26-1.53.26-.21,0-.43-.01-.67-.03l-77.99-6.82c-3.74-.33-6.05-.53-6.82-4.95l-4.01-22.77-.31-1.78-.47-2.64-4.91-27.89-7.11-40.35-8.77-49.77-12.2-1.07-139.17-12.18-20.42,57.06-28.03,78.31-1.07,2.98c-.27,3.1-1.95,4.08-5.3,4.08-.69,0-1.45-.04-2.29-.11l-.9-.08-8.98-.78-59.19-5.18c-4.89-.43-5.63-1.94-4.27-7.62l50.54-132,9.11-23.8,3.15-8.22,14.49-37.87,3.71-9.68,10.11-26.4,83.68-218.56c4.33-12.52,7.13-25.52,8.32-38.71.25-2.87.38-4.32,3.21-4.32M410.49,386.4c-.6-3.68-1.26-7.67-1.97-11.92h0c-3.78-22.62-8.99-52.7-14.32-84.03-1.68-9.94-3.38-20-5.05-30-6.37-38.18-12.29-75.29-15.41-100.27-7.3,27.06-19.25,63.34-32.65,101.79-.98,2.81-1.97,5.63-2.96,8.45-7.32,20.85-15,42.17-22.53,62.86-3.5,9.6-6.96,19.06-10.34,28.28-1.89,5.13-3.75,10.18-5.57,15.14l75.56,6.61,31.53,2.76h0s3.71.33,3.71.33M328.74,65.29c-9.55,0-14.05,5.98-15.54,8.56-2.09,3.6-2.4,7.1-2.6,9.42-1.07,11.86-3.59,23.61-7.48,34.93l-83.59,218.32-10.11,26.4-3.71,9.68-14.49,37.88-3.15,8.21-9.11,23.81-50.54,132c-.23.61-.43,1.24-.58,1.87-.81,3.37-2.7,11.26,2.37,18.29,4.94,6.86,12.65,7.54,15.18,7.76l59.2,5.18,8.99.78.87.08c1.34.12,2.52.17,3.62.17,12.43,0,18.31-7.76,19.88-15.3l.61-1.7,28.04-78.32,16.52-46.16,127.64,11.17.73.06,6.77,38.44,7.11,40.35,4.91,27.89.47,2.62.31,1.77,4.01,22.8c1.43,8.24,6.06,12.41,9.68,14.46,3.97,2.24,7.79,2.58,10.58,2.83l78.01,6.82c.69.06,1.34.09,1.97.09,2.6,0,5.06-.48,7.32-1.42,4.93-2.06,8.52-6.12,10.13-11.44.72-2.4.92-4.58,1.09-6.51.13-1.44.05-2.93-.23-4.35l-1.45-7.17-1.18-5.83-14.53-71.89-35.92-177.7-15.03-74.35-3.1-15.33-11.81-58.4-22.29-110.27c-.34-2.95-1.47-9.35-7.24-13.8-4.33-3.34-8.91-3.73-11.65-3.97l-98.43-8.62c-.8-.07-1.53-.1-2.24-.1h0ZM320.53,363.46c3.01-8.2,6.07-16.57,9.16-25.05,8.92-24.52,16.1-44.54,22.59-63.03.99-2.83,1.99-5.66,2.97-8.48,4.92-14.11,9.36-27.12,13.34-39.09,1.71,10.65,3.63,22.32,5.76,35.1,1.67,10.01,3.37,20.08,5.06,30.03,2.06,12.08,4.09,23.96,6.03,35.3,2.56,14.92,4.99,29.15,7.08,41.51l-15.96-1.4-56.02-4.9h0Z"/>
    </g>
  </g>
</svg>