<?xml version="1.0" encoding="UTF-8"?>
<svg id="Layer_2" xmlns="http://www.w3.org/2000/svg" viewBox="0 0 819.21 715.23">
  <defs>
    <style>
      .cls-1 {
        fill: #80ccfd;
      }

      .cls-2 {
        stroke-linecap: round;
        stroke-linejoin: round;
        stroke-width: 10px;
      }

      .cls-2, .cls-3 {
        fill: none;
        stroke: #80ccfd;
      }

      .cls-4 {
        opacity: .15;
      }

      .cls-3 {
        stroke-miterlimit: 10;
        stroke-width: 5px;
      }
    </style>
  </defs>
  <g id="css_3">
    <g class="cls-4">
      <path class="cls-1" d="M355.01,671.01l9.35,3.49c-18.16,8.8-38.25,14.38-59.6,15.97-90.83,6.77-169.95-61.39-176.72-152.22-3.98-53.49,18.01-102.91,55.32-135.88,2.5-2.22,5.07-4.36,7.71-6.41l.02,11.57.05,38.82.03,19.33.2,144.16,11.81,4.41,6.94,2.6,128.08,47.88,16.81,6.28Z"/>
      <path class="cls-1" d="M191.07,395.96l.02,11.57c-2.62-1.66-5.19-3.39-7.73-5.16-52.17-36.53-88.12-95.32-93.22-163.79-6.2-83.25,34.83-159.11,100.43-201.3l.44,315.81v7.51s.06,35.36.06,35.36Z"/>
      <path class="cls-1" d="M455.57,58.98l-262.93-23.01c29.31-18.39,63.41-30.1,100.32-32.85,62.3-4.64,120.46,17.17,163.46,55.93l-.85-.07Z"/>
      <path class="cls-1" d="M575.78,712.65c-18.21,1.35-34.12-13-35.54-32.06-.28-3.8.03-7.5.86-11.01l28.36-5.25,20.5-3.79,10.43-1.93c3.24,4.9,5.32,10.72,5.79,17.07,1.42,19.06-12.19,35.61-30.4,36.97Z"/>
      <ellipse class="cls-1" cx="61.9" cy="398.8" rx="59.38" ry="62.16" transform="translate(-29.44 5.7) rotate(-4.26)"/>
      <path class="cls-1" d="M470.23,682.71l26.41-4.89c-6.13,2.59-12.76,4.23-19.72,4.75-2.25.17-4.48.21-6.69.14Z"/>
      <path class="cls-1" d="M654.68,612.03l33.71-189.61,1.74-9.8,31.16-175.27c52.91,33.67,89.83,91.02,94.84,158.38,7.72,103.6-62.71,194.99-161.45,216.3Z"/>
      <path class="cls-1" d="M525.4,182.38l-56.48-4.94-1.23-.1-183.55-16.06.22,70.4,161.34,14.11,20.25,1.77,18.08,1.58,42.9,3.76,24.38,2.13-12.6,71.1-31.55-2.76-2.62-.23-12.33-1.08-63.92-5.59-38.47-3.36-84.29-7.37-21.11-1.85v55.39s0,14.99,0,14.99l88.56,7.75,33.95,2.97,45.55,3.98,74.26,6.5-16.05,89.7-56.1,10.18-23.52,4.27-6.93-2.54-69.21-25.31-.14-34.5-.1-22.69-70.07-6.13.03,32.22.08,78.49,136.62,51.74,3.37,1.28,27.57-5.09,20.48-3.78,34-6.27,10.4-1.92,21.11-3.89,32.99-6.09,17.98-101.14,6.12-34.46,36.13-203.25,2.56-14.4-108.65-9.51ZM455.98,548.14l.21-1.68c.39.45.78.89,1.18,1.33-.46.12-.93.23-1.39.35Z"/>
    </g>
    <g>
      <path class="cls-3" d="M355.01,671.01l9.35,3.49c-18.16,8.8-38.25,14.38-59.6,15.97-90.83,6.77-169.95-61.39-176.72-152.22-3.98-53.49,18.01-102.91,55.32-135.88,2.5-2.22,5.07-4.36,7.71-6.41l.02,11.57.05,38.82.03,19.33.2,144.16,11.81,4.41,6.94,2.6,128.08,47.88,16.81,6.28Z"/>
      <path class="cls-3" d="M191.07,395.96l.02,11.57c-2.62-1.66-5.19-3.39-7.73-5.16-52.17-36.53-88.12-95.32-93.22-163.79-6.2-83.25,34.83-159.11,100.43-201.3l.44,315.81v7.51s.06,35.36.06,35.36Z"/>
      <path class="cls-3" d="M455.57,58.98l-262.93-23.01c29.31-18.39,63.41-30.1,100.32-32.85,62.3-4.64,120.46,17.17,163.46,55.93l-.85-.07Z"/>
      <path class="cls-3" d="M575.78,712.65c-18.21,1.35-34.12-13-35.54-32.06-.28-3.8.03-7.5.86-11.01l28.36-5.25,20.5-3.79,10.43-1.93c3.24,4.9,5.32,10.72,5.79,17.07,1.42,19.06-12.19,35.61-30.4,36.97Z"/>
      <ellipse class="cls-3" cx="61.9" cy="398.8" rx="59.38" ry="62.16" transform="translate(-29.44 5.7) rotate(-4.26)"/>
      <path class="cls-3" d="M470.23,682.71l26.41-4.89c-6.13,2.59-12.76,4.23-19.72,4.75-2.25.17-4.48.21-6.69.14Z"/>
      <path class="cls-3" d="M654.68,612.03l33.71-189.61,1.74-9.8,31.16-175.27c52.91,33.67,89.83,91.02,94.84,158.38,7.72,103.6-62.71,194.99-161.45,216.3Z"/>
    </g>
    <path class="cls-1" d="M530.89,65.57l-4.26-.38-67.8-5.93-2.41-.21-.85-.07-262.93-23.01-2.07-.18v1.49l.44,315.81v7.51s.06,35.36.06,35.36l.02,11.57.05,38.82.03,19.33.2,144.16,11.81,4.41,6.94,2.6,128.08,47.88,16.81,6.28,9.35,3.49,49.77,18.61,56.1-10.4,26.41-4.89,44.46-8.24,28.36-5.25,20.5-3.79,10.43-1.93,47.58-8.82,6.71-37.76,33.71-189.61,1.74-9.8,31.16-175.27,27.15-152.75-217.55-19.03ZM631.49,206.29l-36.13,203.25-6.12,34.46-17.98,101.14-32.99,6.09-21.11,3.89-10.4,1.92-34,6.27-20.48,3.78-27.57,5.09-3.37-1.28-136.62-51.74-.08-78.49-.03-32.22,70.07,6.13.1,22.69.14,34.5,69.21,25.31,6.93,2.54,23.52-4.27,56.1-10.18,16.05-89.7-74.26-6.5-45.55-3.98-33.95-2.97-88.56-7.75v-52.31s0-18.07,0-18.07l21.11,1.85,84.29,7.37,38.47,3.36,63.92,5.59,12.33,1.08,2.62.23,31.55,2.76,12.6-71.1-24.38-2.13-42.9-3.76-18.08-1.58-20.25-1.77-161.34-14.11-.22-70.4,183.55,16.06,1.23.1,56.48,4.94,108.65,9.51-2.56,14.4Z"/>
    <path class="cls-2" d="M530.89,65.57l-4.26-.38-67.8-5.93-2.41-.21-.85-.07-262.93-23.01-2.07-.18v1.49l.44,315.81v7.51s.06,35.36.06,35.36l.02,11.57.05,38.82.03,19.33.2,144.16,11.81,4.41,6.94,2.6,128.08,47.88,16.81,6.28,9.35,3.49,49.77,18.61,56.1-10.4,26.41-4.89,44.46-8.24,28.36-5.25,20.5-3.79,10.43-1.93,47.58-8.82,6.71-37.76,33.71-189.61,1.74-9.8,31.16-175.27,27.15-152.75-217.55-19.03Z"/>
  </g>
</svg>