<?xml version="1.0" encoding="UTF-8"?>
<svg id="Layer_2" xmlns="http://www.w3.org/2000/svg" viewBox="0 0 819.21 715.23">
  <defs>
    <style>
      .cls-1 {
        fill: #80ccfd;
      }

      .cls-2 {
        stroke-linecap: round;
        stroke-linejoin: round;
        stroke-width: 10px;
      }

      .cls-2, .cls-3 {
        fill: none;
        stroke: #80ccfd;
      }

      .cls-4 {
        opacity: .15;
      }

      .cls-3 {
        stroke-miterlimit: 10;
        stroke-width: 5px;
      }
    </style>
  </defs>
  <g id="html_3">
    <g class="cls-4">
      <path class="cls-1" d="M383.85,663.36c-22.83,15.21-49.77,24.93-79.09,27.11-90.83,6.77-169.95-61.39-176.72-152.22-3.98-53.49,18.01-102.91,55.32-135.88,2.54-2.25,5.15-4.42,7.83-6.51l.02,11.75.03,19.7.03,19.41.22,143.72,11.96,4.53,6.9,2.62,127.87,48.47,16.61,6.3,29.02,11Z"/>
      <path class="cls-1" d="M191.21,407.61c-2.66-1.69-5.28-3.44-7.85-5.24-52.17-36.53-88.12-95.32-93.22-163.79-6.2-83.28,34.86-159.17,100.51-201.35l.45,296.85v7.5s.09,54.28.09,54.28l.02,11.75Z"/>
      <path class="cls-1" d="M427.43,36.97l-202.43-17.71c21.1-8.76,43.93-14.35,67.96-16.14,49.22-3.66,95.85,9.18,134.47,33.85Z"/>
      <path class="cls-1" d="M575.78,712.65c-18.21,1.35-34.12-13-35.54-32.06-1.06-14.29,6.32-27.18,17.77-33.3l11.37-2.14,7.41-1.39c15.51,1.85,28.13,15.04,29.39,31.92,1.42,19.06-12.19,35.61-30.4,36.97Z"/>
      <ellipse class="cls-1" cx="61.9" cy="398.8" rx="59.38" ry="62.16" transform="translate(-29.44 5.7) rotate(-4.26)"/>
      <path class="cls-1" d="M525.74,653.36c-10.77,16.4-28.32,27.69-48.82,29.21-15.51,1.16-30.17-3.46-42.05-12.11l90.87-17.1Z"/>
      <path class="cls-1" d="M651.05,612.78l37.25-209.38,1.74-9.81,28.14-158.17c54.58,33.37,92.84,91.64,97.95,160.31,7.81,104.87-64.44,197.21-165.08,217.05Z"/>
      <path class="cls-1" d="M634.48,172.45l-6.05,33.55-6.36,35.23-93.29-8.16-18.28-1.6-19.37-1.7s-.02.03-.03.04l-68.63-6.01s-.02-.03-.02-.04l-67.41-5.89-.22,47.41-.12,24.83,36.11,3.16,48.62,4.25,52.23,4.57,14.44,1.26,7.22.63,96.55,8.45-14.15,78.21-6.17,34.06-18.37,101.52-32.91,6.05-21.19,3.9-60.19,11.07c-.24-.26-.47-.52-.7-.79-.04.31-.08.63-.12.94l-30.56,5.62-.03.4-1.58-.14-139.96-52.18.5-60.46.42-50.45,69.33,6.07.22,41.08.08,14.84,60.8,22.29,15.02,5.51,19.57-3.47,60.32-10.7,16.63-89.57-56.09-4.91-60.51-5.29-125.88-11.01v-14.77s-.03-37.24-.03-37.24l-.08-161.2,164.98,14.44,18.56,1.62,1.22.1,7.52.66,44.27,3.87,113.69,9.95Z"/>
    </g>
    <g>
      <path class="cls-3" d="M383.85,663.36c-22.83,15.21-49.77,24.93-79.09,27.11-90.83,6.77-169.95-61.39-176.72-152.22-3.98-53.49,18.01-102.91,55.32-135.88,2.54-2.25,5.15-4.42,7.83-6.51l.02,11.75.03,19.7.03,19.41.22,143.72,11.96,4.53,6.9,2.62,127.87,48.47,16.61,6.3,29.02,11Z"/>
      <path class="cls-3" d="M191.21,407.61c-2.66-1.69-5.28-3.44-7.85-5.24-52.17-36.53-88.12-95.32-93.22-163.79-6.2-83.28,34.86-159.17,100.51-201.35l.45,296.85v7.5s.09,54.28.09,54.28l.02,11.75Z"/>
      <path class="cls-3" d="M427.43,36.97l-202.43-17.71c21.1-8.76,43.93-14.35,67.96-16.14,49.22-3.66,95.85,9.18,134.47,33.85Z"/>
      <path class="cls-3" d="M575.78,712.65c-18.21,1.35-34.12-13-35.54-32.06-1.06-14.29,6.32-27.18,17.77-33.3l11.37-2.14,7.41-1.39c15.51,1.85,28.13,15.04,29.39,31.92,1.42,19.06-12.19,35.61-30.4,36.97Z"/>
      <ellipse class="cls-3" cx="61.9" cy="398.8" rx="59.38" ry="62.16" transform="translate(-29.44 5.7) rotate(-4.26)"/>
      <path class="cls-3" d="M525.74,653.36c-10.77,16.4-28.32,27.69-48.82,29.21-15.51,1.16-30.17-3.46-42.05-12.11l90.87-17.1Z"/>
      <path class="cls-3" d="M651.05,612.78l37.25-209.38,1.74-9.81,28.14-158.17c54.58,33.37,92.84,91.64,97.95,160.31,7.81,104.87-64.44,197.21-165.08,217.05Z"/>
    </g>
    <path class="cls-1" d="M531.4,46.06l-4.31-.38-68.63-6.01-3.11-.27-27.92-2.44-202.43-17.71-34.38-3.01.03,20.98.45,296.85v7.5s.09,54.28.09,54.28l.02,11.75.03,19.7.03,19.41.22,143.72,11.96,4.53,6.9,2.62,127.87,48.47,16.61,6.3,29.02,11,29.45,11.16,21.57-4.06,90.87-17.1,32.27-6.07,11.37-2.14,7.41-1.39,12.94-2.44,58.19-10.95,3.13-17.59,37.25-209.38,1.74-9.81,28.14-158.17,30.31-170.36-217.09-18.99ZM628.43,206l-6.36,35.23-93.29-8.16-18.28-1.6-19.37-1.7s-.02.03-.03.04l-68.63-6.01s-.02-.03-.02-.04l-67.41-5.89-.22,47.41-.12,24.83,36.11,3.16,48.62,4.25,52.23,4.57,14.44,1.26,7.22.63,96.55,8.45-14.15,78.21-6.17,34.06-18.37,101.52-32.91,6.05-21.19,3.9-60.19,11.07-.82.15-30.56,5.62-.03.4-1.58-.14-139.96-52.18.5-60.46.42-50.45,69.33,6.07.22,41.08.08,14.84,60.8,22.29,15.02,5.51,19.57-3.47,60.32-10.7,16.63-89.57-56.09-4.91-60.51-5.29-125.88-11.01v-14.77s-.03-37.24-.03-37.24l-.08-161.2,164.98,14.44,18.56,1.62,1.22.1,7.52.66,44.27,3.87,113.69,9.95-6.05,33.55Z"/>
    <path class="cls-2" d="M531.4,46.06l-4.31-.38-68.63-6.01-3.11-.27-27.92-2.44-202.43-17.71-34.38-3.01.03,20.98.45,296.85v7.5s.09,54.28.09,54.28l.02,11.75.03,19.7.03,19.41.22,143.72,11.96,4.53,6.9,2.62,127.87,48.47,16.61,6.3,29.02,11,29.45,11.16,21.57-4.06,90.87-17.1,32.27-6.07,11.37-2.14,7.41-1.39,12.94-2.44,58.19-10.95,3.13-17.59,37.25-209.38,1.74-9.81,28.14-158.17,30.31-170.36-217.09-18.99Z"/>
  </g>
</svg>