<?xml version="1.0" encoding="UTF-8"?>
<svg id="Layer_2" xmlns="http://www.w3.org/2000/svg" viewBox="0 0 819.21 715.24">
  <defs>
    <style>
      .cls-1 {
        fill: #80ccfd;
      }

      .cls-2 {
        stroke-linecap: round;
        stroke-linejoin: round;
        stroke-width: 10px;
      }

      .cls-2, .cls-3 {
        fill: none;
        stroke: #80ccfd;
      }

      .cls-4 {
        opacity: .15;
      }

      .cls-3 {
        stroke-miterlimit: 10;
        stroke-width: 5px;
      }
    </style>
  </defs>
  <g id="js_3">
    <g class="cls-4">
      <path class="cls-1" d="M409.09,642.65c-26.95,26.97-63.32,44.77-104.33,47.82-90.83,6.77-169.95-61.39-176.72-152.22-2.8-37.64,7.26-73.27,26.48-102.57l-.33,3.72-10.48,119.81c-2.25,25.64,12,48.92,33.94,59.39,5.7,2.73,11.93,4.59,18.53,5.39.68.09,1.38.16,2.07.22l137.01,11.99,31.85,2.78,41.98,3.67Z"/>
      <path class="cls-1" d="M455,497.71l-2.19,25.05c-.52,5.91-1.38,11.43-2.57,16.58-.98,4.24-2.18,8.23-3.59,11.97-7.1,18.87-19.51,31.38-35.67,38.12-11.81,4.93-25.63,6.76-40.83,5.74-.86-.05-1.72-.12-2.58-.19-16.75-1.46-30.38-6.13-41.36-12.97-16.52-10.26-27.04-25.42-33.14-41.86l44.96-22.04c6.95,15.29,13.34,28.27,31.4,29.85,17.18,1.51,28.73-4.26,31.02-30.53l6.82-78,1.87-21.36.7-7.98c1.63,1.65,3.24,3.34,4.8,5.07,20.49,22.53,34.89,50.87,40.36,82.55Z"/>
      <path class="cls-1" d="M468.47,343.82l-2.88,32.89c-14.92,15.13-32.06,28.13-50.95,38.45-1.81,1-3.65,1.97-5.5,2.91l.7-7.98,5.48-62.66.72-8.2,2.07.18,50.36,4.41Z"/>
      <path class="cls-1" d="M482.44,86.93l-15.13-1.32-220.25-19.27c-33-2.89-62.11,21.54-65,54.54l-18.38,210.1-2.14,24.44-2.39,27.31c-38.88-36.36-64.74-86.88-69.01-144.15C81.13,117.55,171.94,12.13,292.96,3.12c75.97-5.66,145.79,28.02,189.48,83.81Z"/>
      <path class="cls-1" d="M575.78,712.65c-18.21,1.35-34.12-13-35.54-32.06-.73-9.82,2.53-18.97,8.35-25.73l23.43,2.05,28.9,2.53c2.93,4.72,4.81,10.25,5.26,16.24,1.42,19.06-12.19,35.61-30.4,36.97Z"/>
      <ellipse class="cls-1" cx="61.9" cy="398.8" rx="59.38" ry="62.16" transform="translate(-29.44 5.7) rotate(-4.26)"/>
      <path class="cls-1" d="M446.65,551.31c-7.1,18.87-19.51,31.38-35.67,38.12,6.36-17.15,19.22-31.04,35.67-38.12Z"/>
      <path class="cls-1" d="M536.47,605.48c-12.23-4.45-22.64-10.64-31.29-18.06-6.69-5.74-12.33-12.22-16.97-19.22-3.67-5.52-6.69-11.36-9.11-17.42l6.4-2.98c25.41,5.85,45.75,27.27,50.54,54.81.17.95.31,1.91.43,2.87Z"/>
      <path class="cls-1" d="M526.05,652.89c-10.74,16.65-28.43,28.14-49.13,29.68-27.87,2.08-53.02-14.5-64.19-39.6l113.32,9.92Z"/>
      <path class="cls-1" d="M612.24,98.29l-73.88-6.46c7.4-9.49,18.62-15.95,31.57-16.91,18.04-1.34,34.35,8.35,42.31,23.37Z"/>
      <path class="cls-1" d="M468.47,343.82l-2.88,32.89-10.59,121-2.19,25.05c-.52,5.91-1.38,11.43-2.57,16.58-22.44-28.04-37.74-62.19-42.97-99.91l1.87-21.36.7-7.98,5.48-62.66c.88-2.7,1.81-5.37,2.79-8.02l50.36,4.41Z"/>
      <path class="cls-1" d="M536.04,602.61c-10.74-4.21-21.06-9.31-30.86-15.19-6.69-5.74-12.33-12.22-16.97-19.22-3.67-5.52-6.69-11.36-9.11-17.42l6.4-2.98c25.41,5.85,45.75,27.27,50.54,54.81Z"/>
      <path class="cls-1" d="M702.7,595.18l16.55-189.11.09-1.07,13.95-159.4c46.44,34.36,78.22,87.99,82.84,150.13,6.4,85.85-40.86,163.31-113.43,199.45Z"/>
      <path class="cls-1" d="M663.1,547.31c-4.1,46.89-43.19,69.55-92.61,65.41-.19-.01-.38-.02-.57-.04-4.19-.37-8.23-.89-12.13-1.58-7.64-1.32-14.74-3.22-21.32-5.62-.12-.96-.26-1.92-.43-2.87-4.79-27.54-25.13-48.96-50.54-54.81l38.47-17.94c.51,1.03,1.04,2.05,1.58,3.05,3.67,6.89,7.93,13.11,13.19,18.28,8.33,8.21,19.15,13.76,34.11,15.07,21.67,1.9,36.57-7.71,37.88-22.78,1.57-17.93-12.07-25.53-35.17-38.21l-12.59-6.75c-4.81-2.56-9.4-5.17-13.72-7.88-.56-.36-1.12-.71-1.68-1.07-27.39-17.6-43.74-39.29-40.57-75.63,1.92-21.85,12.82-39.97,30.13-51.06,1.92-1.24,3.92-2.38,6-3.43,12.92-6.56,28.74-9.6,46.64-8.03,33.37,2.92,56.27,16.59,70.79,48.48l-2.91,1.52-15.16,7.94-25.06,13.12c-1.14-2.54-2.31-4.85-3.54-6.96-6.91-11.92-15.44-17.29-28.24-18.41-14.26-1.25-24.4,6.35-26.62,17.65-.17.83-.29,1.69-.37,2.57-.37,4.25.03,7.88,1.24,11.15,2.28,6.12,7.4,10.96,15.65,16.24,3.59,2.31,7.77,4.7,12.57,7.31l12.58,6.75c42.92,22.95,66.23,44.69,62.4,88.53Z"/>
    </g>
    <g>
      <path class="cls-3" d="M409.09,642.65c-26.95,26.97-63.32,44.77-104.33,47.82-90.83,6.77-169.95-61.39-176.72-152.22-2.8-37.64,7.26-73.27,26.48-102.57l-.33,3.72-10.48,119.81c-2.25,25.64,12,48.92,33.94,59.39,5.7,2.73,11.93,4.59,18.53,5.39.68.09,1.38.16,2.07.22l137.01,11.99,31.85,2.78,41.98,3.67Z"/>
      <path class="cls-3" d="M482.44,86.93l-15.13-1.32-220.25-19.27c-33-2.89-62.11,21.54-65,54.54l-18.38,210.1-2.14,24.44-2.39,27.31c-38.88-36.36-64.74-86.88-69.01-144.15C81.13,117.55,171.94,12.13,292.96,3.12c75.97-5.66,145.79,28.02,189.48,83.81Z"/>
      <path class="cls-3" d="M575.78,712.65c-18.21,1.35-34.12-13-35.54-32.06-.73-9.82,2.53-18.97,8.35-25.73l23.43,2.05,28.9,2.53c2.93,4.72,4.81,10.25,5.26,16.24,1.42,19.06-12.19,35.61-30.4,36.97Z"/>
      <ellipse class="cls-3" cx="61.9" cy="398.8" rx="59.38" ry="62.16" transform="translate(-29.44 5.7) rotate(-4.26)"/>
      <path class="cls-3" d="M526.05,652.89c-10.74,16.65-28.43,28.14-49.13,29.68-27.87,2.08-53.02-14.5-64.19-39.6l113.32,9.92Z"/>
      <path class="cls-3" d="M612.24,98.29l-73.88-6.46c7.4-9.49,18.62-15.95,31.57-16.91,18.04-1.34,34.35,8.35,42.31,23.37Z"/>
      <path class="cls-3" d="M702.7,595.18l16.55-189.11.09-1.07,13.95-159.4c46.44,34.36,78.22,87.99,82.84,150.13,6.4,85.85-40.86,163.31-113.43,199.45Z"/>
    </g>
    <path class="cls-1" d="M685.39,104.69l-73.15-6.4-73.88-6.46-38.15-3.34-17.77-1.56-15.13-1.32-220.25-19.27c-33-2.89-62.11,21.54-65,54.54l-18.38,210.1-2.14,24.44-2.39,27.31-3.4,38.9-1.23,14.05-.33,3.72-10.48,119.81c-2.25,25.64,12,48.92,33.94,59.39,5.7,2.73,11.93,4.59,18.53,5.39.68.09,1.38.16,2.07.22l137.01,11.99,31.85,2.78,41.98,3.67,3.64.32,113.32,9.92,22.54,1.97,23.43,2.05,28.9,2.53,5.61.49,30.05,2.63c33,2.89,62.11-21.54,65-54.54l1.12-12.84,16.55-189.11.09-1.07,13.95-159.4,6.64-75.91c2.89-33-21.54-62.11-54.54-65ZM465.59,376.71l-10.59,121-2.19,25.05c-.52,5.91-1.38,11.43-2.57,16.58-.98,4.24-2.18,8.23-3.59,11.97-7.1,18.87-19.51,31.38-35.67,38.12-11.81,4.93-25.63,6.76-40.83,5.74-.86-.05-1.72-.12-2.58-.19-16.75-1.46-30.38-6.13-41.36-12.97-16.52-10.26-27.04-25.42-33.14-41.86l44.96-22.04c6.95,15.29,13.34,28.27,31.4,29.85,17.18,1.51,28.73-4.26,31.02-30.53l6.82-78,1.87-21.36.7-7.98,5.48-62.66.72-8.2,2.07.18,50.36,4.41-2.88,32.89ZM663.1,547.31c-4.1,46.89-43.19,69.55-92.61,65.41-.19-.01-.38-.02-.57-.04-4.19-.37-8.23-.89-12.13-1.58-7.64-1.32-14.74-3.22-21.32-5.62-12.23-4.45-22.64-10.64-31.29-18.06-6.69-5.74-12.33-12.22-16.97-19.22-3.67-5.52-6.69-11.36-9.11-17.42l6.4-2.98,38.47-17.94c.51,1.03,1.04,2.05,1.58,3.05,3.67,6.89,7.93,13.11,13.19,18.28,8.33,8.21,19.15,13.76,34.11,15.07,21.67,1.9,36.57-7.71,37.88-22.78,1.57-17.93-12.07-25.53-35.17-38.21l-12.59-6.75c-4.81-2.56-9.4-5.17-13.72-7.88-.56-.36-1.12-.71-1.68-1.07-27.39-17.6-43.74-39.29-40.57-75.63,1.92-21.85,12.82-39.97,30.13-51.06,1.92-1.24,3.92-2.38,6-3.43,12.92-6.56,28.74-9.6,46.64-8.03,33.37,2.92,56.27,16.59,70.79,48.48l-2.91,1.52-15.16,7.94-25.06,13.12c-1.14-2.54-2.31-4.85-3.54-6.96-6.91-11.92-15.44-17.29-28.24-18.41-14.26-1.25-24.4,6.35-26.62,17.65-.17.83-.29,1.69-.37,2.57-.37,4.25.03,7.88,1.24,11.15,2.28,6.12,7.4,10.96,15.65,16.24,3.59,2.31,7.77,4.7,12.57,7.31l12.58,6.75c42.92,22.95,66.23,44.69,62.4,88.53Z"/>
    <path class="cls-2" d="M685.39,104.69l-73.15-6.4-73.88-6.46-38.15-3.34-17.77-1.56-15.13-1.32-220.25-19.27c-33-2.89-62.11,21.54-65,54.54l-18.38,210.1-2.14,24.44-2.39,27.31-3.4,38.9-1.23,14.05-.33,3.72-10.48,119.81c-2.25,25.64,12,48.92,33.94,59.39,5.7,2.73,11.93,4.59,18.53,5.39.68.09,1.38.16,2.07.22l137.01,11.99,31.85,2.78,41.98,3.67,3.64.32,113.32,9.92,22.54,1.97,23.43,2.05,28.9,2.53,5.61.49,30.05,2.63c33,2.89,62.11-21.54,65-54.54l1.12-12.84,16.55-189.11.09-1.07,13.95-159.4,6.64-75.91c2.89-33-21.54-62.11-54.54-65Z"/>
  </g>
</svg>