<?xml version="1.0" encoding="UTF-8"?>
<svg id="Layer_2" xmlns="http://www.w3.org/2000/svg" viewBox="0 0 819.21 715.23">
  <defs>
    <style>
      .cls-1 {
        fill: #80ccfd;
      }

      .cls-2 {
        opacity: .15;
      }

      .cls-3 {
        fill: none;
        stroke: #80ccfd;
        stroke-miterlimit: 10;
        stroke-width: 5px;
      }
    </style>
  </defs>
  <g id="njs_3">
    <g class="cls-2">
      <path class="cls-1" d="M192.46,476.61l1.84-20.98,1.97-22.56,1.86-21.22,1.96-22.47c23.07-15.63,50.41-25.62,80.18-27.84,15.46-1.15,30.58-.13,45.06,2.81l-6.78,77.45-5.66,64.73c-1.68,19.24-22.11,36.63-52.1,21.45-1.72-.87-3.48-1.85-5.26-2.94l-24.79-17.35-35.2-24.64c-2.15-1.32-3.3-3.94-3.08-6.44Z"/>
      <path class="cls-1" d="M456.19,546.46c-.07.56-.14,1.12-.21,1.68-4.53,33.64-19.29,64.35-41.25,88.6-.16-.1-.33-.2-.48-.31l-5.16-3.7-21.26-15.26-29.69-21.31c-1.65-1.27-3.87-1.84-5.7-1-16.15,7.46-19.96,8.66-33.49,12.12-.87.22-1.78.45-2.73.69-3.86.92-9.67,2.68,1.24,10.18l15.29,10.94,27.66,19.82,21.74,15.56c-22.46,14.58-48.8,23.88-77.39,26-90.83,6.77-169.95-61.39-176.72-152.22-2.8-37.65,7.27-73.29,26.49-102.59l-.33,3.76-2.93,33.46c-1.52,17.36,6.31,34.28,20.54,44.2l57.38,40.12c.44.27.88.53,1.31.8,26.97,16.27,37.34,17.18,50.49,18.33,11.02.96,20.99.13,29.81-2.4,25.87-7.43,41.79-29.46,44.78-63.54l6.54-74.79h0s4.97-56.72,4.97-56.72c11.78,5.98,22.77,13.35,32.75,21.9l-5.82-.51c-3.74-.33-6.88,2.41-7.19,6.03-.61,6.94-.56,14.18.51,21.44,2.44,16.78,10.32,33.67,28.11,47.23,9.73,7.42,22.42,13.85,38.81,18.72,1.3,6.55,2.21,13.24,2.72,20.07.83,11.11.53,22.05-.79,32.7Z"/>
      <path class="cls-1" d="M448.56,52.29c-1.39.47-2.76,1.01-4.1,1.62l-242.01,112.94c-15.74,7.31-26.4,22.73-27.91,39.96l-10.86,124.19-2.14,24.44-2.39,27.29c-38.88-36.36-64.74-86.88-69.01-144.15C81.13,117.55,171.94,12.13,292.96,3.12c58.58-4.36,113.5,14.66,155.6,49.17Z"/>
      <path class="cls-1" d="M519.28,287.17c-6.24,20.2-15.35,39.23-26.86,56.57-40.35-10.41-44.7-16.58-43.5-30.26.86-9.7,4.9-21.4,25.44-25.96,1.85-.41,3.85-.77,5.99-1.06,7.99-1.07,18.02-1.24,30.59-.14,2.89.25,5.67.53,8.34.85Z"/>
      <path class="cls-1" d="M529.04,222.28c0,3.7-.09,7.37-.27,11.02-.22,4.7-.6,9.37-1.13,14-4.24-.56-8.62-1.04-13.16-1.44-8.84-.78-17.25-1.01-25.19-.71-7.5.27-14.59,1.01-21.22,2.21-19.49,3.51-35.13,10.92-46.22,21.83-.05.04-.1.09-.14.14-2.43,2.4-4.64,4.97-6.63,7.71,0,.01,0,.02-.02.04-6.82,9.41-10.94,20.76-12.09,33.89-1.57,17.91,2.2,31.65,10.5,42.45,9.82,12.8,26.02,21.47,47.27,28.06-9.68,9.23-20.22,17.58-31.49,24.94-1.01-1.96-2.99-3.33-5.38-3.54l-18.36-1.61-5.67-.49-5.82-.51c-3.74-.33-6.88,2.41-7.19,6.03-.61,6.94-.56,14.18.51,21.44-8.18,3.1-16.59,5.73-25.22,7.85l4.97-56.71,5.73-65.54,3.94-45.13,1.81-20.65c.33-3.75-2.54-6.89-6.16-7.21l-29.22-2.55c-3.74-.33-6.99,2.28-7.32,6.02l-3.11,35.54-4.96,56.69-2.47,28.3-6.78,77.45c-43.69,1.89-85.12-9.21-120.42-29.95l1.96-22.47,3.23-36.89.72-8.25,11.7-133.7c.23-2.62,1.82-5,4.17-6.05l242.01-112.95c2.04-.97,4.61-.84,6.57.28.19.1.37.22.55.35l20.16,14.11,11.59,8.11c3.03,5.37,5.84,10.87,8.41,16.52h0c10.53,23.04,17.23,48.3,19.22,75.03.4,5.49.61,10.93.62,16.34Z"/>
      <ellipse class="cls-1" cx="573.21" cy="678.13" rx="33.06" ry="34.61" transform="translate(-48.77 44.44) rotate(-4.26)"/>
      <ellipse class="cls-1" cx="61.9" cy="398.8" rx="59.38" ry="62.16" transform="translate(-29.44 5.7) rotate(-4.26)"/>
      <path class="cls-1" d="M530.98,585.96l-15.53,7.24-9.97,4.65-84.11,39.2c-1.95.99-4.65.84-6.64-.31-.16-.1-.33-.2-.48-.31l-5.16-3.7c-1.17-4.3-1.95-8.79-2.29-13.41-2.51-33.73,18.83-63.48,49.18-71.18.46-.12.93-.23,1.39-.35,3.06-.69,6.2-1.17,9.41-1.41,27.87-2.08,53.01,14.49,64.2,39.58Z"/>
      <path class="cls-1" d="M535.59,629.66c-6.03,28.55-29.32,50.73-58.67,52.91-13.2.98-25.79-2.21-36.56-8.52l95.23-44.39Z"/>
      <path class="cls-1" d="M570.31,163.03c-16.62-1.07-31-11.44-37.53-26.26l37.53,26.26Z"/>
      <path class="cls-1" d="M611.39,141.16l-72.08-50.5c7.39-8.85,18.22-14.82,30.62-15.74,24.32-1.81,45.51,16.44,47.32,40.77.69,9.24-1.52,18.03-5.86,25.47Z"/>
      <path class="cls-1" d="M577.41,431.03c-1.14,13.06-7.3,21.86-19.44,26.79-11.77,4.79-29.16,5.95-53.07,3.86-61.05-5.35-73.07-21.87-74.91-52.61-.06-.95-.32-1.85-.74-2.65-1.01-1.96-2.99-3.33-5.38-3.54l-18.36-1.61c.76-16.48,3.49-32.52,7.96-47.85,9.82,12.8,26.02,21.47,47.27,28.06,11.35,3.52,24.14,6.45,38.18,9.09,28.78,5.37,47.23,10.4,58.95,15.39,18.79,8,20.34,15.92,19.54,25.07Z"/>
      <path class="cls-1" d="M690.96,251.99l-12.94,147.95-.97,11.05-9.38,107.2c-.22,2.5-1.81,4.87-4.04,5.94l-119.53,55.71-13.12,6.12-15.53,7.24c-21.95-11.55-41.64-26.96-58.08-45.41-.4-.44-.79-.88-1.18-1.33-17.99-20.53-32.01-44.74-40.74-71.49,9.73,7.42,22.42,13.85,38.81,18.72,13.21,3.92,28.83,6.84,47.23,8.45,15.27,1.31,29.29,1.24,41.96-.15.35-.03.7-.07,1.05-.12,47.2-5.47,75.33-29.45,78.79-68.84.7-8.02.44-15.17-.77-21.58-.4-2.1-.9-4.12-1.51-6.06-8.09-26.15-34.71-38.99-80.07-50.22-5.04-1.25-10.32-2.48-15.83-3.7-.22-.05-.44-.1-.65-.15-12.62-2.81-23.2-5.3-32.04-7.58-40.35-10.41-44.7-16.58-43.5-30.26.86-9.7,4.9-21.4,25.44-25.96,1.85-.41,3.85-.77,5.99-1.06,7.99-1.07,18.02-1.24,30.59-.14,2.89.25,5.67.53,8.34.85,40.96,4.81,55.83,17.04,60.01,47.65.36,3.05,2.91,5.54,6.03,5.81l29.97,2.62c1.87.17,3.68-.43,5.05-1.69,1.37-1.27,2.16-3.08,2.2-4.97.19-52.07-30.06-80.63-94.9-89.29-4.24-.56-8.62-1.04-13.16-1.44-8.84-.78-17.25-1.01-25.19-.71,10.91-8.03,22.65-15.01,35.11-20.79,1.53-.71,3.08-1.41,4.64-2.08,20.6-8.95,43.03-14.65,66.69-16.41,6.64-.49,13.22-.67,19.75-.53h0c5.64.11,11.22.46,16.75,1.03l55.66,38.94c2.12,1.57,3.29,4.06,3.06,6.68Z"/>
      <path class="cls-1" d="M626.28,616.13c-18.78,1.4-37.15.23-54.78-3.21l109.72-51.14c15.75-7.43,26.4-22.73,27.9-39.96l10.13-115.73.09-1.07,13.06-149.28c.33-3.71.22-7.4-.28-11.01,47.08,34.33,79.35,88.34,84.01,151,8.44,113.29-76.56,211.97-189.85,220.4Z"/>
    </g>
    <g>
      <path class="cls-3" d="M192.46,476.61l1.84-20.98,1.97-22.56,1.86-21.22,1.96-22.47c23.07-15.63,50.41-25.62,80.18-27.84,15.46-1.15,30.58-.13,45.06,2.81l-6.78,77.45-5.66,64.73c-1.68,19.24-22.11,36.63-52.1,21.45-1.72-.87-3.48-1.85-5.26-2.94l-24.79-17.35-35.2-24.64c-2.15-1.32-3.3-3.94-3.08-6.44Z"/>
      <path class="cls-3" d="M456.19,546.46c-.07.56-.14,1.12-.21,1.68-4.53,33.64-19.29,64.35-41.25,88.6-.16-.1-.33-.2-.48-.31l-5.16-3.7-21.26-15.26-29.69-21.31c-1.65-1.27-3.87-1.84-5.7-1-16.15,7.46-19.96,8.66-33.49,12.12-.87.22-1.78.45-2.73.69-3.86.92-9.67,2.68,1.24,10.18l15.29,10.94,27.66,19.82,21.74,15.56c-22.46,14.58-48.8,23.88-77.39,26-90.83,6.77-169.95-61.39-176.72-152.22-2.8-37.65,7.27-73.29,26.49-102.59l-.33,3.76-2.93,33.46c-1.52,17.36,6.31,34.28,20.54,44.2l57.38,40.12c.44.27.88.53,1.31.8,26.97,16.27,37.34,17.18,50.49,18.33,11.02.96,20.99.13,29.81-2.4,25.87-7.43,41.79-29.46,44.78-63.54l6.54-74.79h0s4.97-56.72,4.97-56.72c11.78,5.98,22.77,13.35,32.75,21.9l-5.82-.51c-3.74-.33-6.88,2.41-7.19,6.03-.61,6.94-.56,14.18.51,21.44,2.44,16.78,10.32,33.67,28.11,47.23,9.73,7.42,22.42,13.85,38.81,18.72,1.3,6.55,2.21,13.24,2.72,20.07.83,11.11.53,22.05-.79,32.7Z"/>
      <path class="cls-3" d="M448.56,52.29c-1.39.47-2.76,1.01-4.1,1.62l-242.01,112.94c-15.74,7.31-26.4,22.73-27.91,39.96l-10.86,124.19-2.14,24.44-2.39,27.29c-38.88-36.36-64.74-86.88-69.01-144.15C81.13,117.55,171.94,12.13,292.96,3.12c58.58-4.36,113.5,14.66,155.6,49.17Z"/>
      <path class="cls-3" d="M519.28,287.17c-6.24,20.2-15.35,39.23-26.86,56.57-40.35-10.41-44.7-16.58-43.5-30.26.86-9.7,4.9-21.4,25.44-25.96,1.85-.41,3.85-.77,5.99-1.06,7.99-1.07,18.02-1.24,30.59-.14,2.89.25,5.67.53,8.34.85Z"/>
      <path class="cls-3" d="M529.04,222.28c0,3.7-.09,7.37-.27,11.02-.22,4.7-.6,9.37-1.13,14-4.24-.56-8.62-1.04-13.16-1.44-8.84-.78-17.25-1.01-25.19-.71-7.5.27-14.59,1.01-21.22,2.21-19.49,3.51-35.13,10.92-46.22,21.83-.05.04-.1.09-.14.14-2.43,2.4-4.64,4.97-6.63,7.71,0,.01,0,.02-.02.04-6.82,9.41-10.94,20.76-12.09,33.89-1.57,17.91,2.2,31.65,10.5,42.45,9.82,12.8,26.02,21.47,47.27,28.06-9.68,9.23-20.22,17.58-31.49,24.94-1.01-1.96-2.99-3.33-5.38-3.54l-18.36-1.61-5.67-.49-5.82-.51c-3.74-.33-6.88,2.41-7.19,6.03-.61,6.94-.56,14.18.51,21.44-8.18,3.1-16.59,5.73-25.22,7.85l4.97-56.71,5.73-65.54,3.94-45.13,1.81-20.65c.33-3.75-2.54-6.89-6.16-7.21l-29.22-2.55c-3.74-.33-6.99,2.28-7.32,6.02l-3.11,35.54-4.96,56.69-2.47,28.3-6.78,77.45c-43.69,1.89-85.12-9.21-120.42-29.95l1.96-22.47,3.23-36.89.72-8.25,11.7-133.7c.23-2.62,1.82-5,4.17-6.05l242.01-112.95c2.04-.97,4.61-.84,6.57.28.19.1.37.22.55.35l20.16,14.11,11.59,8.11c3.03,5.37,5.84,10.87,8.41,16.52h0c10.53,23.04,17.23,48.3,19.22,75.03.4,5.49.61,10.93.62,16.34Z"/>
      <ellipse class="cls-3" cx="573.21" cy="678.13" rx="33.06" ry="34.61" transform="translate(-48.77 44.44) rotate(-4.26)"/>
      <ellipse class="cls-3" cx="61.9" cy="398.8" rx="59.38" ry="62.16" transform="translate(-29.44 5.7) rotate(-4.26)"/>
      <path class="cls-3" d="M530.98,585.96l-15.53,7.24-9.97,4.65-84.11,39.2c-1.95.99-4.65.84-6.64-.31-.16-.1-.33-.2-.48-.31l-5.16-3.7c-1.17-4.3-1.95-8.79-2.29-13.41-2.51-33.73,18.83-63.48,49.18-71.18.46-.12.93-.23,1.39-.35,3.06-.69,6.2-1.17,9.41-1.41,27.87-2.08,53.01,14.49,64.2,39.58Z"/>
      <path class="cls-3" d="M535.59,629.66c-6.03,28.55-29.32,50.73-58.67,52.91-13.2.98-25.79-2.21-36.56-8.52l95.23-44.39Z"/>
      <path class="cls-3" d="M570.31,163.03c-16.62-1.07-31-11.44-37.53-26.26l37.53,26.26Z"/>
      <path class="cls-3" d="M611.39,141.16l-72.08-50.5c7.39-8.85,18.22-14.82,30.62-15.74,24.32-1.81,45.51,16.44,47.32,40.77.69,9.24-1.52,18.03-5.86,25.47Z"/>
      <path class="cls-3" d="M577.41,431.03c-1.14,13.06-7.3,21.86-19.44,26.79-11.77,4.79-29.16,5.95-53.07,3.86-61.05-5.35-73.07-21.87-74.91-52.61-.06-.95-.32-1.85-.74-2.65-1.01-1.96-2.99-3.33-5.38-3.54l-18.36-1.61c.76-16.48,3.49-32.52,7.96-47.85,9.82,12.8,26.02,21.47,47.27,28.06,11.35,3.52,24.14,6.45,38.18,9.09,28.78,5.37,47.23,10.4,58.95,15.39,18.79,8,20.34,15.92,19.54,25.07Z"/>
      <path class="cls-3" d="M690.96,251.99l-12.94,147.95-.97,11.05-9.38,107.2c-.22,2.5-1.81,4.87-4.04,5.94l-119.53,55.71-13.12,6.12-15.53,7.24c-21.95-11.55-41.64-26.96-58.08-45.41-.4-.44-.79-.88-1.18-1.33-17.99-20.53-32.01-44.74-40.74-71.49,9.73,7.42,22.42,13.85,38.81,18.72,13.21,3.92,28.83,6.84,47.23,8.45,15.27,1.31,29.29,1.24,41.96-.15.35-.03.7-.07,1.05-.12,47.2-5.47,75.33-29.45,78.79-68.84.7-8.02.44-15.17-.77-21.58-.4-2.1-.9-4.12-1.51-6.06-8.09-26.15-34.71-38.99-80.07-50.22-5.04-1.25-10.32-2.48-15.83-3.7-.22-.05-.44-.1-.65-.15-12.62-2.81-23.2-5.3-32.04-7.58-40.35-10.41-44.7-16.58-43.5-30.26.86-9.7,4.9-21.4,25.44-25.96,1.85-.41,3.85-.77,5.99-1.06,7.99-1.07,18.02-1.24,30.59-.14,2.89.25,5.67.53,8.34.85,40.96,4.81,55.83,17.04,60.01,47.65.36,3.05,2.91,5.54,6.03,5.81l29.97,2.62c1.87.17,3.68-.43,5.05-1.69,1.37-1.27,2.16-3.08,2.2-4.97.19-52.07-30.06-80.63-94.9-89.29-4.24-.56-8.62-1.04-13.16-1.44-8.84-.78-17.25-1.01-25.19-.71,10.91-8.03,22.65-15.01,35.11-20.79,1.53-.71,3.08-1.41,4.64-2.08,20.6-8.95,43.03-14.65,66.69-16.41,6.64-.49,13.22-.67,19.75-.53h0c5.64.11,11.22.46,16.75,1.03l55.66,38.94c2.12,1.57,3.29,4.06,3.06,6.68Z"/>
      <path class="cls-3" d="M626.28,616.13c-18.78,1.4-37.15.23-54.78-3.21l109.72-51.14c15.75-7.43,26.4-22.73,27.9-39.96l10.13-115.73.09-1.07,13.06-149.28c.33-3.71.22-7.4-.28-11.01,47.08,34.33,79.35,88.34,84.01,151,8.44,113.29-76.56,211.97-189.85,220.4Z"/>
    </g>
    <g>
      <path class="cls-1" d="M522.59,505.58c-6.81,0-13.98-.32-21.31-.95-17.82-1.56-33.88-4.43-47.73-8.54-15.8-4.69-29.13-11.13-39.62-19.13-16.39-12.49-26.17-28.93-29.07-48.86-1.02-6.94-1.2-14.35-.53-22.02.41-4.75,4.31-8.34,9.07-8.34.27,0,.55.01.83.04l5.82.51,5.67.49,18.36,1.61c3.19.28,5.95,2.11,7.38,4.88.59,1.12.93,2.35,1.01,3.64,1.79,29.91,13.12,45.06,72.63,50.28,7.49.65,14.38.99,20.5.99,13.41,0,23.68-1.53,31.4-4.67,11.13-4.52,16.82-12.37,17.89-24.69.71-8.13-.17-14.95-18.03-22.55-12.18-5.19-31.3-10.17-58.43-15.23-15.25-2.87-27.83-5.86-38.46-9.16-23.56-7.31-38.98-16.5-48.51-28.93-8.99-11.69-12.59-26.15-11.01-44.19,1.17-13.39,5.37-25.17,12.47-35.01.03-.06.07-.11.11-.17,2.04-2.81,4.34-5.49,6.83-7.95.09-.1.18-.19.27-.27,11.51-11.3,27.48-18.85,47.47-22.45,6.73-1.22,13.99-1.98,21.57-2.25,2.26-.09,4.58-.13,6.91-.13,5.97,0,12.23.29,18.59.85,4.55.4,9.01.89,13.27,1.45,33.25,4.44,57.2,13.93,73.22,29.02,16.15,15.21,23.95,35.73,23.85,62.75-.05,2.62-1.15,5.08-3,6.79-1.68,1.54-3.85,2.38-6.13,2.38-.28,0-.56-.01-.85-.04l-29.96-2.62c-4.3-.37-7.79-3.74-8.29-8.01-4.06-29.74-18.11-40.8-57.82-45.46-2.58-.31-5.28-.58-8.26-.84-5.6-.49-10.89-.74-15.71-.74-5.22,0-10.05.29-14.33.87-1.99.27-3.93.61-5.78,1.02-19.34,4.29-22.71,14.94-23.49,23.74-.98,11.15.38,16.98,41.63,27.62,8.49,2.19,18.94,4.66,31.96,7.56l.67.16c5.65,1.25,11,2.5,15.87,3.71,42.77,10.59,73.06,23.47,81.86,51.91.62,1.99,1.16,4.12,1.58,6.33,1.26,6.7,1.53,13.98.8,22.27-3.53,40.21-32.29,65.46-80.99,71.11-.33.05-.73.09-1.12.13-6.62.73-13.73,1.1-21.08,1.1Z"/>
      <path class="cls-1" d="M496.11,245.02c5.89,0,12.02.28,18.37.84,4.54.4,8.92.88,13.16,1.44,64.84,8.66,95.09,37.22,94.9,89.29-.04,1.89-.83,3.7-2.2,4.97-1.22,1.12-2.78,1.72-4.43,1.72-.21,0-.41,0-.62-.03l-29.97-2.62c-3.12-.27-5.67-2.76-6.03-5.81-4.18-30.61-19.05-42.84-60.01-47.65-2.67-.32-5.45-.6-8.34-.85-5.84-.51-11.13-.75-15.92-.75-5.53,0-10.39.31-14.67.89-2.14.29-4.14.65-5.99,1.06-20.54,4.56-24.58,16.26-25.44,25.96-1.2,13.68,3.15,19.85,43.5,30.26,8.84,2.28,19.42,4.77,32.04,7.58.21.05.43.1.65.15,5.51,1.22,10.79,2.45,15.83,3.7,45.36,11.23,71.98,24.07,80.07,50.22.61,1.94,1.11,3.96,1.51,6.06,1.21,6.41,1.47,13.56.77,21.58-3.46,39.39-31.59,63.37-78.79,68.84-.35.05-.7.09-1.05.12-6.59.72-13.55,1.09-20.86,1.09-6.74,0-13.77-.31-21.1-.94-18.4-1.61-34.02-4.53-47.23-8.45-16.39-4.87-29.08-11.3-38.81-18.72-17.79-13.56-25.67-30.45-28.11-47.23-1.07-7.26-1.12-14.5-.51-21.44.29-3.42,3.11-6.06,6.58-6.06.2,0,.4,0,.61.03l5.82.51,5.67.49,18.36,1.61c2.39.21,4.37,1.58,5.38,3.54.42.8.68,1.7.74,2.65,1.84,30.74,13.86,47.26,74.91,52.61,7.55.66,14.45,1,20.72,1,13.61,0,24.29-1.58,32.35-4.86,12.14-4.93,18.3-13.73,19.44-26.79.8-9.15-.75-17.07-19.54-25.07-11.72-4.99-30.17-10.02-58.95-15.39-14.04-2.64-26.83-5.57-38.18-9.09-21.25-6.59-37.45-15.26-47.27-28.06-8.3-10.8-12.07-24.54-10.5-42.45,1.15-13.13,5.27-24.48,12.09-33.89,0-.02.02-.03.02-.04,1.99-2.74,4.2-5.31,6.63-7.71.04-.05.09-.1.14-.14,11.09-10.91,26.73-18.32,46.22-21.83,6.63-1.2,13.72-1.94,21.22-2.21,2.24-.08,4.51-.13,6.82-.13M496.11,240.02c-2.36,0-4.72.04-7.01.13-7.69.28-15.07,1.05-21.92,2.29-20.46,3.68-36.86,11.45-48.73,23.08-.13.12-.25.24-.37.37-2.57,2.55-4.94,5.31-7.04,8.21-.06.08-.11.16-.16.24-7.34,10.2-11.67,22.38-12.88,36.19-1.64,18.69,2.13,33.72,11.52,45.93,9.86,12.85,25.67,22.32,49.75,29.79,10.72,3.32,23.39,6.34,38.74,9.23,26.96,5.03,45.9,9.96,57.92,15.08,17.61,7.5,17.06,13.87,16.52,20.03-1,11.44-6.04,18.41-16.34,22.59-7.42,3.02-17.39,4.49-30.46,4.49-6.05,0-12.87-.33-20.29-.98-62.98-5.52-68.88-23.35-70.35-47.93-.1-1.66-.54-3.23-1.3-4.67-1.81-3.51-5.32-5.84-9.37-6.2l-18.36-1.61-5.68-.49-5.81-.51c-.35-.03-.7-.05-1.05-.05-6.07,0-11.04,4.57-11.56,10.63-.69,7.85-.51,15.46.55,22.6,2.99,20.59,13.1,37.57,30.03,50.48,10.73,8.18,24.33,14.76,40.42,19.54,14.01,4.16,30.24,7.06,48.22,8.64,7.41.64,14.66.96,21.53.96,7.42,0,14.6-.37,21.35-1.11.4-.04.8-.08,1.2-.14,49.96-5.81,79.49-31.86,83.13-73.36.74-8.52.47-16.02-.84-22.95-.44-2.32-1-4.54-1.65-6.63-4.28-13.82-13.53-24.79-28.28-33.51-12.81-7.57-29.88-13.76-55.35-20.06-4.9-1.22-10.27-2.47-15.95-3.73-.18-.04-.38-.09-.58-.13-.02,0-.04-.01-.07-.02-13-2.89-23.42-5.36-31.88-7.54-41.03-10.59-40.56-16-39.77-24.98.75-8.44,3.89-17.6,21.54-21.52,1.77-.39,3.65-.73,5.58-.99,4.17-.56,8.88-.84,14-.84,4.75,0,9.96.25,15.49.73,2.97.26,5.65.53,8.18.83,20.19,2.37,32.91,6.41,41.27,13.09,7.95,6.36,12.38,15.68,14.38,30.24.67,5.41,5.1,9.68,10.56,10.15l29.97,2.62c.34.03.7.05,1.06.05,2.91,0,5.68-1.08,7.81-3.04,2.36-2.19,3.75-5.3,3.81-8.55,0-.03,0-.06,0-.09.1-27.75-7.96-48.88-24.64-64.58-16.42-15.46-40.82-25.17-74.6-29.68-4.31-.57-8.81-1.06-13.38-1.46-6.44-.57-12.77-.86-18.81-.86h0Z"/>
    </g>
    <g>
      <path class="cls-1" d="M418.38,681.75c-1.47,0-2.97-.07-4.43-.19-8.91-.78-17.51-3.91-24.87-9.05l-30.13-21.57-27.66-19.82-15.29-10.94c-5.55-3.81-7.79-6.82-7.25-9.72.64-3.43,4.71-4.4,6.89-4.92l2.7-.68c13.59-3.48,17.28-4.68,33.05-11.97.91-.42,1.89-.63,2.92-.63,1.85,0,3.75.68,5.35,1.92l56.04,40.22c.09.06.17.11.24.15l.1.06c.63.37,1.51.59,2.39.59.68,0,1.3-.13,1.8-.39l84.19-39.24,38.62-18.01,119.53-55.71c1.4-.67,2.46-2.24,2.61-3.89l10.35-118.25,12.94-147.95c.15-1.72-.62-3.39-2.06-4.45l-55.6-38.9-99.33-69.51s-.09-.06-.14-.09l-63.73-44.6c-.11-.08-.19-.14-.27-.18-.76-.43-1.6-.65-2.43-.65-.68,0-1.34.14-1.91.41l-242.03,112.96c-1.52.68-2.58,2.25-2.74,4l-15.65,178.84-1.96,22.47-1.86,21.22-1.97,22.56-1.84,20.98c-.14,1.63.64,3.32,1.9,4.09.04.03.08.05.12.08l59.93,41.95c1.66,1.01,3.34,1.96,5.02,2.8,7.22,3.66,14.17,5.51,20.64,5.51,16.85,0,26.76-12.55,27.84-24.95l12.44-142.18,2.47-28.3,8.07-92.23c.42-4.75,4.36-8.33,9.17-8.33.28,0,.57.01.86.04l29.22,2.55c5.09.45,8.88,4.9,8.43,9.92l-1.81,20.65-9.67,110.67s-4.97,56.7-4.97,56.72l-6.54,74.79c-3.04,34.63-19.58,57.97-46.58,65.73-6.67,1.91-14.01,2.88-21.81,2.88-2.89,0-5.88-.13-8.91-.4-13.46-1.18-24.09-2.11-51.56-18.68-.28-.18-1.33-.81-1.33-.81-.04-.03-.08-.05-.12-.08l-57.38-40.12c-14.92-10.4-23.2-28.21-21.6-46.47l3.26-37.22,4.62-52.93,4.53-51.73,10.86-124.19c1.6-18.25,12.84-34.35,29.35-42.01l242.01-112.94c1.42-.65,2.88-1.22,4.36-1.72,2.85-.98,5.82-1.7,8.8-2.16,1.4-.21,2.78-.36,4.12-.46,1.33-.1,2.67-.15,4-.15,10.76,0,21.29,3.18,29.64,8.94l46.42,32.52,172.55,120.89c11.58,8.06,19.34,20.78,21.3,34.88.53,3.86.63,7.76.29,11.58l-13.06,149.28-.09,1.06-10.13,115.74c-1.58,18.12-12.81,34.21-29.32,42l-109.73,51.14-9.71,4.53-122.83,57.25c-6.73,3.13-14.21,4.79-21.63,4.79Z"/>
      <path class="cls-1" d="M464.68,49.65c10.03,0,20.1,2.89,28.22,8.5l10.37,7.27,9.54,6.68,26.5,18.56,72.08,50.5,100.47,70.39c11.19,7.79,18.42,19.92,20.26,33.18.5,3.61.61,7.3.28,11.01l-13.06,149.28-.09,1.07-10.13,115.73c-1.5,17.23-12.15,32.53-27.9,39.96l-109.72,51.14-9.71,4.53-14.19,6.61-12.01,5.6-95.23,44.39-1.4.65c-6.46,3-13.49,4.55-20.58,4.55-1.4,0-2.81-.06-4.21-.18-8.37-.73-16.66-3.72-23.65-8.61l-8.37-5.99-21.74-15.56-27.66-19.82-15.29-10.94c-10.91-7.5-5.1-9.26-1.24-10.18.95-.24,1.86-.47,2.73-.69,13.53-3.46,17.34-4.66,33.49-12.12.59-.27,1.23-.4,1.87-.4,1.34,0,2.71.54,3.83,1.4l29.69,21.31,21.26,15.26,5.16,3.7c.15.11.32.21.48.31,1.1.64,2.42.97,3.71.97,1.04,0,2.06-.21,2.93-.66l84.11-39.2,9.97-4.65,15.53-7.24,13.12-6.12,119.53-55.71c2.23-1.07,3.82-3.44,4.04-5.94l9.38-107.2.97-11.05,12.94-147.95c.23-2.62-.94-5.11-3.06-6.68l-55.66-38.94-61.93-43.34-37.53-26.26h0l-31.98-22.38-11.59-8.11-20.16-14.11c-.18-.13-.36-.25-.55-.35-1.08-.61-2.34-.93-3.59-.93-1.03,0-2.06.21-2.98.65l-242.01,112.95c-2.35,1.05-3.94,3.43-4.17,6.05l-11.7,133.7-.72,8.25-3.23,36.89-1.96,22.47-1.86,21.22-1.97,22.56-1.84,20.98c-.22,2.5.93,5.12,3.08,6.44l35.2,24.64,24.79,17.35c1.78,1.09,3.54,2.07,5.26,2.94,7.99,4.05,15.31,5.78,21.77,5.78,17.78,0,29.1-13.12,30.33-27.23l5.66-64.73,6.78-77.45,2.47-28.3,4.96-56.69,3.11-35.54c.31-3.53,3.22-6.05,6.68-6.05.21,0,.42,0,.64.03l29.22,2.55c3.62.32,6.49,3.46,6.16,7.21l-1.81,20.65-3.94,45.13-5.73,65.54-4.97,56.71h0s-6.54,74.8-6.54,74.8c-2.99,34.08-18.91,56.11-44.78,63.54-6.44,1.85-13.49,2.79-21.12,2.79-2.82,0-5.72-.13-8.69-.39-13.15-1.15-23.52-2.06-50.49-18.33-.43-.27-.87-.53-1.31-.8l-57.38-40.12c-14.23-9.92-22.06-26.84-20.54-44.2l2.93-33.46.33-3.76,1.22-14.01,3.4-38.92,2.39-27.29,2.14-24.44,10.86-124.19c1.51-17.23,12.17-32.65,27.91-39.96l242.01-112.94c1.34-.61,2.71-1.15,4.1-1.62,2.72-.93,5.52-1.62,8.38-2.06,1.3-.19,2.61-.34,3.93-.44,1.27-.09,2.54-.14,3.81-.14M464.68,44.65v5-5h0c-1.39,0-2.8.05-4.18.15-1.39.11-2.83.27-4.29.48-3.17.49-6.28,1.25-9.27,2.28-1.54.52-3.08,1.13-4.55,1.8l-242.05,112.96c-17.3,8.04-29.1,24.92-30.78,44.05l-10.86,124.19-2.14,24.44-2.39,27.29-3.4,38.92-1.22,14.01-.33,3.76-2.93,33.46c-1.68,19.15,7.01,37.82,22.66,48.74l57.37,40.12c.08.06.16.11.25.16l.54.33c.25.15.49.3.73.45.02.02.05.03.08.05,27.97,16.87,38.85,17.82,52.64,19.03,3.1.27,6.17.41,9.13.41,8.03,0,15.6-1,22.49-2.98,28.07-8.06,45.25-32.18,48.38-67.91l6.54-74.79s0-.06,0-.09l4.96-56.63,5.73-65.54,3.94-45.13,1.81-20.65c.56-6.39-4.24-12.06-10.7-12.63l-29.23-2.55c-.35-.03-.71-.05-1.07-.05-6.12,0-11.13,4.56-11.67,10.61l-3.11,35.54-4.96,56.69-2.47,28.3-6.78,77.45-5.66,64.73c-.98,11.26-10.01,22.66-25.35,22.66-6.08,0-12.64-1.76-19.51-5.24-1.59-.8-3.19-1.7-4.78-2.66l-24.66-17.26-35.2-24.64c-.08-.06-.17-.11-.25-.16-.46-.28-.78-1.05-.72-1.74l1.84-20.98,1.97-22.56,1.86-21.22,1.96-22.47,3.23-36.89.72-8.25,11.7-133.7c.07-.84.58-1.63,1.23-1.92.02-.01.05-.02.07-.03l242.01-112.95c.26-.12.55-.18.86-.18.4,0,.81.1,1.11.27.02.01.05.03.07.04l.03.02s.04.03.06.04l20.16,14.11,11.59,8.11,31.98,22.38c.07.05.13.09.2.13l37.34,26.13,61.93,43.34,55.59,38.89c.72.55,1.09,1.35,1.01,2.19l-12.94,147.95-.97,11.05-9.38,107.2c-.07.74-.6,1.56-1.21,1.86l-119.49,55.69-13.12,6.12-15.53,7.24-9.97,4.65-84.11,39.2c-.05.02-.1.05-.15.07-.1.05-.34.11-.67.11-.42,0-.85-.1-1.16-.27l-.03-.02-.09-.06-5.15-3.69-21.26-15.26-29.63-21.27c-2.02-1.53-4.44-2.38-6.8-2.38-1.39,0-2.72.29-3.96.85-15.6,7.2-19.23,8.39-32.64,11.82l-2.68.68c-2.36.56-7.81,1.88-8.74,6.89-.95,5.09,3.65,9.04,8.29,12.24l15.25,10.91,27.66,19.82,21.74,15.56,8.37,5.99s.03.02.04.03c7.71,5.4,16.73,8.68,26.08,9.49,1.54.13,3.1.2,4.65.2,7.78,0,15.62-1.74,22.68-5.02l1.4-.65,95.24-44.39,12.01-5.6,14.19-6.61,9.71-4.53,109.72-51.14c17.33-8.18,29.11-25.06,30.77-44.06l10.13-115.73.09-1.09,13.06-149.26c.36-4,.25-8.08-.31-12.13-2.05-14.8-10.2-28.14-22.36-36.6l-100.46-70.38-72.08-50.5-26.5-18.56-9.54-6.68-10.37-7.27c-8.79-6.07-19.82-9.41-31.08-9.41h0Z"/>
    </g>
  </g>
</svg>