<?xml version="1.0" encoding="UTF-8"?>
<svg id="Layer_2" xmlns="http://www.w3.org/2000/svg" viewBox="0 0 819.21 715.23">
  <defs>
    <style>
      .cls-1 {
        fill: #80ccfd;
      }

      .cls-2 {
        opacity: .15;
      }

      .cls-3 {
        fill: none;
        stroke: #80ccfd;
        stroke-miterlimit: 10;
        stroke-width: 5px;
      }
    </style>
  </defs>
  <g id="ps_3">
    <g class="cls-2">
      <path class="cls-1" d="M456.19,546.46c-.07.56-.14,1.12-.21,1.68-4.74,35.25-20.72,67.27-44.44,92.01-27.18,28.37-64.52,47.18-106.78,50.32-90.83,6.77-169.95-61.39-176.72-152.22-2.91-39.05,8.03-75.93,28.67-105.83l-.16,1.85-11.74,134.23c-.36,4.06,1.42,5.58,4.94,5.89l60.96,5.33,6.44.56c4.06.36,5.58-1.42,5.88-4.94l2.54-29.03,2.2-25.1,3.99-45.65,4.04-46.14,2.06-23.52c11.91,1.04,17.59,1.54,34.38,3.01,42.66,3.73,82.67-1.62,115.29-17.71,6.27,4.42,12.23,9.27,17.82,14.53,3.22,3.01,6.32,6.16,9.29,9.43,23.89,26.27,39.5,60.44,42.34,98.6.83,11.11.53,22.05-.79,32.7Z"/>
      <path class="cls-1" d="M278.23,340.25c-9.77-.35-19.51-1.16-29.2-2.43-1.54-.19-3.07-.41-4.61-.63l15.06-172.15c7.85.69,24.75.8,42.34,2.34,58.74,5.14,91.17,36.62,86.27,92.65-.01.11-.02.22-.03.32-1.36,15.14-4.79,27.68-9.86,38-18.27,37.27-57.84,45.49-98.05,41.97-.64-.02-1.27-.04-1.91-.07h-.01Z"/>
      <path class="cls-1" d="M529.04,222.28c.08,82.2-45.61,155.27-114.4,192.88-3.01,1.65-6.06,3.23-9.15,4.73-24.32,11.85-51.26,19.38-79.89,21.51-31.46,2.34-61.87-2.06-89.8-11.98l2.06-23.52c11.91,1.04,17.59,1.54,34.38,3.01,42.66,3.73,82.67-1.62,115.29-17.71,7.1-3.51,13.86-7.52,20.21-12.06,29.7-21.23,50.64-53.94,57.82-99.9.74-4.77,1.34-9.68,1.78-14.73.02-.26.05-.53.06-.79.06-.61.11-1.22.15-1.84,2.02-26.69-.87-51.97-9.66-74.38-.36-.91-.73-1.82-1.11-2.72-19.48-46.56-65.15-80.18-146.12-87.27-43.85-3.83-85.53-7.48-114.14-7.8-3.52-.31-9.94,1.31-10.22,4.56l-20.42,233.35-1.4,16.07-3.56,40.68c-39.87-36.48-66.45-87.65-70.78-145.79C81.13,117.55,171.94,12.13,292.96,3.12c121.03-9.01,226.45,81.8,235.46,202.82.4,5.49.61,10.93.62,16.34Z"/>
      <ellipse class="cls-1" cx="573.21" cy="678.13" rx="33.06" ry="34.61" transform="translate(-48.77 44.44) rotate(-4.26)"/>
      <ellipse class="cls-1" cx="61.9" cy="398.8" rx="59.38" ry="62.16" transform="translate(-29.44 5.7) rotate(-4.26)"/>
      <path class="cls-1" d="M537.1,613.61c.69,35.91-25.52,66.38-60.18,68.96-28.9,2.16-54.87-15.75-65.38-42.42-2.55-6.48-4.19-13.48-4.74-20.83-2.51-33.73,18.83-63.48,49.18-71.18.46-.12.93-.23,1.39-.35,3.06-.69,6.2-1.17,9.41-1.41,6.49-.48,12.83.04,18.87,1.45l-1.03,11.76-1.12,12.82-1.1,12.53c-.04.43-.07.84-.08,1.23-.11,2.82.47,4.7,2.98,6.12,16.2,9.62,33.65,16.79,51.8,21.32Z"/>
      <circle class="cls-1" cx="573.21" cy="118.96" r="44.17"/>
      <path class="cls-1" d="M628.73,615.94c45.64-10.59,77.74-42.09,82.28-93.91l.07-.81c4.11-46.89-14.31-80.79-80.15-119.47-.67-.4-1.35-.79-2.03-1.19-.24-.15-.48-.31-.72-.46-43.26-27.79-50.2-40.9-48.94-55.43,1.28-14.62,14.76-31.44,49.67-28.39,27.32,1.45,53.71,10.36,76.3,25.77,4.21,1.73,6.57-.24,6.9-4.03l5.31-60.64c.55-3.44-.82-6.9-3.58-9.04-24.5-11.66-51.1-18.25-78.22-19.39-63.93-5.59-108.35,23.08-124.69,65.4-2.09,5.41-3.72,11.04-4.87,16.86-.76,3.78-1.31,7.63-1.65,11.55-3.6,41.1,11.09,70.46,48.59,98.96,2.6,1.98,5.32,3.96,8.15,5.93,6.85,4.8,14.36,9.58,22.55,14.42,41.74,27.92,51.15,38.84,49.4,58.87-1.75,20.03-17.65,33.37-52.83,30.29-16.61-1.62-32.79-5.74-48.01-12.15-5.72-2.41-11.31-5.13-16.73-8.18-7.57-4.24-14.82-9.09-21.68-14.51-3.06-2.45-5.34-1.28-5.72,3.05l-2.48,28.39-1.03,11.76-1.12,12.82c-9.41-7.43-18.15-15.67-26.13-24.62-.4-.44-.79-.88-1.18-1.33-28.38-32.39-46.87-73.92-50.32-120.18-.16-2.13-.29-4.26-.38-6.39-.21-4.75-.25-9.47-.14-14.16.22-9,1.03-17.88,2.39-26.59,29.7-21.23,50.64-53.94,57.82-99.9.74-4.77,1.34-9.68,1.78-14.73.02-.26.05-.53.06-.79,17.68-17.26,38.51-31.4,61.64-41.44,20.6-8.95,43.03-14.65,66.69-16.41,113.29-8.44,211.97,76.57,220.4,189.86,8.38,112.47-75.34,210.54-187.4,220.21Z"/>
    </g>
    <g>
      <circle class="cls-3" cx="292.51" cy="526" r="164.92"/>
      <circle class="cls-3" cx="309.28" cy="222.26" r="219.75"/>
      <ellipse class="cls-3" cx="573.21" cy="678.13" rx="33.06" ry="34.61" transform="translate(-48.77 44.44) rotate(-4.26)"/>
      <ellipse class="cls-3" cx="61.9" cy="398.8" rx="59.38" ry="62.16" transform="translate(-29.44 5.7) rotate(-4.26)"/>
      <ellipse class="cls-3" cx="471.85" cy="614.47" rx="65.24" ry="68.29" transform="translate(-44.33 36.74) rotate(-4.26)"/>
      <circle class="cls-3" cx="573.21" cy="118.96" r="44.17"/>
      <circle class="cls-3" cx="611" cy="411" r="205.7"/>
    </g>
    <g>
      <path class="cls-1" d="M591.85,627.45c-5.88,0-11.96-.27-18.06-.8-4.64-.24-9.27-.64-13.77-1.19-8.06-.97-16.13-2.44-23.99-4.38-.09-.02-.19-.04-.28-.07-.24-.06-.44-.11-.64-.17-18.83-4.72-36.86-12.14-53.6-22.08-4.68-2.68-6.93-7.02-6.7-12.89.01-.45.05-1.03.11-1.63l3.25-37.07,2.48-28.39c.72-8.24,6.02-11.16,10.34-11.16,2.59,0,5.13.98,7.54,2.91,6.48,5.12,13.44,9.78,20.66,13.82,5.08,2.86,10.45,5.48,15.98,7.81,14.61,6.16,30.03,10.06,45.83,11.6,3.06.27,6.09.41,8.93.41,22.31,0,34.32-8.04,35.7-23.88,1.35-15.46-4.52-24.16-45.93-51.87-8.56-5.06-16.03-9.85-22.86-14.63-2.86-1.99-5.69-4.05-8.39-6.1-39.93-30.35-55.34-61.93-51.52-105.58.36-4.18.96-8.34,1.77-12.38,1.22-6.18,2.98-12.27,5.23-18.08,17.14-44.39,60.52-70.89,116.05-70.89,5.26,0,10.68.24,16.12.71,28.23,1.21,55.47,7.97,80.96,20.1.49.23.95.51,1.37.84,4.84,3.76,7.29,9.8,6.44,15.85l-5.29,60.41c-.6,6.88-5.25,11.51-11.57,11.51-1.82,0-3.72-.4-5.65-1.2-.48-.2-.94-.45-1.38-.74-21.45-14.63-46.51-23.1-72.47-24.48-.09,0-.17-.01-.26-.02-2.53-.22-5-.33-7.35-.33-23.8,0-33.27,11.32-34.2,21.91-.83,9.59,2.02,20.52,45.52,48.46l.58.37.67.39c.43.25.87.51,1.3.76,64.91,38.14,88.42,73.63,83.78,126.56l-.07.8c-2.35,26.79-11.65,49.27-27.66,66.82-15.15,16.61-35.47,27.96-60.4,33.75-.09.02-.17.04-.26.06-11.94,2.75-24.83,4.15-38.31,4.15Z"/>
      <path class="cls-1" d="M619.98,248.25c5.07,0,10.28.23,15.64.7,27.12,1.14,53.72,7.73,78.22,19.39,2.76,2.14,4.13,5.6,3.58,9.04l-5.31,60.64c-.25,2.84-1.64,4.66-4.1,4.66-.82,0-1.75-.2-2.8-.63-22.59-15.41-48.98-24.32-76.3-25.77-2.8-.24-5.47-.36-8-.36-28.99,0-40.49,15.31-41.67,28.75-1.26,14.53,5.68,27.64,48.94,55.43.24.15.48.31.72.46.68.4,1.36.79,2.03,1.19,65.84,38.68,84.26,72.58,80.15,119.47l-.07.81c-4.54,51.82-36.64,83.32-82.28,93.91h-.02c-11.5,2.67-23.86,4.01-36.85,4.01-5.73,0-11.58-.26-17.54-.78-4.48-.23-8.94-.61-13.38-1.15-7.85-.94-15.61-2.36-23.26-4.26h-.01c-.19-.05-.38-.09-.57-.15-18.15-4.53-35.6-11.7-51.8-21.32-2.51-1.42-3.09-3.3-2.98-6.12.01-.39.04-.8.08-1.23l1.1-12.53,1.12-12.82,1.03-11.76,2.48-28.39c.25-2.83,1.31-4.31,2.87-4.31.83,0,1.79.41,2.85,1.26,6.86,5.42,14.11,10.27,21.68,14.51,5.42,3.05,11.01,5.77,16.73,8.18,15.22,6.41,31.4,10.53,48.01,12.15,3.39.3,6.62.44,9.66.44,28.47,0,41.59-12.63,43.17-30.73,1.75-20.03-7.66-30.95-49.4-58.87-8.19-4.84-15.7-9.62-22.55-14.42-2.83-1.97-5.55-3.95-8.15-5.93-37.5-28.5-52.19-57.86-48.59-98.96.34-3.92.89-7.77,1.65-11.55,1.15-5.82,2.78-11.45,4.87-16.86,14.97-38.78,53.53-66.09,109.05-66.1M619.99,233.25v15-15c-29.34,0-56.23,7.21-77.77,20.83-20.87,13.21-36.53,32.18-45.29,54.86-2.4,6.2-4.28,12.7-5.58,19.32-.86,4.31-1.5,8.75-1.89,13.2-2.06,23.48,1.34,43.81,10.37,62.14,8.79,17.82,23.21,34.2,44.08,50.06,2.76,2.1,5.68,4.22,8.66,6.3,6.89,4.83,14.47,9.68,23.12,14.81,41.94,28.08,43.37,34.39,42.45,44.87-.41,4.66-1.49,17.04-28.23,17.04-2.6,0-5.39-.13-8.27-.38-15.02-1.47-29.67-5.19-43.57-11.04-5.27-2.22-10.38-4.72-15.2-7.43-6.89-3.86-13.51-8.29-19.71-13.18-4.68-3.73-9.2-4.51-12.18-4.51-7.82,0-16.73,5.63-17.81,18l-2.48,28.4-1.03,11.76-1.12,12.82-1.1,12.49c-.07.77-.11,1.44-.13,2.09-.41,11.5,6.26,17.16,10.42,19.56,17.32,10.27,35.98,17.96,55.45,22.85.31.09.55.15.7.18h-.05c.16.03.32.07.47.1,8.13,2.01,16.48,3.53,24.83,4.53,4.6.56,9.36.97,14.13,1.22,6.27.54,12.52.81,18.57.81,14.01,0,27.43-1.45,39.9-4.32.12-.03.25-.05.37-.08,54.78-12.71,88.98-51.79,93.83-107.21l.07-.83c2.48-28.24-2.66-51.2-16.17-72.21-13.79-21.45-36.44-40.98-71.29-61.46-.44-.26-.88-.52-1.33-.78l-.52-.3-.04-.03c-.15-.1-.3-.2-.46-.29-43.23-27.78-42.48-36.35-42.04-41.47.18-2,1.06-5.88,5.03-9.16,4.64-3.85,12.15-5.88,21.69-5.88,2.13,0,4.38.1,6.7.3.17.01.34.03.51.04,24.59,1.3,48.32,9.32,68.64,23.18.86.59,1.79,1.09,2.75,1.48,2.84,1.17,5.7,1.76,8.51,1.76,10.27,0,18.1-7.55,19.04-18.36l5.27-60.22c1.14-8.64-2.38-17.25-9.3-22.61-.85-.66-1.77-1.23-2.74-1.69-26.36-12.54-54.51-19.55-83.7-20.82-5.6-.48-11.18-.72-16.6-.72h0Z"/>
    </g>
    <g>
      <path class="cls-1" d="M218.13,587.82c-.53,0-1.08-.03-1.64-.08l-67.39-5.89c-3.77-.33-6.74-1.67-8.83-3.97-2.31-2.55-3.3-5.93-2.93-10.05l12.86-147.03,6.81-77.77,1.4-16.07,20.42-233.35c.65-7.51,8.93-11.44,16.78-11.44.42,0,.84.01,1.24.04,28.76.34,70.11,3.95,113.87,7.77l.59.05c40.02,3.5,73.48,13.58,99.46,29.96,24.36,15.35,42.16,36.17,52.92,61.89.39.93.78,1.89,1.16,2.85,8.93,22.76,12.35,48.9,10.17,77.71-.04.57-.09,1.2-.15,1.83-.01.21-.03.43-.05.64v.17c-.46,5.17-1.08,10.29-1.86,15.3-7.16,45.82-27.64,81.1-60.87,104.85-6.55,4.68-13.7,8.95-21.25,12.68-26.4,13.02-57.74,19.62-93.16,19.62h0c-8.49,0-17.27-.39-26.1-1.16l-26.91-2.36-5.45,62.19-3.99,45.65-4.74,54.13c-.74,8.72-6.88,11.83-12.37,11.83ZM278.58,332.75c.6.03,1.19.05,1.8.07.14,0,.28.01.42.02,5.4.47,10.68.71,15.69.71,37.22,0,62.44-12.96,74.97-38.51,4.83-9.83,7.9-21.73,9.12-35.37l.03-.31c5.56-63.62-40.14-81.08-79.45-84.52-10.36-.91-20.53-1.31-28.71-1.64-2.23-.09-4.28-.17-6.14-.25l-13.8,157.74c8.61,1.05,17.3,1.74,25.93,2.05.05,0,.09,0,.14,0Z"/>
      <path class="cls-1" d="M195.61,89.67c.32,0,.62.01.91.04,28.61.32,70.29,3.97,114.14,7.8,80.97,7.09,126.64,40.71,146.12,87.27.38.9.75,1.81,1.11,2.72,8.79,22.41,11.68,47.69,9.66,74.38-.04.62-.09,1.23-.15,1.84-.01.26-.04.53-.06.79-.44,5.05-1.04,9.96-1.78,14.73-7.18,45.96-28.12,78.67-57.82,99.9-6.35,4.54-13.11,8.55-20.21,12.06-26.04,12.85-56.79,18.85-89.84,18.85-8.35,0-16.85-.38-25.45-1.14-16.79-1.47-22.47-1.97-34.38-3.01l-2.06,23.52-4.04,46.14-3.99,45.65-2.2,25.1-2.54,29.03c-.27,3.22-1.57,4.99-4.9,4.99-.31,0-.63-.02-.98-.05l-6.44-.56-60.96-5.33c-3.52-.31-5.3-1.83-4.94-5.89l11.74-134.23.16-1.85.96-10.96,3.25-37.09,3.56-40.68,1.4-16.07,20.42-233.35c.26-2.99,5.7-4.6,9.31-4.6M278.23,340.25h.01c.64.03,1.27.05,1.91.07,5.48.48,10.94.74,16.35.74,34.25,0,65.92-10.52,81.7-42.71,5.07-10.32,8.5-22.86,9.86-38,.01-.1.02-.21.03-.32,4.9-56.03-27.53-87.51-86.27-92.65-17.59-1.54-34.49-1.65-42.34-2.34l-15.06,172.15c1.54.22,3.07.44,4.61.63,9.69,1.27,19.43,2.08,29.2,2.43M195.61,74.67c-11.27,0-23.22,6.29-24.26,18.31l-20.42,233.33-1.4,16.08-3.56,40.67-3.25,37.09-.96,10.96-.16,1.87-11.74,134.22c-.69,7.82,2.25,12.87,4.85,15.73,3.4,3.75,8.01,5.9,13.72,6.4l60.97,5.33,6.45.56c.76.07,1.53.1,2.28.1,10.92,0,18.89-7.52,19.85-18.71l2.54-29,2.2-25.1,3.99-45.65,4.04-46.14.75-8.58c1.36.12,2.76.24,4.24.37l15.2,1.33c9.05.79,18.05,1.19,26.76,1.19,36.58,0,69.04-6.86,96.48-20.39,7.92-3.92,15.42-8.39,22.3-13.31,16.92-12.09,30.89-27.31,41.53-45.22,11.08-18.65,18.61-40.37,22.39-64.57.81-5.19,1.44-10.48,1.9-15.74,0-.05,0-.11.01-.16v-.08c.03-.23.05-.46.06-.69.06-.65.11-1.3.16-1.95,2.25-29.91-1.33-57.13-10.66-80.91-.44-1.1-.85-2.12-1.25-3.08-11.35-27.12-30.13-49.1-55.82-65.29-27-17.02-61.59-27.48-102.81-31.09l-.56-.05c-43.83-3.83-85.24-7.45-114.28-7.8-.5-.03-1-.04-1.51-.04h0ZM260.62,324.04l12.54-143.3c7.92.32,17.59.72,27.35,1.57,52.22,4.57,76.66,30.27,72.64,76.38v.15c-.02.05-.02.11-.03.16-1.14,12.72-3.96,23.73-8.38,32.73-11.32,23.1-33.64,34.33-68.24,34.33-4.79,0-9.85-.23-15.04-.68-.28-.02-.56-.04-.84-.05-.56-.02-1.11-.03-1.68-.06-.09,0-.17,0-.26-.01-6.01-.22-12.05-.62-18.06-1.21h0Z"/>
    </g>
  </g>
</svg>