<svg width="667" height="509" viewBox="0 0 667 509" fill="none" xmlns="http://www.w3.org/2000/svg">
<path d="M235.477 8.0918C240.955 18.0701 245.937 28.314 250.401 38.7881L252.682 44.1367L258.429 43.2627C308.221 35.6909 358.87 35.6909 408.662 43.2627L414.419 44.1377L416.693 38.7773C420.687 29.3669 426.207 17.7139 431.386 8.09766C475.78 16.1046 519.006 29.6239 560.063 48.3457C633.561 157.013 669.917 279.273 656.892 419.944C608.694 455.386 554.991 482.623 497.946 500.563C487.579 485.848 478.038 470.501 469.502 454.506C485.908 447.995 501.801 440.249 517.043 431.331L517.119 431.286L517.193 431.24C518.529 430.416 519.642 429.279 520.438 427.929C521.233 426.578 521.688 425.054 521.762 423.488C521.831 422.021 521.564 420.558 520.982 419.211L520.862 418.943L520.733 418.68C520.071 417.371 519.118 416.228 517.944 415.341L517.916 415.319L517.887 415.298C514.494 412.784 511.099 410.087 507.819 407.406H507.82C506.519 406.336 504.959 405.63 503.3 405.357L502.967 405.309L502.632 405.272C500.958 405.117 499.27 405.406 497.74 406.113C391.865 455.073 275.986 455.089 168.792 406.1L168.774 406.092L168.758 406.084L168.453 405.953C167.022 405.366 165.469 405.136 163.928 405.282L163.599 405.319C161.841 405.548 160.181 406.261 158.807 407.377L158.786 407.395L158.765 407.411C155.471 410.125 152.116 412.763 148.7 415.321L148.68 415.336L148.66 415.352C147.474 416.253 146.513 417.416 145.853 418.748L145.725 419.018C145.064 420.462 144.77 422.047 144.869 423.632C144.968 425.216 145.456 426.753 146.292 428.104C147.128 429.454 148.285 430.579 149.661 431.376L149.664 431.378C164.939 440.213 180.82 447.945 197.188 454.521C188.792 470.531 179.278 485.929 168.717 500.601C111.772 482.613 58.1592 455.386 10.0195 420.003C-0.930315 298.192 22.4655 174.956 106.703 48.3779C147.783 29.6204 191.044 16.0877 235.477 8.0918ZM222.896 205.031C184.558 205.031 155.451 239.476 155.451 279.838C155.451 320.273 185.098 354.645 222.896 354.645C261.197 354.644 290.288 320.293 290.34 279.974C290.917 239.718 261.436 205.031 222.896 205.031ZM444.528 205.031C406.16 205.031 377.083 239.478 377.083 279.838C377.083 320.273 406.73 354.645 444.528 354.645C483.128 354.644 511.921 320.269 511.972 279.973L511.973 279.974C512.55 239.718 483.068 205.031 444.528 205.031Z" fill="#001D30" fill-opacity="0.3"/>
<path d="M235.477 8.0918C240.955 18.0701 245.937 28.314 250.401 38.7881L252.682 44.1367L258.429 43.2627C308.221 35.6909 358.87 35.6909 408.662 43.2627L414.419 44.1377L416.693 38.7773C420.687 29.3669 426.207 17.7139 431.386 8.09766C475.78 16.1046 519.006 29.6239 560.063 48.3457C633.561 157.013 669.917 279.273 656.892 419.944C608.694 455.386 554.991 482.623 497.946 500.563C487.579 485.848 478.038 470.501 469.502 454.506C485.908 447.995 501.801 440.249 517.043 431.331L517.119 431.286L517.193 431.24C518.529 430.416 519.642 429.279 520.438 427.929C521.233 426.578 521.688 425.054 521.762 423.488C521.831 422.021 521.564 420.558 520.982 419.211L520.862 418.943L520.733 418.68C520.071 417.371 519.118 416.228 517.944 415.341L517.916 415.319L517.887 415.298C514.494 412.784 511.099 410.087 507.819 407.406H507.82C506.519 406.336 504.959 405.63 503.3 405.357L502.967 405.309L502.632 405.272C500.958 405.117 499.27 405.406 497.74 406.113C391.865 455.073 275.986 455.089 168.792 406.1L168.774 406.092L168.758 406.084L168.453 405.953C167.022 405.366 165.469 405.136 163.928 405.282L163.599 405.319C161.841 405.548 160.181 406.261 158.807 407.377L158.786 407.395L158.765 407.411C155.471 410.125 152.116 412.763 148.7 415.321L148.68 415.336L148.66 415.352C147.474 416.253 146.513 417.416 145.853 418.748L145.725 419.018C145.064 420.462 144.77 422.047 144.869 423.632C144.968 425.216 145.456 426.753 146.292 428.104C147.128 429.454 148.285 430.579 149.661 431.376L149.664 431.378C164.939 440.213 180.82 447.945 197.188 454.521C188.792 470.531 179.278 485.929 168.717 500.601C111.772 482.613 58.1592 455.386 10.0195 420.003C-0.930315 298.192 22.4655 174.956 106.703 48.3779C147.783 29.6204 191.044 16.0877 235.477 8.0918ZM222.896 205.031C184.558 205.031 155.451 239.476 155.451 279.838C155.451 320.273 185.098 354.645 222.896 354.645C261.197 354.644 290.288 320.293 290.34 279.974C290.917 239.718 261.436 205.031 222.896 205.031ZM444.528 205.031C406.16 205.031 377.083 239.478 377.083 279.838C377.083 320.273 406.73 354.645 444.528 354.645C483.128 354.644 511.921 320.269 511.972 279.973L511.973 279.974C512.55 239.718 483.068 205.031 444.528 205.031Z" stroke="#009AFC" stroke-width="15"/>
<path d="M235.477 8.0918C240.955 18.0701 245.937 28.314 250.401 38.7881L252.682 44.1367L258.429 43.2627C308.221 35.6909 358.87 35.6909 408.662 43.2627L414.419 44.1377L416.693 38.7773C420.687 29.3669 426.207 17.7139 431.386 8.09766C475.78 16.1046 519.006 29.6239 560.063 48.3457C633.561 157.013 669.917 279.273 656.892 419.944C608.694 455.386 554.991 482.623 497.946 500.563C487.579 485.848 478.038 470.501 469.502 454.506C485.908 447.995 501.801 440.249 517.043 431.331L517.119 431.286L517.193 431.24C518.529 430.416 519.642 429.279 520.438 427.929C521.233 426.578 521.688 425.054 521.762 423.488C521.831 422.021 521.564 420.558 520.982 419.211L520.862 418.943L520.733 418.68C520.071 417.371 519.118 416.228 517.944 415.341L517.916 415.319L517.887 415.298C514.494 412.784 511.099 410.087 507.819 407.406H507.82C506.519 406.336 504.959 405.63 503.3 405.357L502.967 405.309L502.632 405.272C500.958 405.117 499.27 405.406 497.74 406.113C391.865 455.073 275.986 455.089 168.792 406.1L168.774 406.092L168.758 406.084L168.453 405.953C167.022 405.366 165.469 405.136 163.928 405.282L163.599 405.319C161.841 405.548 160.181 406.261 158.807 407.377L158.786 407.395L158.765 407.411C155.471 410.125 152.116 412.763 148.7 415.321L148.68 415.336L148.66 415.352C147.474 416.253 146.513 417.416 145.853 418.748L145.725 419.018C145.064 420.462 144.77 422.047 144.869 423.632C144.968 425.216 145.456 426.753 146.292 428.104C147.128 429.454 148.285 430.579 149.661 431.376L149.664 431.378C164.939 440.213 180.82 447.945 197.188 454.521C188.792 470.531 179.278 485.929 168.717 500.601C111.772 482.613 58.1592 455.386 10.0195 420.003C-0.930315 298.192 22.4655 174.956 106.703 48.3779C147.783 29.6204 191.044 16.0877 235.477 8.0918ZM222.896 205.031C184.558 205.031 155.451 239.476 155.451 279.838C155.451 320.273 185.098 354.645 222.896 354.645C261.197 354.644 290.288 320.293 290.34 279.974C290.917 239.718 261.436 205.031 222.896 205.031ZM444.528 205.031C406.16 205.031 377.083 239.478 377.083 279.838C377.083 320.273 406.73 354.645 444.528 354.645C483.128 354.644 511.921 320.269 511.972 279.973L511.973 279.974C512.55 239.718 483.068 205.031 444.528 205.031Z" stroke="url(#paint0_linear_1_6)" stroke-width="15"/>
<defs>
<linearGradient id="paint0_linear_1_6" x1="0" y1="254.5" x2="667" y2="254.5" gradientUnits="userSpaceOnUse">
<stop stop-color="#0058C1" stop-opacity="0"/>
<stop offset="0.5" stop-color="#0058C1"/>
<stop offset="1" stop-color="#0058C1"/>
</linearGradient>
</defs>
</svg>
