<svg width="800" height="800" viewBox="0 0 800 800" fill="none" xmlns="http://www.w3.org/2000/svg">
<path d="M400 57.5C588.905 57.5 742.5 211.095 742.5 400C742.5 588.905 588.905 742.5 400 742.5C211.095 742.5 57.5 588.905 57.5 400C57.5 211.095 211.095 57.5 400 57.5ZM408.619 173.221L374.711 312.068C331.222 315.83 291.728 329.18 260.688 349.242C250.9 341.327 238.499 336.572 225 336.572C193.079 336.572 167.5 363.015 167.5 395.258C167.5 415.769 177.822 433.876 193.525 444.376C192.848 449.266 192.5 454.226 192.5 459.24C192.5 501.211 216.682 538.458 254.262 564.906C291.863 591.37 343.413 607.5 400 607.5C456.587 607.5 508.137 591.37 545.738 564.906C583.318 538.458 607.5 501.211 607.5 459.24C607.5 454.226 607.152 449.266 606.474 444.375C622.176 433.876 632.5 415.769 632.5 395.258C632.5 363.015 606.922 336.572 575 336.572C561.501 336.572 549.1 341.327 539.312 349.242C506.102 327.779 463.209 313.99 416.08 311.42L439.589 215.151L492.504 228.464C492.503 228.611 492.5 228.759 492.5 228.906C492.5 254.083 512.483 274.795 537.5 274.795C562.517 274.795 582.5 254.083 582.5 228.906C582.5 203.729 562.517 183.018 537.5 183.018C527.827 183.018 518.87 186.137 511.547 191.415L417.741 167.729L410.412 165.878L408.619 173.221ZM312.5 402.758C328.903 402.758 342.5 416.42 342.5 433.647C342.5 450.875 328.903 464.537 312.5 464.537C296.097 464.537 282.5 450.875 282.5 433.647C282.5 416.42 296.097 402.758 312.5 402.758ZM487.5 402.758C503.903 402.758 517.5 416.42 517.5 433.647C517.5 450.875 503.903 464.537 487.5 464.537C471.097 464.537 457.5 450.875 457.5 433.647C457.5 416.42 471.097 402.758 487.5 402.758Z" fill="#001D30" fill-opacity="0.3"/>
<path d="M400 57.5C588.905 57.5 742.5 211.095 742.5 400C742.5 588.905 588.905 742.5 400 742.5C211.095 742.5 57.5 588.905 57.5 400C57.5 211.095 211.095 57.5 400 57.5ZM408.619 173.221L374.711 312.068C331.222 315.83 291.728 329.18 260.688 349.242C250.9 341.327 238.499 336.572 225 336.572C193.079 336.572 167.5 363.015 167.5 395.258C167.5 415.769 177.822 433.876 193.525 444.376C192.848 449.266 192.5 454.226 192.5 459.24C192.5 501.211 216.682 538.458 254.262 564.906C291.863 591.37 343.413 607.5 400 607.5C456.587 607.5 508.137 591.37 545.738 564.906C583.318 538.458 607.5 501.211 607.5 459.24C607.5 454.226 607.152 449.266 606.474 444.375C622.176 433.876 632.5 415.769 632.5 395.258C632.5 363.015 606.922 336.572 575 336.572C561.501 336.572 549.1 341.327 539.312 349.242C506.102 327.779 463.209 313.99 416.08 311.42L439.589 215.151L492.504 228.464C492.503 228.611 492.5 228.759 492.5 228.906C492.5 254.083 512.483 274.795 537.5 274.795C562.517 274.795 582.5 254.083 582.5 228.906C582.5 203.729 562.517 183.018 537.5 183.018C527.827 183.018 518.87 186.137 511.547 191.415L417.741 167.729L410.412 165.878L408.619 173.221ZM312.5 402.758C328.903 402.758 342.5 416.42 342.5 433.647C342.5 450.875 328.903 464.537 312.5 464.537C296.097 464.537 282.5 450.875 282.5 433.647C282.5 416.42 296.097 402.758 312.5 402.758ZM487.5 402.758C503.903 402.758 517.5 416.42 517.5 433.647C517.5 450.875 503.903 464.537 487.5 464.537C471.097 464.537 457.5 450.875 457.5 433.647C457.5 416.42 471.097 402.758 487.5 402.758Z" stroke="#009AFC" stroke-width="15"/>
<path d="M400 57.5C588.905 57.5 742.5 211.095 742.5 400C742.5 588.905 588.905 742.5 400 742.5C211.095 742.5 57.5 588.905 57.5 400C57.5 211.095 211.095 57.5 400 57.5ZM408.619 173.221L374.711 312.068C331.222 315.83 291.728 329.18 260.688 349.242C250.9 341.327 238.499 336.572 225 336.572C193.079 336.572 167.5 363.015 167.5 395.258C167.5 415.769 177.822 433.876 193.525 444.376C192.848 449.266 192.5 454.226 192.5 459.24C192.5 501.211 216.682 538.458 254.262 564.906C291.863 591.37 343.413 607.5 400 607.5C456.587 607.5 508.137 591.37 545.738 564.906C583.318 538.458 607.5 501.211 607.5 459.24C607.5 454.226 607.152 449.266 606.474 444.375C622.176 433.876 632.5 415.769 632.5 395.258C632.5 363.015 606.922 336.572 575 336.572C561.501 336.572 549.1 341.327 539.312 349.242C506.102 327.779 463.209 313.99 416.08 311.42L439.589 215.151L492.504 228.464C492.503 228.611 492.5 228.759 492.5 228.906C492.5 254.083 512.483 274.795 537.5 274.795C562.517 274.795 582.5 254.083 582.5 228.906C582.5 203.729 562.517 183.018 537.5 183.018C527.827 183.018 518.87 186.137 511.547 191.415L417.741 167.729L410.412 165.878L408.619 173.221ZM312.5 402.758C328.903 402.758 342.5 416.42 342.5 433.647C342.5 450.875 328.903 464.537 312.5 464.537C296.097 464.537 282.5 450.875 282.5 433.647C282.5 416.42 296.097 402.758 312.5 402.758ZM487.5 402.758C503.903 402.758 517.5 416.42 517.5 433.647C517.5 450.875 503.903 464.537 487.5 464.537C471.097 464.537 457.5 450.875 457.5 433.647C457.5 416.42 471.097 402.758 487.5 402.758Z" stroke="url(#paint0_linear_3_4)" stroke-width="15"/>
<path fill-rule="evenodd" clip-rule="evenodd" d="M302.1 516.123C305.93 510.243 313.69 508.655 319.433 512.575C328.795 518.963 339.115 524.053 350 527.843C365.862 533.363 382.933 536.123 400 536.123C428.783 536.123 457.563 528.273 480.565 512.575C486.31 508.655 494.07 510.243 497.9 516.123C501.73 522.005 500.177 529.95 494.432 533.87C467.232 552.433 433.615 561.715 400 561.715C366.385 561.715 332.768 552.433 305.565 533.87C299.823 529.95 298.27 522.005 302.1 516.123Z" fill="#009AFC"/>
<path fill-rule="evenodd" clip-rule="evenodd" d="M302.1 516.123C305.93 510.243 313.69 508.655 319.433 512.575C328.795 518.963 339.115 524.053 350 527.843C365.862 533.363 382.933 536.123 400 536.123C428.783 536.123 457.563 528.273 480.565 512.575C486.31 508.655 494.07 510.243 497.9 516.123C501.73 522.005 500.177 529.95 494.432 533.87C467.232 552.433 433.615 561.715 400 561.715C366.385 561.715 332.768 552.433 305.565 533.87C299.823 529.95 298.27 522.005 302.1 516.123Z" fill="url(#paint1_linear_3_4)"/>
<defs>
<linearGradient id="paint0_linear_3_4" x1="50" y1="400" x2="750" y2="400" gradientUnits="userSpaceOnUse">
<stop stop-color="#0058C1" stop-opacity="0"/>
<stop offset="0.5" stop-color="#0058C1"/>
<stop offset="1" stop-color="#0058C1"/>
</linearGradient>
<linearGradient id="paint1_linear_3_4" x1="50" y1="400" x2="750" y2="400" gradientUnits="userSpaceOnUse">
<stop stop-color="#0058C1" stop-opacity="0"/>
<stop offset="0.5" stop-color="#0058C1"/>
<stop offset="1" stop-color="#0058C1"/>
</linearGradient>
</defs>
</svg>
