<svg width="800" height="800" viewBox="0 0 800 800" fill="none" xmlns="http://www.w3.org/2000/svg">
<path d="M483.383 516.704C486.777 514.388 491.387 515.285 493.71 518.851V518.85C496.005 522.376 495.138 527.072 491.932 529.511L491.614 529.74C465.341 547.67 432.733 556.715 400 556.715C367.267 556.715 334.658 547.67 308.383 529.74C304.921 527.376 303.92 522.489 306.289 518.85L306.29 518.851C308.614 515.284 313.223 514.39 316.613 516.705L316.614 516.706C326.367 523.36 337.087 528.641 348.355 532.564L348.356 532.565C364.774 538.279 382.403 541.123 400 541.123C429.646 541.123 459.44 533.045 483.384 516.705L483.383 516.704ZM312.5 400.258C330.339 400.258 345 415.095 345 433.647C345 452.199 330.339 467.038 312.5 467.038C294.661 467.038 280 452.199 280 433.647C280 415.095 294.661 400.258 312.5 400.258ZM487.5 400.258C505.339 400.258 520 415.095 520 433.647C520 452.199 505.339 467.038 487.5 467.038C469.661 467.038 455 452.199 455 433.647C455 415.095 469.661 400.258 487.5 400.258Z" fill="#001D30" fill-opacity="0.3"/>
<path d="M483.383 516.704C486.777 514.388 491.387 515.285 493.71 518.851V518.85C496.005 522.376 495.138 527.072 491.932 529.511L491.614 529.74C465.341 547.67 432.733 556.715 400 556.715C367.267 556.715 334.658 547.67 308.383 529.74C304.921 527.376 303.92 522.489 306.289 518.85L306.29 518.851C308.614 515.284 313.223 514.39 316.613 516.705L316.614 516.706C326.367 523.36 337.087 528.641 348.355 532.564L348.356 532.565C364.774 538.279 382.403 541.123 400 541.123C429.646 541.123 459.44 533.045 483.384 516.705L483.383 516.704ZM312.5 400.258C330.339 400.258 345 415.095 345 433.647C345 452.199 330.339 467.038 312.5 467.038C294.661 467.038 280 452.199 280 433.647C280 415.095 294.661 400.258 312.5 400.258ZM487.5 400.258C505.339 400.258 520 415.095 520 433.647C520 452.199 505.339 467.038 487.5 467.038C469.661 467.038 455 452.199 455 433.647C455 415.095 469.661 400.258 487.5 400.258Z" stroke="#009AFC" stroke-width="10"/>
<path d="M483.383 516.704C486.777 514.388 491.387 515.285 493.71 518.851V518.85C496.005 522.376 495.138 527.072 491.932 529.511L491.614 529.74C465.341 547.67 432.733 556.715 400 556.715C367.267 556.715 334.658 547.67 308.383 529.74C304.921 527.376 303.92 522.489 306.289 518.85L306.29 518.851C308.614 515.284 313.223 514.39 316.613 516.705L316.614 516.706C326.367 523.36 337.087 528.641 348.355 532.564L348.356 532.565C364.774 538.279 382.403 541.123 400 541.123C429.646 541.123 459.44 533.045 483.384 516.705L483.383 516.704ZM312.5 400.258C330.339 400.258 345 415.095 345 433.647C345 452.199 330.339 467.038 312.5 467.038C294.661 467.038 280 452.199 280 433.647C280 415.095 294.661 400.258 312.5 400.258ZM487.5 400.258C505.339 400.258 520 415.095 520 433.647C520 452.199 505.339 467.038 487.5 467.038C469.661 467.038 455 452.199 455 433.647C455 415.095 469.661 400.258 487.5 400.258Z" stroke="url(#paint0_linear_3_4)" stroke-width="10"/>
<path d="M400 57.5C588.905 57.5 742.5 211.095 742.5 400C742.5 588.905 588.905 742.5 400 742.5C211.095 742.5 57.5 588.905 57.5 400C57.5 211.095 211.095 57.5 400 57.5ZM408.619 173.221L374.711 312.068C331.222 315.83 291.728 329.18 260.688 349.242C250.9 341.327 238.499 336.572 225 336.572C193.079 336.572 167.5 363.015 167.5 395.258C167.5 415.769 177.822 433.876 193.525 444.376C192.848 449.266 192.5 454.226 192.5 459.24C192.5 501.211 216.682 538.458 254.262 564.906C291.863 591.37 343.413 607.5 400 607.5C456.587 607.5 508.137 591.37 545.738 564.906C583.318 538.458 607.5 501.211 607.5 459.24C607.5 454.226 607.152 449.266 606.474 444.375C622.176 433.876 632.5 415.769 632.5 395.258C632.5 363.015 606.922 336.572 575 336.572C561.501 336.572 549.1 341.327 539.312 349.242C506.102 327.779 463.209 313.99 416.08 311.42L439.589 215.151L492.504 228.464C492.503 228.611 492.5 228.759 492.5 228.906C492.5 254.083 512.483 274.795 537.5 274.795C562.517 274.795 582.5 254.083 582.5 228.906C582.5 203.729 562.517 183.018 537.5 183.018C527.827 183.018 518.87 186.137 511.547 191.415L417.741 167.729L410.412 165.878L408.619 173.221ZM484.792 518.771C487.011 517.257 490.045 517.806 491.615 520.216V520.215C493.203 522.653 492.572 525.881 490.418 527.521L490.205 527.675C464.396 545.288 432.292 554.215 400 554.215C367.709 554.215 335.605 545.289 309.793 527.676H309.794C307.472 526.09 306.745 522.732 308.384 520.215L308.385 520.216C309.955 517.805 312.99 517.258 315.204 518.77L315.206 518.771C325.154 525.557 336.074 530.935 347.534 534.926H347.535C364.231 540.736 382.138 543.622 400 543.622C430.077 543.622 460.378 535.431 484.792 518.771ZM312.5 402.758C328.903 402.758 342.5 416.42 342.5 433.647C342.5 450.875 328.903 464.537 312.5 464.537C296.097 464.537 282.5 450.875 282.5 433.647C282.5 416.42 296.097 402.758 312.5 402.758ZM487.5 402.758C503.903 402.758 517.5 416.42 517.5 433.647C517.5 450.875 503.903 464.537 487.5 464.537C471.097 464.537 457.5 450.875 457.5 433.647C457.5 416.42 471.097 402.758 487.5 402.758Z" fill="#001D30" fill-opacity="0.3"/>
<path d="M400 57.5C588.905 57.5 742.5 211.095 742.5 400C742.5 588.905 588.905 742.5 400 742.5C211.095 742.5 57.5 588.905 57.5 400C57.5 211.095 211.095 57.5 400 57.5ZM408.619 173.221L374.711 312.068C331.222 315.83 291.728 329.18 260.688 349.242C250.9 341.327 238.499 336.572 225 336.572C193.079 336.572 167.5 363.015 167.5 395.258C167.5 415.769 177.822 433.876 193.525 444.376C192.848 449.266 192.5 454.226 192.5 459.24C192.5 501.211 216.682 538.458 254.262 564.906C291.863 591.37 343.413 607.5 400 607.5C456.587 607.5 508.137 591.37 545.738 564.906C583.318 538.458 607.5 501.211 607.5 459.24C607.5 454.226 607.152 449.266 606.474 444.375C622.176 433.876 632.5 415.769 632.5 395.258C632.5 363.015 606.922 336.572 575 336.572C561.501 336.572 549.1 341.327 539.312 349.242C506.102 327.779 463.209 313.99 416.08 311.42L439.589 215.151L492.504 228.464C492.503 228.611 492.5 228.759 492.5 228.906C492.5 254.083 512.483 274.795 537.5 274.795C562.517 274.795 582.5 254.083 582.5 228.906C582.5 203.729 562.517 183.018 537.5 183.018C527.827 183.018 518.87 186.137 511.547 191.415L417.741 167.729L410.412 165.878L408.619 173.221ZM484.792 518.771C487.011 517.257 490.045 517.806 491.615 520.216V520.215C493.203 522.653 492.572 525.881 490.418 527.521L490.205 527.675C464.396 545.288 432.292 554.215 400 554.215C367.709 554.215 335.605 545.289 309.793 527.676H309.794C307.472 526.09 306.745 522.732 308.384 520.215L308.385 520.216C309.955 517.805 312.99 517.258 315.204 518.77L315.206 518.771C325.154 525.557 336.074 530.935 347.534 534.926H347.535C364.231 540.736 382.138 543.622 400 543.622C430.077 543.622 460.378 535.431 484.792 518.771ZM312.5 402.758C328.903 402.758 342.5 416.42 342.5 433.647C342.5 450.875 328.903 464.537 312.5 464.537C296.097 464.537 282.5 450.875 282.5 433.647C282.5 416.42 296.097 402.758 312.5 402.758ZM487.5 402.758C503.903 402.758 517.5 416.42 517.5 433.647C517.5 450.875 503.903 464.537 487.5 464.537C471.097 464.537 457.5 450.875 457.5 433.647C457.5 416.42 471.097 402.758 487.5 402.758Z" stroke="#009AFC" stroke-width="15"/>
<path d="M400 57.5C588.905 57.5 742.5 211.095 742.5 400C742.5 588.905 588.905 742.5 400 742.5C211.095 742.5 57.5 588.905 57.5 400C57.5 211.095 211.095 57.5 400 57.5ZM408.619 173.221L374.711 312.068C331.222 315.83 291.728 329.18 260.688 349.242C250.9 341.327 238.499 336.572 225 336.572C193.079 336.572 167.5 363.015 167.5 395.258C167.5 415.769 177.822 433.876 193.525 444.376C192.848 449.266 192.5 454.226 192.5 459.24C192.5 501.211 216.682 538.458 254.262 564.906C291.863 591.37 343.413 607.5 400 607.5C456.587 607.5 508.137 591.37 545.738 564.906C583.318 538.458 607.5 501.211 607.5 459.24C607.5 454.226 607.152 449.266 606.474 444.375C622.176 433.876 632.5 415.769 632.5 395.258C632.5 363.015 606.922 336.572 575 336.572C561.501 336.572 549.1 341.327 539.312 349.242C506.102 327.779 463.209 313.99 416.08 311.42L439.589 215.151L492.504 228.464C492.503 228.611 492.5 228.759 492.5 228.906C492.5 254.083 512.483 274.795 537.5 274.795C562.517 274.795 582.5 254.083 582.5 228.906C582.5 203.729 562.517 183.018 537.5 183.018C527.827 183.018 518.87 186.137 511.547 191.415L417.741 167.729L410.412 165.878L408.619 173.221ZM484.792 518.771C487.011 517.257 490.045 517.806 491.615 520.216V520.215C493.203 522.653 492.572 525.881 490.418 527.521L490.205 527.675C464.396 545.288 432.292 554.215 400 554.215C367.709 554.215 335.605 545.289 309.793 527.676H309.794C307.472 526.09 306.745 522.732 308.384 520.215L308.385 520.216C309.955 517.805 312.99 517.258 315.204 518.77L315.206 518.771C325.154 525.557 336.074 530.935 347.534 534.926H347.535C364.231 540.736 382.138 543.622 400 543.622C430.077 543.622 460.378 535.431 484.792 518.771ZM312.5 402.758C328.903 402.758 342.5 416.42 342.5 433.647C342.5 450.875 328.903 464.537 312.5 464.537C296.097 464.537 282.5 450.875 282.5 433.647C282.5 416.42 296.097 402.758 312.5 402.758ZM487.5 402.758C503.903 402.758 517.5 416.42 517.5 433.647C517.5 450.875 503.903 464.537 487.5 464.537C471.097 464.537 457.5 450.875 457.5 433.647C457.5 416.42 471.097 402.758 487.5 402.758Z" stroke="url(#paint1_linear_3_4)" stroke-width="15"/>
<defs>
<linearGradient id="paint0_linear_3_4" x1="400" y1="395.258" x2="400" y2="561.715" gradientUnits="userSpaceOnUse">
<stop stop-color="#0058C1" stop-opacity="0"/>
<stop offset="0.5" stop-color="#0058C1"/>
<stop offset="1" stop-color="#0058C1"/>
</linearGradient>
<linearGradient id="paint1_linear_3_4" x1="50" y1="400" x2="750" y2="400" gradientUnits="userSpaceOnUse">
<stop stop-color="#0058C1" stop-opacity="0"/>
<stop offset="0.5" stop-color="#0058C1"/>
<stop offset="1" stop-color="#0058C1"/>
</linearGradient>
</defs>
</svg>
