<svg width="800" height="800" viewBox="0 0 800 800" fill="none" xmlns="http://www.w3.org/2000/svg">
<path d="M399.733 74.1666C579.524 74.1666 725.299 219.942 725.299 399.733C725.299 579.524 579.524 725.299 399.733 725.299C219.942 725.299 74.1667 579.524 74.1667 399.733C74.1668 219.942 219.942 74.1668 399.733 74.1666ZM432.144 476.723C400.721 468.061 368.113 464.484 335.558 466.128L333.983 466.212C278.764 468.961 238.066 484.415 231.387 487.1L230.552 487.442C221.93 491.029 215.986 499.096 212.675 507.908C209.416 516.582 208.318 526.896 209.984 537.058L210.154 538.042C212.035 548.475 216.663 557.46 223.32 563.198C230.156 569.089 239.271 571.523 248.364 567.765L248.375 567.76L248.384 567.756C248.385 567.757 286.038 552.402 337.414 550.025L337.413 550.024C383.747 547.91 450.662 556.233 508.548 607.404C512.987 611.517 518.78 613.865 524.836 613.998L524.918 614H525C537.087 614 546.796 604.74 551.663 592.133C555.383 582.525 556.122 571.753 554.435 562.019C552.762 552.368 548.548 542.925 541.474 536.654C510.466 508.996 473.637 488.663 433.71 477.16L433.687 477.153L433.664 477.147L432.144 476.723ZM454.898 374.977C417.967 366.033 378.53 362.379 337.619 364.106C268.774 366.993 219.059 384.056 215.886 385.188C196.855 391.856 187.712 415.409 192.167 436.173L192.17 436.186C196.694 457.099 214.925 472.849 235.132 465.817L235.246 465.777L235.359 465.733C235.164 465.808 280.017 450.323 341.392 447.927L341.391 447.926C396.757 445.794 476.675 454.217 545.646 505.71V505.709C550.812 509.662 557.12 511.837 563.627 511.9H563.7C576.512 511.9 587.856 503.52 593.817 490.458L593.818 490.459C602.425 471.684 598.136 447.012 582.568 434.731L581.818 434.156C544.379 406.197 501.648 386.307 454.9 374.977H454.898ZM478.847 257.934C431.747 248.891 383.767 245.268 335.843 247.137C251.284 250.029 190.382 267.218 187.358 268.092C165.958 274.253 153.621 296.815 158.823 318.585L159.084 319.621C164.918 341.767 187.121 355.231 208.972 348.968L208.973 348.969C209.811 348.741 264.385 333.502 339.559 331.029C414.828 328.553 509.964 338.903 592.501 389.14V389.139C598.684 392.935 605.795 394.952 613.051 394.966H613.117C620.314 394.918 627.368 392.945 633.546 389.252C639.723 385.558 644.801 380.278 648.25 373.961L648.248 373.96C659.295 354.141 653.013 328.588 633.669 316.829H633.67C587.949 288.962 535.873 269.197 478.886 257.942L478.847 257.934Z" fill="#001D30" fill-opacity="0.3"/>
<path d="M399.733 74.1666C579.524 74.1666 725.299 219.942 725.299 399.733C725.299 579.524 579.524 725.299 399.733 725.299C219.942 725.299 74.1667 579.524 74.1667 399.733C74.1668 219.942 219.942 74.1668 399.733 74.1666ZM432.144 476.723C400.721 468.061 368.113 464.484 335.558 466.128L333.983 466.212C278.764 468.961 238.066 484.415 231.387 487.1L230.552 487.442C221.93 491.029 215.986 499.096 212.675 507.908C209.416 516.582 208.318 526.896 209.984 537.058L210.154 538.042C212.035 548.475 216.663 557.46 223.32 563.198C230.156 569.089 239.271 571.523 248.364 567.765L248.375 567.76L248.384 567.756C248.385 567.757 286.038 552.402 337.414 550.025L337.413 550.024C383.747 547.91 450.662 556.233 508.548 607.404C512.987 611.517 518.78 613.865 524.836 613.998L524.918 614H525C537.087 614 546.796 604.74 551.663 592.133C555.383 582.525 556.122 571.753 554.435 562.019C552.762 552.368 548.548 542.925 541.474 536.654C510.466 508.996 473.637 488.663 433.71 477.16L433.687 477.153L433.664 477.147L432.144 476.723ZM454.898 374.977C417.967 366.033 378.53 362.379 337.619 364.106C268.774 366.993 219.059 384.056 215.886 385.188C196.855 391.856 187.712 415.409 192.167 436.173L192.17 436.186C196.694 457.099 214.925 472.849 235.132 465.817L235.246 465.777L235.359 465.733C235.164 465.808 280.017 450.323 341.392 447.927L341.391 447.926C396.757 445.794 476.675 454.217 545.646 505.71V505.709C550.812 509.662 557.12 511.837 563.627 511.9H563.7C576.512 511.9 587.856 503.52 593.817 490.458L593.818 490.459C602.425 471.684 598.136 447.012 582.568 434.731L581.818 434.156C544.379 406.197 501.648 386.307 454.9 374.977H454.898ZM478.847 257.934C431.747 248.891 383.767 245.268 335.843 247.137C251.284 250.029 190.382 267.218 187.358 268.092C165.958 274.253 153.621 296.815 158.823 318.585L159.084 319.621C164.918 341.767 187.121 355.231 208.972 348.968L208.973 348.969C209.811 348.741 264.385 333.502 339.559 331.029C414.828 328.553 509.964 338.903 592.501 389.14V389.139C598.684 392.935 605.795 394.952 613.051 394.966H613.117C620.314 394.918 627.368 392.945 633.546 389.252C639.723 385.558 644.801 380.278 648.25 373.961L648.248 373.96C659.295 354.141 653.013 328.588 633.669 316.829H633.67C587.949 288.962 535.873 269.197 478.886 257.942L478.847 257.934Z" stroke="#009AFC" stroke-width="15"/>
<path d="M399.733 74.1666C579.524 74.1666 725.299 219.942 725.299 399.733C725.299 579.524 579.524 725.299 399.733 725.299C219.942 725.299 74.1667 579.524 74.1667 399.733C74.1668 219.942 219.942 74.1668 399.733 74.1666ZM432.144 476.723C400.721 468.061 368.113 464.484 335.558 466.128L333.983 466.212C278.764 468.961 238.066 484.415 231.387 487.1L230.552 487.442C221.93 491.029 215.986 499.096 212.675 507.908C209.416 516.582 208.318 526.896 209.984 537.058L210.154 538.042C212.035 548.475 216.663 557.46 223.32 563.198C230.156 569.089 239.271 571.523 248.364 567.765L248.375 567.76L248.384 567.756C248.385 567.757 286.038 552.402 337.414 550.025L337.413 550.024C383.747 547.91 450.662 556.233 508.548 607.404C512.987 611.517 518.78 613.865 524.836 613.998L524.918 614H525C537.087 614 546.796 604.74 551.663 592.133C555.383 582.525 556.122 571.753 554.435 562.019C552.762 552.368 548.548 542.925 541.474 536.654C510.466 508.996 473.637 488.663 433.71 477.16L433.687 477.153L433.664 477.147L432.144 476.723ZM454.898 374.977C417.967 366.033 378.53 362.379 337.619 364.106C268.774 366.993 219.059 384.056 215.886 385.188C196.855 391.856 187.712 415.409 192.167 436.173L192.17 436.186C196.694 457.099 214.925 472.849 235.132 465.817L235.246 465.777L235.359 465.733C235.164 465.808 280.017 450.323 341.392 447.927L341.391 447.926C396.757 445.794 476.675 454.217 545.646 505.71V505.709C550.812 509.662 557.12 511.837 563.627 511.9H563.7C576.512 511.9 587.856 503.52 593.817 490.458L593.818 490.459C602.425 471.684 598.136 447.012 582.568 434.731L581.818 434.156C544.379 406.197 501.648 386.307 454.9 374.977H454.898ZM478.847 257.934C431.747 248.891 383.767 245.268 335.843 247.137C251.284 250.029 190.382 267.218 187.358 268.092C165.958 274.253 153.621 296.815 158.823 318.585L159.084 319.621C164.918 341.767 187.121 355.231 208.972 348.968L208.973 348.969C209.811 348.741 264.385 333.502 339.559 331.029C414.828 328.553 509.964 338.903 592.501 389.14V389.139C598.684 392.935 605.795 394.952 613.051 394.966H613.117C620.314 394.918 627.368 392.945 633.546 389.252C639.723 385.558 644.801 380.278 648.25 373.961L648.248 373.96C659.295 354.141 653.013 328.588 633.669 316.829H633.67C587.949 288.962 535.873 269.197 478.886 257.942L478.847 257.934Z" stroke="url(#paint0_linear_5_32)" stroke-width="15"/>
<defs>
<linearGradient id="paint0_linear_5_32" x1="66.6667" y1="399.733" x2="732.8" y2="399.733" gradientUnits="userSpaceOnUse">
<stop stop-color="#0058C1" stop-opacity="0"/>
<stop offset="0.5" stop-color="#0058C1"/>
<stop offset="1" stop-color="#0058C1"/>
</linearGradient>
</defs>
</svg>
