<svg width="667" height="669" viewBox="0 0 667 669" fill="none" xmlns="http://www.w3.org/2000/svg">
<g clip-path="url(#clip0_3_2)">
<path d="M332.909 7.52246C513.281 7.52246 659.5 153.741 659.5 334.112C659.5 514.484 513.281 660.703 332.909 660.703C189.81 660.703 68.137 568.626 23.499 438.309L133.234 483.748C144.017 528.485 184.316 561.732 232.375 561.732C288.701 561.732 334.371 516.062 334.371 459.736V459.67L334.365 459.02L442.666 381.675H443.182C516.887 381.675 576.64 321.922 576.64 248.217C576.639 174.512 516.887 114.759 443.182 114.759C369.754 114.759 310.171 174.068 309.729 247.407L233.741 357.425C233.27 357.413 232.796 357.406 232.33 357.406H232.286C212.367 357.406 193.757 363.117 178.288 372.877L7.94336 302.476C23.6987 138.204 161.176 9.45622 329.139 7.52246H332.909ZM233.906 395.91C268.164 396.77 295.664 424.804 295.664 459.269C295.664 468.108 293.84 476.506 290.788 483.634L290.728 483.773L290.674 483.916L290.547 484.246C280.914 506.95 258.405 522.847 232.219 522.847C216.555 522.847 202.198 517.154 191.081 507.601L206.126 513.828L206.12 513.844C213.271 516.846 221.119 518.528 229.367 518.528C262.386 518.528 289.162 491.752 289.162 458.733C289.162 434.03 274.167 412.857 252.545 403.619L252.465 403.586L233.906 395.91ZM443.203 171.56C485.429 171.56 519.66 205.791 519.66 248.017C519.593 290.202 485.402 324.41 443.196 324.473C400.974 324.469 366.746 290.24 366.746 248.017C366.746 205.791 400.977 171.56 443.203 171.56ZM443.427 177.281C410.04 177.281 382.056 200.485 374.723 231.651L372.825 229.754V247.86C372.825 248.058 372.833 248.26 372.85 248.464C373.162 287.165 404.63 318.439 443.404 318.439H443.427C482.417 318.439 514.006 286.851 514.006 247.86C514.006 208.892 482.395 177.281 443.427 177.281Z" fill="#001D30" fill-opacity="0.3"/>
<path d="M332.909 7.52246C513.281 7.52246 659.5 153.741 659.5 334.112C659.5 514.484 513.281 660.703 332.909 660.703C189.81 660.703 68.137 568.626 23.499 438.309L133.234 483.748C144.017 528.485 184.316 561.732 232.375 561.732C288.701 561.732 334.371 516.062 334.371 459.736V459.67L334.365 459.02L442.666 381.675H443.182C516.887 381.675 576.64 321.922 576.64 248.217C576.639 174.512 516.887 114.759 443.182 114.759C369.754 114.759 310.171 174.068 309.729 247.407L233.741 357.425C233.27 357.413 232.796 357.406 232.33 357.406H232.286C212.367 357.406 193.757 363.117 178.288 372.877L7.94336 302.476C23.6987 138.204 161.176 9.45622 329.139 7.52246H332.909ZM233.906 395.91C268.164 396.77 295.664 424.804 295.664 459.269C295.664 468.108 293.84 476.506 290.788 483.634L290.728 483.773L290.674 483.916L290.547 484.246C280.914 506.95 258.405 522.847 232.219 522.847C216.555 522.847 202.198 517.154 191.081 507.601L206.126 513.828L206.12 513.844C213.271 516.846 221.119 518.528 229.367 518.528C262.386 518.528 289.162 491.752 289.162 458.733C289.162 434.03 274.167 412.857 252.545 403.619L252.465 403.586L233.906 395.91ZM443.203 171.56C485.429 171.56 519.66 205.791 519.66 248.017C519.593 290.202 485.402 324.41 443.196 324.473C400.974 324.469 366.746 290.24 366.746 248.017C366.746 205.791 400.977 171.56 443.203 171.56ZM443.427 177.281C410.04 177.281 382.056 200.485 374.723 231.651L372.825 229.754V247.86C372.825 248.058 372.833 248.26 372.85 248.464C373.162 287.165 404.63 318.439 443.404 318.439H443.427C482.417 318.439 514.006 286.851 514.006 247.86C514.006 208.892 482.395 177.281 443.427 177.281Z" stroke="#009AFC" stroke-width="15"/>
<path d="M332.909 7.52246C513.281 7.52246 659.5 153.741 659.5 334.112C659.5 514.484 513.281 660.703 332.909 660.703C189.81 660.703 68.137 568.626 23.499 438.309L133.234 483.748C144.017 528.485 184.316 561.732 232.375 561.732C288.701 561.732 334.371 516.062 334.371 459.736V459.67L334.365 459.02L442.666 381.675H443.182C516.887 381.675 576.64 321.922 576.64 248.217C576.639 174.512 516.887 114.759 443.182 114.759C369.754 114.759 310.171 174.068 309.729 247.407L233.741 357.425C233.27 357.413 232.796 357.406 232.33 357.406H232.286C212.367 357.406 193.757 363.117 178.288 372.877L7.94336 302.476C23.6987 138.204 161.176 9.45622 329.139 7.52246H332.909ZM233.906 395.91C268.164 396.77 295.664 424.804 295.664 459.269C295.664 468.108 293.84 476.506 290.788 483.634L290.728 483.773L290.674 483.916L290.547 484.246C280.914 506.95 258.405 522.847 232.219 522.847C216.555 522.847 202.198 517.154 191.081 507.601L206.126 513.828L206.12 513.844C213.271 516.846 221.119 518.528 229.367 518.528C262.386 518.528 289.162 491.752 289.162 458.733C289.162 434.03 274.167 412.857 252.545 403.619L252.465 403.586L233.906 395.91ZM443.203 171.56C485.429 171.56 519.66 205.791 519.66 248.017C519.593 290.202 485.402 324.41 443.196 324.473C400.974 324.469 366.746 290.24 366.746 248.017C366.746 205.791 400.977 171.56 443.203 171.56ZM443.427 177.281C410.04 177.281 382.056 200.485 374.723 231.651L372.825 229.754V247.86C372.825 248.058 372.833 248.26 372.85 248.464C373.162 287.165 404.63 318.439 443.404 318.439H443.427C482.417 318.439 514.006 286.851 514.006 247.86C514.006 208.892 482.395 177.281 443.427 177.281Z" stroke="url(#paint0_linear_3_2)" stroke-width="15"/>
</g>
<defs>
<linearGradient id="paint0_linear_3_2" x1="0" y1="334.102" x2="667" y2="334.102" gradientUnits="userSpaceOnUse">
<stop stop-color="#0058C1" stop-opacity="0"/>
<stop offset="0.5" stop-color="#0058C1"/>
<stop offset="1" stop-color="#0058C1"/>
</linearGradient>
<clipPath id="clip0_3_2">
<rect width="667" height="669" fill="white"/>
</clipPath>
</defs>
</svg>
