<svg width="800" height="800" viewBox="0 0 800 800" fill="none" xmlns="http://www.w3.org/2000/svg">
<path d="M467.192 150.75C492.433 137.264 521.435 132.537 549.651 137.311C577.867 142.084 603.701 156.089 623.101 177.128C624.869 179.046 627.507 179.906 630.066 179.401C654.578 174.564 678.304 166.488 700.629 155.411C689.559 177.078 672.569 195.342 651.447 207.961C648.406 209.778 647.051 213.475 648.197 216.826C649.343 220.178 652.678 222.271 656.194 221.846C675.571 219.503 694.639 215.215 713.116 209.063C698.524 227.351 681.626 243.72 662.816 257.748C660.918 259.164 659.8 261.392 659.8 263.76V281.494C660.194 331.85 650.551 381.78 631.433 428.366C612.315 474.953 584.105 517.263 548.453 552.825C512.801 588.387 470.421 616.488 423.787 635.487C377.154 654.486 327.202 664.002 276.85 663.479C276.821 663.479 276.792 663.479 276.763 663.479C214.208 663.556 152.779 648.122 97.8975 618.776C98.7216 618.781 99.5458 618.782 100.37 618.779L100.371 618.78V618.779C100.372 618.779 100.374 618.78 100.375 618.78L100.374 618.779C163.275 618.602 224.306 597.374 273.739 558.477C276.23 556.516 277.22 553.201 276.212 550.196C275.204 547.191 272.414 545.144 269.245 545.083C242.309 544.564 216.205 535.663 194.564 519.615C176.197 505.995 161.821 487.802 152.806 466.942C157.51 467.389 162.233 467.643 166.962 467.698C167.019 467.699 167.077 467.699 167.135 467.698C180.282 467.55 193.341 465.532 205.919 461.704C209.209 460.703 211.396 457.593 211.226 454.158C211.055 450.723 208.571 447.845 205.198 447.174C175.987 441.362 149.679 425.639 130.725 402.663C114.058 382.46 103.977 357.739 101.683 331.815C118.624 339.314 136.904 343.457 155.507 343.963C158.848 344.054 161.846 341.923 162.858 338.738C163.871 335.553 162.654 332.082 159.874 330.227C142.194 318.43 127.705 302.445 117.697 283.693C107.69 264.942 102.473 244.007 102.514 222.752C102.514 222.746 102.514 222.739 102.514 222.732C102.501 203.483 106.722 184.513 114.824 167.149C148.501 206.292 189.539 238.495 235.646 261.904C285.134 287.03 339.355 301.464 394.785 304.268C397.147 304.387 399.427 303.386 400.937 301.565C402.446 299.745 403.009 297.32 402.455 295.021C395.75 267.199 398.469 237.938 410.186 211.828C421.902 185.718 441.952 164.236 467.192 150.75Z" fill="#001D30" fill-opacity="0.3"/>
<path d="M467.192 150.75C492.433 137.264 521.435 132.537 549.651 137.311C577.867 142.084 603.701 156.089 623.101 177.128C624.869 179.046 627.507 179.906 630.066 179.401C654.578 174.564 678.304 166.488 700.629 155.411C689.559 177.078 672.569 195.342 651.447 207.961C648.406 209.778 647.051 213.475 648.197 216.826C649.343 220.178 652.678 222.271 656.194 221.846C675.571 219.503 694.639 215.215 713.116 209.063C698.524 227.351 681.626 243.72 662.816 257.748C660.918 259.164 659.8 261.392 659.8 263.76V281.494C660.194 331.85 650.551 381.78 631.433 428.366C612.315 474.953 584.105 517.263 548.453 552.825C512.801 588.387 470.421 616.488 423.787 635.487C377.154 654.486 327.202 664.002 276.85 663.479C276.821 663.479 276.792 663.479 276.763 663.479C214.208 663.556 152.779 648.122 97.8975 618.776C98.7216 618.781 99.5458 618.782 100.37 618.779L100.371 618.78V618.779C100.372 618.779 100.374 618.78 100.375 618.78L100.374 618.779C163.275 618.602 224.306 597.374 273.739 558.477C276.23 556.516 277.22 553.201 276.212 550.196C275.204 547.191 272.414 545.144 269.245 545.083C242.309 544.564 216.205 535.663 194.564 519.615C176.197 505.995 161.821 487.802 152.806 466.942C157.51 467.389 162.233 467.643 166.962 467.698C167.019 467.699 167.077 467.699 167.135 467.698C180.282 467.55 193.341 465.532 205.919 461.704C209.209 460.703 211.396 457.593 211.226 454.158C211.055 450.723 208.571 447.845 205.198 447.174C175.987 441.362 149.679 425.639 130.725 402.663C114.058 382.46 103.977 357.739 101.683 331.815C118.624 339.314 136.904 343.457 155.507 343.963C158.848 344.054 161.846 341.923 162.858 338.738C163.871 335.553 162.654 332.082 159.874 330.227C142.194 318.43 127.705 302.445 117.697 283.693C107.69 264.942 102.473 244.007 102.514 222.752C102.514 222.746 102.514 222.739 102.514 222.732C102.501 203.483 106.722 184.513 114.824 167.149C148.501 206.292 189.539 238.495 235.646 261.904C285.134 287.03 339.355 301.464 394.785 304.268C397.147 304.387 399.427 303.386 400.937 301.565C402.446 299.745 403.009 297.32 402.455 295.021C395.75 267.199 398.469 237.938 410.186 211.828C421.902 185.718 441.952 164.236 467.192 150.75Z" stroke="#009AFC" stroke-width="15" stroke-miterlimit="3.99933" stroke-linejoin="round"/>
<path d="M467.192 150.75C492.433 137.264 521.435 132.537 549.651 137.311C577.867 142.084 603.701 156.089 623.101 177.128C624.869 179.046 627.507 179.906 630.066 179.401C654.578 174.564 678.304 166.488 700.629 155.411C689.559 177.078 672.569 195.342 651.447 207.961C648.406 209.778 647.051 213.475 648.197 216.826C649.343 220.178 652.678 222.271 656.194 221.846C675.571 219.503 694.639 215.215 713.116 209.063C698.524 227.351 681.626 243.72 662.816 257.748C660.918 259.164 659.8 261.392 659.8 263.76V281.494C660.194 331.85 650.551 381.78 631.433 428.366C612.315 474.953 584.105 517.263 548.453 552.825C512.801 588.387 470.421 616.488 423.787 635.487C377.154 654.486 327.202 664.002 276.85 663.479C276.821 663.479 276.792 663.479 276.763 663.479C214.208 663.556 152.779 648.122 97.8975 618.776C98.7216 618.781 99.5458 618.782 100.37 618.779L100.371 618.78V618.779C100.372 618.779 100.374 618.78 100.375 618.78L100.374 618.779C163.275 618.602 224.306 597.374 273.739 558.477C276.23 556.516 277.22 553.201 276.212 550.196C275.204 547.191 272.414 545.144 269.245 545.083C242.309 544.564 216.205 535.663 194.564 519.615C176.197 505.995 161.821 487.802 152.806 466.942C157.51 467.389 162.233 467.643 166.962 467.698C167.019 467.699 167.077 467.699 167.135 467.698C180.282 467.55 193.341 465.532 205.919 461.704C209.209 460.703 211.396 457.593 211.226 454.158C211.055 450.723 208.571 447.845 205.198 447.174C175.987 441.362 149.679 425.639 130.725 402.663C114.058 382.46 103.977 357.739 101.683 331.815C118.624 339.314 136.904 343.457 155.507 343.963C158.848 344.054 161.846 341.923 162.858 338.738C163.871 335.553 162.654 332.082 159.874 330.227C142.194 318.43 127.705 302.445 117.697 283.693C107.69 264.942 102.473 244.007 102.514 222.752C102.514 222.746 102.514 222.739 102.514 222.732C102.501 203.483 106.722 184.513 114.824 167.149C148.501 206.292 189.539 238.495 235.646 261.904C285.134 287.03 339.355 301.464 394.785 304.268C397.147 304.387 399.427 303.386 400.937 301.565C402.446 299.745 403.009 297.32 402.455 295.021C395.75 267.199 398.469 237.938 410.186 211.828C421.902 185.718 441.952 164.236 467.192 150.75Z" stroke="url(#paint0_linear_1_2)" stroke-width="15" stroke-miterlimit="3.99933" stroke-linejoin="round"/>
<defs>
<linearGradient id="paint0_linear_1_2" x1="67" y1="399.5" x2="734" y2="399.5" gradientUnits="userSpaceOnUse">
<stop stop-color="#0058C1" stop-opacity="0"/>
<stop offset="0.5" stop-color="#0058C1"/>
<stop offset="1" stop-color="#0058C1"/>
</linearGradient>
</defs>
</svg>
