<svg width="800" height="800" viewBox="0 0 800 800" fill="none" xmlns="http://www.w3.org/2000/svg">
<path d="M284.864 102L432.284 316.986L435.955 322.338L440.194 317.425L626.058 102H663.383L455.037 343.629L452.522 346.546L454.7 349.722L693.509 698H514.135L356.224 467.689L352.553 462.336L348.313 467.252L149.343 698H111.868L333.501 441.142L336.018 438.225L333.839 435.048L105.49 102H284.864ZM152.398 131.722L524.158 673.933L525.647 676.105H651.968L646.602 668.278L274.842 126.067L273.353 123.895H147.032L152.398 131.722Z" fill="#001D30" fill-opacity="0.3"/>
<path d="M284.864 102L432.284 316.986L435.955 322.338L440.194 317.425L626.058 102H663.383L455.037 343.629L452.522 346.546L454.7 349.722L693.509 698H514.135L356.224 467.689L352.553 462.336L348.313 467.252L149.343 698H111.868L333.501 441.142L336.018 438.225L333.839 435.048L105.49 102H284.864ZM152.398 131.722L524.158 673.933L525.647 676.105H651.968L646.602 668.278L274.842 126.067L273.353 123.895H147.032L152.398 131.722Z" stroke="#009AFC" stroke-width="10" stroke-miterlimit="16"/>
<path d="M284.864 102L432.284 316.986L435.955 322.338L440.194 317.425L626.058 102H663.383L455.037 343.629L452.522 346.546L454.7 349.722L693.509 698H514.135L356.224 467.689L352.553 462.336L348.313 467.252L149.343 698H111.868L333.501 441.142L336.018 438.225L333.839 435.048L105.49 102H284.864ZM152.398 131.722L524.158 673.933L525.647 676.105H651.968L646.602 668.278L274.842 126.067L273.353 123.895H147.032L152.398 131.722Z" stroke="url(#paint0_linear_52_65)" stroke-width="10" stroke-miterlimit="16"/>
<defs>
<linearGradient id="paint0_linear_52_65" x1="96" y1="400" x2="703" y2="400" gradientUnits="userSpaceOnUse">
<stop stop-color="#0058C1" stop-opacity="0"/>
<stop offset="0.5" stop-color="#0058C1"/>
<stop offset="1" stop-color="#0058C1"/>
</linearGradient>
</defs>
</svg>
