<svg width="800" height="800" viewBox="0 0 800 800" fill="none" xmlns="http://www.w3.org/2000/svg">
<path d="M205.533 174.533H598.376C669.464 176.064 726.5 233.56 726.5 304.077V496.923C726.5 568.401 667.934 626.5 595.467 626.5H205.533C133.098 626.5 74.5002 568.4 74.5 496.923V304.077C74.5003 232.602 133.064 174.533 205.533 174.533ZM322.896 298.743C313.174 293.859 301.407 300.816 301.407 311.901V489.445C301.422 491.945 302.069 494.401 303.288 496.583C304.507 498.766 306.258 500.605 308.379 501.929C310.499 503.253 312.921 504.019 315.417 504.155C317.894 504.291 320.364 503.801 322.603 502.734L322.604 502.735L504.959 416.655L504.96 416.656C507.377 415.527 509.542 413.744 511.096 411.337C512.597 409.011 513.413 406.309 513.448 403.541C513.482 400.946 512.829 398.391 511.56 396.135L511.297 395.688L511.02 395.25C509.595 393.088 507.622 391.337 505.3 390.178L322.896 298.743H322.896Z" fill="#001D30" fill-opacity="0.3"/>
<path d="M205.533 174.533H598.376C669.464 176.064 726.5 233.56 726.5 304.077V496.923C726.5 568.401 667.934 626.5 595.467 626.5H205.533C133.098 626.5 74.5002 568.4 74.5 496.923V304.077C74.5003 232.602 133.064 174.533 205.533 174.533ZM322.896 298.743C313.174 293.859 301.407 300.816 301.407 311.901V489.445C301.422 491.945 302.069 494.401 303.288 496.583C304.507 498.766 306.258 500.605 308.379 501.929C310.499 503.253 312.921 504.019 315.417 504.155C317.894 504.291 320.364 503.801 322.603 502.734L322.604 502.735L504.959 416.655L504.96 416.656C507.377 415.527 509.542 413.744 511.096 411.337C512.597 409.011 513.413 406.309 513.448 403.541C513.482 400.946 512.829 398.391 511.56 396.135L511.297 395.688L511.02 395.25C509.595 393.088 507.622 391.337 505.3 390.178L322.896 298.743H322.896Z" stroke="#009AFC" stroke-width="15"/>
<path d="M205.533 174.533H598.376C669.464 176.064 726.5 233.56 726.5 304.077V496.923C726.5 568.401 667.934 626.5 595.467 626.5H205.533C133.098 626.5 74.5002 568.4 74.5 496.923V304.077C74.5003 232.602 133.064 174.533 205.533 174.533ZM322.896 298.743C313.174 293.859 301.407 300.816 301.407 311.901V489.445C301.422 491.945 302.069 494.401 303.288 496.583C304.507 498.766 306.258 500.605 308.379 501.929C310.499 503.253 312.921 504.019 315.417 504.155C317.894 504.291 320.364 503.801 322.603 502.734L322.604 502.735L504.959 416.655L504.96 416.656C507.377 415.527 509.542 413.744 511.096 411.337C512.597 409.011 513.413 406.309 513.448 403.541C513.482 400.946 512.829 398.391 511.56 396.135L511.297 395.688L511.02 395.25C509.595 393.088 507.622 391.337 505.3 390.178L322.896 298.743H322.896Z" stroke="url(#paint0_linear_1_4)" stroke-width="15"/>
<defs>
<linearGradient id="paint0_linear_1_4" x1="67" y1="400.5" x2="734" y2="400.5" gradientUnits="userSpaceOnUse">
<stop stop-color="#0058C1" stop-opacity="0"/>
<stop offset="0.5" stop-color="#0058C1"/>
<stop offset="1" stop-color="#0058C1"/>
</linearGradient>
</defs>
</svg>
